<svg width="123" height="197" viewBox="0 0 123 197" fill="none" xmlns="http://www.w3.org/2000/svg">
<path d="M5.43661 110.865C12.252 113.261 19.5695 113.861 26.6842 112.608C33.7989 111.354 40.471 108.29 46.0576 103.71C60.2851 91.7674 64.7467 72.0991 68.3752 53.8827L79.1108 0L56.6352 15.4758C40.4709 26.6052 23.9435 38.0921 12.7526 54.2122C1.56165 70.3323 -3.32066 92.3393 5.66829 109.783" fill="#D17DFA"/>
<path d="M8.90723 179.852C6.07835 159.242 3.16779 138.366 5.15688 117.535C6.91959 99.0345 12.5639 80.9682 24.0549 66.1486C30.1543 58.2989 37.5761 51.5733 45.9868 46.2741C48.1794 44.8905 50.198 48.365 48.0148 49.7434C33.4617 58.9403 22.2052 72.5212 15.8683 88.5281C8.86977 106.328 7.74597 125.732 8.95145 144.641C9.68011 156.076 11.2285 167.435 12.7835 178.782C12.9063 179.295 12.8297 179.836 12.5691 180.294C12.3086 180.753 11.8835 181.096 11.3799 181.253C10.8661 181.391 10.3185 181.322 9.8559 181.059C9.39325 180.796 9.05286 180.362 8.90861 179.849L8.90723 179.852Z" fill="#EDC8FF"/>
<path d="M30.2964 146.977C33.219 151.421 37.2367 155.037 41.9626 157.476C46.6884 159.916 51.963 161.098 57.278 160.907C70.9403 160.259 82.3255 150.728 92.5735 141.676L122.892 114.907L102.827 113.947C88.397 113.256 73.595 112.607 59.8511 117.062C46.1072 121.517 33.4321 132.222 30.9193 146.448" fill="#D17DFA"/>
<path d="M0.500244 194.5C14.1196 170.402 31.3525 141.015 59.5798 132.455C67.4277 130.083 75.6566 129.233 83.8236 129.951C86.3979 130.174 85.755 134.141 83.186 133.92C69.4959 132.784 55.8322 136.398 44.4952 144.156C33.5855 151.582 25.0908 161.906 17.9021 172.853C13.498 179.56 9.44489 188.519 5.50024 195.5C4.23978 197.731 -0.774895 196.757 0.500244 194.5Z" fill="#EDC8FF"/>
</svg>
