<svg width="208" height="123" viewBox="0 0 208 123" fill="none" xmlns="http://www.w3.org/2000/svg">
<path d="M82.4123 -11.2642C81.643 -4.08109 82.7364 3.17913 85.5874 9.81698C88.4384 16.4548 92.9509 22.2466 98.69 26.6343C113.576 37.7448 133.743 37.5783 152.307 36.9337L207.215 35.0298L186.999 16.7009C172.46 3.51878 157.49 -9.93473 139.233 -17.1318C120.977 -24.3288 98.4367 -24.0356 83.5189 -11.2868" fill="#D17DFA"/>
<path d="M18.4424 7.98679C37.8547 0.508062 57.5077 -7.11125 78.2398 -9.951C96.6514 -12.4768 115.531 -11.1248 132.59 -3.33752C141.629 0.799719 149.877 6.48187 156.963 13.4535C158.813 15.2705 155.894 18.032 154.051 16.2229C141.763 4.16602 125.963 -3.67694 108.93 -6.17519C89.9995 -8.90641 70.8543 -5.55148 52.7255 -0.0429226C41.7625 3.28794 31.0603 7.39952 20.3726 11.5145C19.9014 11.7517 19.3576 11.801 18.8513 11.6526C18.3451 11.5041 17.9141 11.1689 17.6455 10.7148C17.393 10.2465 17.3353 9.69747 17.4851 9.1869C17.6348 8.67634 17.9797 8.24537 18.4452 7.98754L18.4424 7.98679Z" fill="#EDC8FF"/>
<path d="M9.01998 47.611C13.0634 48.1784 16.8925 49.7776 20.1385 52.2544C23.3845 54.7312 25.9379 58.0023 27.5527 61.7524C31.5931 71.4423 28.7247 82.4741 25.8152 92.5607L17.2104 122.397L9.94728 108.791C4.72352 99.0065 -0.58963 88.948 -2.02075 77.9497C-3.45188 66.9513 -0.18728 54.6362 8.8552 48.2145" fill="#D17DFA"/>
<path d="M28.6784 13.8826C21.9058 23.4937 15.0229 33.2174 10.6115 44.1906C6.69162 53.9352 4.83299 64.4701 6.7525 74.8935C7.77565 80.418 9.75456 85.7216 12.6003 90.566C13.3416 91.83 15.2573 90.6102 14.5193 89.3512C9.60244 80.955 7.47899 71.2142 8.45511 61.5333C9.56472 50.7806 14.0401 40.7481 19.556 31.5693C22.8915 26.0185 26.619 20.7183 30.3463 15.4265C30.5412 15.2008 30.6432 14.9095 30.6315 14.6116C30.6198 14.3136 30.4954 14.0312 30.2835 13.8215C30.0615 13.6186 29.7685 13.5114 29.4681 13.5231C29.1676 13.5349 28.8838 13.6646 28.6784 13.8842L28.6784 13.8826Z" fill="#EDC8FF"/>
<path d="M52.9177 20.168C49.2626 24.0315 46.6642 28.7713 45.3728 33.9306C44.0814 39.0899 44.1405 44.4949 45.5446 49.6247C49.308 62.7744 61.1957 71.6711 72.356 79.5708L105.363 102.944L101.697 83.1936C99.0615 68.9898 96.2989 54.4334 88.8116 42.077C81.3243 29.7205 67.9987 19.8374 53.5753 20.6531" fill="#D17DFA"/>
<path d="M-1.99951 -1.5C24.5789 6.23174 58.9634 19.8292 73.7673 45.342C77.8752 52.4371 80.5889 60.252 81.7623 68.3661C82.1361 70.9229 78.127 71.2066 77.7531 68.6554C75.7207 55.0693 69.0695 42.5984 58.9192 33.342C49.1899 24.4254 37.193 18.524 24.8893 14.0366C17.3516 11.2874 8.20005 6.73902 0.500489 4.5C-1.96054 3.78472 -4.48868 -2.22373 -1.99951 -1.5Z" fill="#EDC8FF"/>
</svg>
