<svg width="104" height="89" viewBox="0 0 104 89" fill="none" xmlns="http://www.w3.org/2000/svg">
<circle cx="52" cy="44.5" r="44" fill="#F3F0EA"/>
<circle cx="52" cy="44.5" r="44" fill="#FADB78"/>
<path d="M53.7918 60.0418V34.4439C55.7397 33.7564 57.2981 32.1981 57.9856 30.2502H65.2502L58.8793 45.1231C58.4897 46.0168 58.3522 47.0481 58.6272 47.9877C59.521 50.9668 62.6606 53.1668 66.396 53.1668C70.1314 53.1668 73.2939 50.9668 74.1647 47.9877C74.4397 47.0481 74.3022 46.0168 73.9127 45.1231L67.5418 30.2502H69.8335C71.0939 30.2502 72.1252 29.2189 72.1252 27.9585C72.1252 26.6981 71.0939 25.6668 69.8335 25.6668H57.9856C57.046 22.9856 54.5022 21.0835 51.5002 21.0835C48.4981 21.0835 45.9543 22.9856 45.0147 25.6668H33.1668C31.9064 25.6668 30.8752 26.6981 30.8752 27.9585C30.8752 29.2189 31.9064 30.2502 33.1668 30.2502H35.4585L29.0877 45.1231C28.6981 46.0168 28.5606 47.0481 28.8356 47.9877C29.7064 50.9668 32.8689 53.1668 36.6043 53.1668C40.3397 53.1668 43.5022 50.9668 44.3731 47.9877C44.6481 47.0481 44.5106 46.0168 44.121 45.1231L37.7502 30.2502H45.0147C45.7022 32.1981 47.2606 33.7564 49.2085 34.4439V60.0418H53.7918ZM49.2085 60.0418H30.8752C29.6147 60.0418 28.5835 61.0731 28.5835 62.3335C28.5835 63.5939 29.6147 64.6252 30.8752 64.6252H72.1252C73.3856 64.6252 74.4168 63.5939 74.4168 62.3335C74.4168 61.0731 73.3856 60.0418 72.1252 60.0418H53.7918H49.2085ZM70.6814 46.2918H62.1106L66.396 36.3002L70.6814 46.2918ZM40.8897 46.2918H32.3189L36.6043 36.3002L40.8897 46.2918ZM51.5002 30.2502C50.2397 30.2502 49.2085 29.2189 49.2085 27.9585C49.2085 26.6981 50.2397 25.6668 51.5002 25.6668C52.7606 25.6668 53.7918 26.6981 53.7918 27.9585C53.7918 29.2189 52.7606 30.2502 51.5002 30.2502Z" fill="#25092D"/>
</svg>
