<svg width="104" height="89" viewBox="0 0 104 89" fill="none" xmlns="http://www.w3.org/2000/svg">
<circle cx="52" cy="44.5" r="44" fill="#FADB78"/>
<g clip-path="url(#clip0_33_598)">
<path d="M42.9062 25.0938C39.522 25.0938 36.8219 27.5705 36.2461 30.788C32.9977 31.6061 30.1772 33.7219 28.9414 37.0717H28.8881L25.2358 47.3309C24.4274 48.9678 24.0046 50.7681 24 52.5938C24 59.2195 29.4055 64.625 36.0312 64.625C42.0005 64.625 46.9745 60.2422 47.9009 54.5273C48.8556 55.4833 50.149 56.0237 51.5 56.0312C52.8973 56.0312 54.1641 55.4469 55.0991 54.5273C56.0255 60.2405 60.9995 64.625 66.9688 64.625C73.5945 64.625 79 59.2195 79 52.5938C79 50.9214 78.6562 49.3178 78.0323 47.8672L74.1136 36.9102L74.0586 36.8569V36.8036C72.8039 33.7545 70.023 31.6267 66.7539 30.788C66.1764 27.5687 63.478 25.0938 60.0938 25.0938C56.9055 25.0938 54.3136 27.3023 53.5402 30.25H49.4581C48.6881 27.3023 46.0945 25.0938 42.9062 25.0938ZM42.9062 28.5312C44.9533 28.5312 46.3438 29.9217 46.3438 31.9688V33.6875H56.6562V31.9688C56.6562 29.9217 58.0467 28.5312 60.0938 28.5312C62.1408 28.5312 63.5312 29.9217 63.5312 31.9688V33.5259L65.0884 33.6875C67.6408 33.9556 69.8425 35.7345 70.8359 38.0377C70.8497 38.072 70.8755 38.1116 70.8892 38.1459L72.1783 41.7983C70.5578 40.9969 68.7765 40.5743 66.9688 40.5625C61.9397 40.5625 57.6428 43.6838 55.8502 48.082C55.38 47.3562 54.7356 46.7597 53.9758 46.3469C53.2159 45.9341 52.3648 45.7181 51.5 45.7188C49.6953 45.7188 48.0694 46.652 47.1498 48.082C45.3572 43.6838 41.0603 40.5625 36.0312 40.5625C34.1922 40.5625 32.4391 40.9991 30.875 41.745L32.1641 38.2525V38.1992C33.1644 35.5403 35.2733 33.9625 37.9116 33.6875L39.4688 33.5259V31.9688C39.4688 29.9217 40.8592 28.5312 42.9062 28.5312ZM36.0312 44C40.7973 44 44.625 47.8277 44.625 52.5938C44.625 57.3598 40.7973 61.1875 36.0312 61.1875C31.2652 61.1875 27.4375 57.3598 27.4375 52.5938C27.4375 51.3786 27.74 50.2563 28.1903 49.2095C28.2161 49.1425 28.2161 49.0617 28.2419 48.9947C28.9246 47.5028 30.0218 46.2388 31.4029 45.3532C32.784 44.4676 34.3906 43.9979 36.0312 44ZM66.9688 44C71.7348 44 75.5625 47.8277 75.5625 52.5938C75.5625 57.3598 71.7348 61.1875 66.9688 61.1875C62.2027 61.1875 58.375 57.3598 58.375 52.5938C58.375 47.8277 62.2027 44 66.9688 44ZM51.5 49.1562C52.4677 49.1562 53.2188 49.9091 53.2188 50.875C53.2188 51.8427 52.4659 52.5938 51.5 52.5938C50.5323 52.5938 49.7812 51.8409 49.7812 50.875C49.7812 49.9073 50.5341 49.1562 51.5 49.1562Z" fill="#25092D"/>
</g>
<defs>
<clipPath id="clip0_33_598">
<rect width="55" height="55" fill="white" transform="translate(24 16.5)"/>
</clipPath>
</defs>
</svg>
