<svg width="80" height="80" viewBox="0 0 80 80" fill="none" xmlns="http://www.w3.org/2000/svg">
<circle cx="40" cy="40" r="40" fill="#FADB78"/>
<path d="M39.6001 41.2214L17.2201 33.0184L18.0001 55.1683H13.2001L14.0401 31.8348L9.6001 30.2107L39.6001 19.2L69.6001 30.2107L39.6001 41.2214ZM39.6001 27.458C37.9501 27.458 36.6001 28.0636 36.6001 28.8343C36.6001 29.6051 37.9501 30.2107 39.6001 30.2107C41.2501 30.2107 42.6001 29.6051 42.6001 28.8343C42.6001 28.0636 41.2501 27.458 39.6001 27.458ZM39.6001 43.9741C39.6001 43.9741 52.2824 45.2587 50.8001 45.9927C49.3178 46.7268 48.8633 43.2884 51.6001 43.7906C55.6001 44.5246 60.2312 45.7988 60.3901 46.9195C59.4901 46.8094 60.2291 45.8184 59.2001 45.6257C56.571 45.1334 50.4001 41.9555 51.6001 47.5284C50.7371 47.7651 49.8975 48.0516 49.0852 48.3841C50.8001 41.9555 42.4001 44.1576 45.2001 50.4599C42.9485 51.9808 41.0399 53.9044 39.6001 56.1134C37.7423 53.2527 35.1068 50.8837 31.9515 49.2382C28.7962 47.5928 25.2294 46.7274 21.6001 46.7268C20.6401 46.7268 19.7101 46.8094 18.8101 46.9195C19.2901 43.5337 20.7601 40.4231 22.8901 37.8356L39.6001 43.9741Z" fill="#25092D"/>
<path d="M45.3725 46.1394C45.151 46.9308 45.0392 47.7447 45.0399 48.5618C45.0399 49.3975 45.1561 50.209 45.3725 50.9841H49.1319C48.9539 49.3733 48.9539 47.7502 49.1319 46.1394H45.3725ZM46.4523 43.717H49.549C49.9001 42.243 50.407 40.9228 51.0287 39.8243C49.1123 40.6714 47.5178 42.0277 46.4523 43.717ZM65.8273 46.1394H62.0679C62.2459 47.7502 62.2459 49.3733 62.0679 50.9841H65.8273C66.2717 49.395 66.2717 47.7286 65.8273 46.1394ZM64.7475 43.717C63.682 42.0277 62.0875 40.6714 60.1711 39.8243C60.7941 40.9228 61.2997 42.243 61.6508 43.717H64.7475ZM51.7877 46.1394C51.6888 46.9437 51.6395 47.7524 51.6399 48.5618C51.6399 49.3914 51.6901 50.2029 51.7877 50.9841H59.4121C59.6109 49.3744 59.6109 47.7492 59.4121 46.1394H51.7877ZM52.2603 43.717H58.9395C58.6993 42.8066 58.3528 41.9226 57.9059 41.0803C57.077 39.5603 56.1899 38.8723 55.5999 38.8723C55.0085 38.8723 54.1228 39.5603 53.2939 41.0803C52.8781 41.8458 52.5283 42.736 52.2603 43.717ZM46.4523 53.4065C47.5178 55.0958 49.1123 56.4521 51.0287 57.2992C50.4057 56.2007 49.9001 54.8805 49.549 53.4065H46.4523ZM64.7475 53.4065H61.6508C61.2997 54.8805 60.7928 56.2007 60.1711 57.2992C62.0875 56.4521 63.682 55.0958 64.7475 53.4065ZM52.2603 53.4065C52.5283 54.3876 52.8781 55.2778 53.2939 56.0432C54.1228 57.5633 55.0099 58.2512 55.5999 58.2512C56.1913 58.2512 57.077 57.5633 57.9059 56.0432C58.3217 55.2778 58.6715 54.3876 58.9395 53.4065H52.2603ZM55.5999 60.6736C48.3095 60.6736 42.3999 55.2511 42.3999 48.5618C42.3999 41.8724 48.3095 36.45 55.5999 36.45C62.8903 36.45 68.7999 41.8724 68.7999 48.5618C68.7999 55.2511 62.8903 60.6736 55.5999 60.6736Z" fill="#25092D"/>
</svg>
