<svg width="641" height="719" viewBox="0 0 641 719" fill="none" xmlns="http://www.w3.org/2000/svg">
<g clip-path="url(#clip0_281_1027)">
<path d="M617.5 483.5C617.5 494 622.5 503 630.5 503.5L628.5 490L617.5 483.5Z" fill="#25092D"/>
<path d="M62.8788 311.617C62.8788 336.549 68.8075 357.071 79.0918 374.651C82.4862 380.442 86.3394 385.953 90.6147 391.133C128.422 437.188 198.712 462.396 262.24 503.228C449.766 623.752 470.079 430.624 461.609 311.617C458.193 263.598 439.418 219.612 409.589 185.933C403.325 178.85 396.558 172.224 389.34 166.106C355.477 137.382 311.727 120 262.24 120C177.339 120 104.835 171.004 76.0884 242.877C67.3487 264.749 62.8658 288.077 62.8788 311.617Z" fill="#FECE2F"/>
<path d="M219.764 163.185L409.589 185.933C403.324 178.85 396.557 172.224 389.34 166.106L219.764 163.185Z" fill="#F3F0EA"/>
<path d="M79.0919 374.651C82.4863 380.441 86.3395 385.953 90.6148 391.132L253.216 371.652L79.0919 374.651Z" fill="#F3F0EA"/>
<path d="M69.455 262.641L345.028 227.041L76.0882 242.877C73.5053 249.336 71.2907 255.934 69.455 262.641Z" fill="#F3F0EA"/>
<path d="M442.916 171.041C442.916 171.53 442.93 172.012 442.973 172.487C443.188 175.431 444.06 178.29 445.525 180.855C446.991 183.421 449.012 185.629 451.442 187.318C453.872 189.008 456.65 190.136 459.573 190.621C462.496 191.105 465.491 190.935 468.34 190.121C471.189 189.307 473.819 187.871 476.04 185.916C478.261 183.962 480.016 181.539 481.178 178.824C482.339 176.108 482.878 173.169 482.755 170.22C482.632 167.271 481.85 164.386 480.466 161.776C480.038 160.958 479.548 160.174 479 159.43C476.617 156.137 473.278 153.652 469.432 152.31C465.587 150.967 461.42 150.831 457.495 151.921C453.569 153.01 450.074 155.272 447.48 158.402C444.885 161.532 443.317 165.379 442.987 169.425C442.937 169.956 442.916 170.495 442.916 171.041Z" fill="#FECE2F"/>
<path d="M442.916 171.041C442.916 171.53 442.93 172.012 442.973 172.487L472.809 168.914L442.987 169.424C442.938 169.956 442.916 170.495 442.916 171.041Z" fill="#F3F0EA"/>
<path d="M450.033 181.043L477.634 184.353C478.417 183.484 479.122 182.547 479.741 181.553L450.033 181.043Z" fill="#F3F0EA"/>
<path d="M457.862 159.068L480.467 161.776C480.038 160.958 479.548 160.173 479.001 159.429L457.862 159.068Z" fill="#F3F0EA"/>
<path d="M169.803 528.406C170.033 528.838 170.273 529.257 170.534 529.656C172.11 532.156 174.226 534.274 176.727 535.856C179.229 537.439 182.054 538.445 184.995 538.803C187.937 539.16 190.922 538.86 193.732 537.923C196.542 536.987 199.108 535.437 201.241 533.389C203.374 531.34 205.022 528.843 206.063 526.08C207.105 523.316 207.515 520.356 207.263 517.416C207.011 514.475 206.104 511.627 204.607 509.079C203.111 506.532 201.062 504.349 198.612 502.689C197.848 502.167 197.046 501.703 196.212 501.301C192.558 499.506 188.438 498.87 184.409 499.479C180.38 500.089 176.636 501.914 173.681 504.709C170.727 507.504 168.704 511.135 167.886 515.111C167.067 519.087 167.493 523.217 169.105 526.945C169.311 527.438 169.546 527.923 169.803 528.406Z" fill="#FECE2F"/>
<path d="M169.803 528.406C170.034 528.838 170.273 529.257 170.534 529.656L195.207 512.57L169.106 526.945C169.312 527.438 169.546 527.923 169.803 528.406Z" fill="#F3F0EA"/>
<path d="M180.797 533.918L206.736 523.955C207.018 522.821 207.2 521.664 207.279 520.498L180.797 533.918Z" fill="#F3F0EA"/>
<path d="M177.37 510.851L198.612 502.689C197.848 502.167 197.046 501.703 196.212 501.301L177.37 510.851Z" fill="#F3F0EA"/>
<path d="M28.6589 186.247C28.3161 186.597 27.9884 186.952 27.686 187.321C25.7767 189.579 24.3969 192.232 23.6472 195.088C22.8975 197.943 22.7968 200.929 23.3523 203.829C23.9079 206.728 25.1058 209.467 26.8587 211.847C28.6116 214.227 30.8753 216.188 33.4852 217.586C36.095 218.985 38.9851 219.786 41.945 219.931C44.9049 220.076 47.86 219.562 50.5952 218.426C53.3304 217.29 55.7767 215.56 57.756 213.363C59.7352 211.166 61.1976 208.558 62.0365 205.727C62.3031 204.843 62.5021 203.941 62.6317 203.027C63.2334 199.013 62.5846 194.912 60.7728 191.276C58.961 187.641 56.0735 184.646 52.4995 182.696C48.9256 180.747 44.8372 179.935 40.7859 180.372C36.7346 180.809 32.9152 182.473 29.8429 185.139C29.4346 185.485 29.0416 185.856 28.6589 186.247Z" fill="#FECE2F"/>
<path d="M28.6588 186.247C28.3159 186.597 27.9883 186.952 27.6859 187.322L51.5498 205.512L29.8428 185.139C29.4344 185.485 29.0414 185.856 28.6588 186.247Z" fill="#F3F0EA"/>
<path d="M26.7424 198.357L44.1814 219.921C45.352 219.843 46.5135 219.662 47.6523 219.381L26.7424 198.357Z" fill="#F3F0EA"/>
<path d="M47.7522 188.069L62.0366 205.727C62.3033 204.843 62.5022 203.941 62.6318 203.027L47.7522 188.069Z" fill="#F3F0EA"/>
<path d="M402.528 552.029C402.528 552.029 358.795 553.844 358.795 564.734C358.795 575.623 407.994 564.734 407.994 564.734L402.528 552.029Z" fill="#A0616A"/>
<path d="M468.126 719H549.5L553.769 669.998L576.5 719H654C661 653 621.19 561.104 619.368 552.03C617.545 542.955 613.19 505.459 613.19 505.459C605.227 488.635 563.5 487.056 530.791 488.581C517.234 489.198 505.208 490.359 497.792 491.194C492.89 491.739 489.992 492.138 489.992 492.138C476.928 505.55 468.509 523.826 463.334 544.244C444.675 617.801 468.126 719 468.126 719Z" fill="#1E1D27"/>
<path d="M559.235 297.944C534.076 297.944 513.681 277.63 513.681 252.571C513.681 227.513 534.076 207.199 559.235 207.199C584.395 207.199 604.79 227.513 604.79 252.571C604.79 277.63 584.395 297.944 559.235 297.944Z" fill="#A0616A"/>
<path d="M590.213 263.46C590.213 263.46 602.968 319.722 623.012 336.056C643.056 352.39 544.658 336.056 544.658 336.056C544.658 336.056 566.524 299.758 550.125 283.424C533.725 267.09 590.213 263.46 590.213 263.46Z" fill="#A0616A"/>
<path d="M497.281 495.768L527.511 499.107L612.079 508.472C612.079 508.472 612.48 507.401 613.19 505.459C619.331 488.78 648.905 407.618 652.167 383.244C655.811 356.021 617.545 323.352 617.545 323.352C617.545 323.352 581.102 316.093 570.169 316.093C559.236 316.093 515.503 332.427 515.503 332.427L499.195 478.544L497.791 491.194L497.281 495.768Z" fill="#9435B6"/>
<path opacity="0.15" d="M463.334 544.243L524.614 508.472C524.614 508.472 525.689 504.987 527.511 499.107C528.423 496.167 529.534 492.61 530.791 488.58C537.861 465.967 549.724 428.653 559.236 401.393C573.813 359.65 502.748 475.804 502.748 475.804L499.195 478.544L497.792 491.194C492.89 491.738 489.993 492.138 489.993 492.138C476.928 505.55 468.509 523.826 463.334 544.243Z" fill="black"/>
<path d="M544.658 336.057C544.658 336.057 562.88 359.65 548.303 401.393C533.725 443.136 513.681 508.472 513.681 508.472L407.994 570.178L393.417 552.029L491.815 475.804C491.815 475.804 495.459 337.871 513.681 332.427C531.903 326.982 544.658 336.057 544.658 336.057Z" fill="#9435B6"/>
<path d="M634.856 494.86C634.856 494.86 609.346 547.492 598.413 542.047C587.48 536.603 625.746 482.156 625.746 482.156L634.856 494.86Z" fill="#A0616A"/>
<path d="M637.59 350.576L734.165 430.431C734.165 430.431 770.609 455.84 703.188 473.989C635.767 492.138 630.5 503.5 630.5 503.5C630.5 503.5 625.099 483.437 615 484.5L692.255 444.95L628.479 406.838L637.59 350.576Z" fill="#9435B6"/>
<path d="M676.404 289.811C671.335 287.311 660.143 282.265 650.609 276.186C651.277 256.41 648.832 238.458 641.675 228.942C637.658 219.857 629.221 210.761 622.614 203.597C606.388 186.006 570.509 176.187 564.145 184.976C516.015 185.922 510.948 223.499 510.948 223.499C511.198 239.216 527.599 239.713 541.966 239.141C540.679 249.87 544.108 261.02 554.036 265.964C573.022 275.419 578.718 287.711 569.225 296.22C559.732 304.73 542.645 327.422 565.428 333.095C588.211 338.768 591.059 350.114 584.414 354.842C577.769 359.569 599.603 346.332 599.603 346.332C599.603 346.332 603.4 369.024 623.335 363.351C625.122 362.843 626.907 361.54 628.663 359.592C634.047 365.484 638.85 368.968 642.47 368.987C663.203 369.096 660.717 346.225 660.717 346.225C660.717 346.225 685.325 353.109 677.647 350.341C669.968 347.573 669.639 335.882 690.043 324.301C710.447 312.72 687.849 295.456 676.404 289.811Z" fill="#1E1D27"/>
<path d="M422.027 349.097L422.357 349.053L421.551 352.106C420.789 356.365 419.682 360.556 418.241 364.637L394.593 454.174C393.838 457.032 392.262 459.608 390.059 461.586C387.855 463.564 385.119 464.859 382.187 465.31L333.961 472.741C330.843 473.222 327.651 472.726 324.828 471.323C322.005 469.919 319.688 467.678 318.199 464.907L272.368 379.645C270.936 377.283 269.627 374.849 268.448 372.352L266.892 369.457L267.134 369.426C262.276 357.979 260.137 345.569 260.885 333.164C261.633 320.759 265.248 308.693 271.447 297.908C277.646 287.122 286.262 277.908 296.623 270.984C306.985 264.06 318.811 259.613 331.182 257.99C343.553 256.366 356.132 257.61 367.941 261.624C379.75 265.638 390.468 272.315 399.26 281.133C408.053 289.95 414.682 300.672 418.631 312.46C422.58 324.249 423.742 336.787 422.027 349.097H422.027Z" fill="#F3F0EA" fill-opacity="0.4"/>
<path d="M331.001 478.591C331.851 478.591 332.699 478.526 333.538 478.396L383.948 470.629C387.15 470.136 390.138 468.722 392.544 466.562C394.951 464.402 396.672 461.588 397.495 458.467L422.214 364.877C423.725 360.592 424.886 356.193 425.686 351.723L426.311 347.628C427.993 334.548 426.599 321.258 422.24 308.806C417.88 296.354 410.675 285.082 401.191 275.879C391.708 266.677 380.207 259.795 367.596 255.779C354.985 251.762 341.61 250.72 328.525 252.735L328.743 254.137C341.685 252.15 354.914 253.204 367.375 257.213C379.836 261.223 391.183 268.077 400.512 277.23C409.841 286.383 416.893 297.58 421.106 309.929C425.319 322.278 426.576 335.437 424.777 348.356L424.297 351.418C423.503 355.851 422.351 360.213 420.854 364.462L396.118 458.107C395.365 460.961 393.792 463.533 391.591 465.509C389.391 467.484 386.659 468.777 383.731 469.227L333.321 476.995C330.207 477.472 327.022 476.975 324.203 475.574C321.384 474.173 319.071 471.937 317.581 469.172L316.326 469.841C317.751 472.484 319.867 474.693 322.451 476.233C325.035 477.774 327.99 478.589 331.001 478.591V478.591Z" fill="#F0F0F0"/>
<path d="M318.214 369.448L348.887 452.862L347.158 453.493L316.485 370.079L318.214 369.448Z" fill="#AFADBC"/>
<path d="M368.296 361.73L370.135 361.811L366.22 450.557L364.381 450.477L368.296 361.73Z" fill="#AFADBC"/>
<path d="M335.263 521.021L399.857 511.068C400.337 510.992 400.768 510.728 401.054 510.337C401.34 509.945 401.459 509.456 401.385 508.977C401.31 508.499 401.049 508.068 400.657 507.781C400.265 507.494 399.775 507.373 399.294 507.444L334.7 517.397C334.46 517.432 334.229 517.515 334.021 517.639C333.813 517.764 333.632 517.928 333.488 518.123C333.344 518.318 333.24 518.539 333.182 518.774C333.125 519.008 333.114 519.252 333.151 519.491C333.188 519.73 333.272 519.959 333.399 520.166C333.525 520.372 333.691 520.551 333.887 520.694C334.084 520.836 334.306 520.938 334.542 520.994C334.778 521.05 335.023 521.06 335.263 521.021V521.021Z" fill="#3F3D56"/>
<path d="M333.606 507.359L398.201 497.406C398.441 497.37 398.671 497.288 398.879 497.163C399.087 497.039 399.268 496.874 399.412 496.68C399.556 496.485 399.66 496.264 399.718 496.029C399.776 495.795 399.786 495.551 399.749 495.312C399.712 495.073 399.628 494.844 399.502 494.637C399.375 494.431 399.209 494.251 399.013 494.109C398.817 493.967 398.594 493.865 398.358 493.809C398.122 493.752 397.877 493.743 397.638 493.782L333.043 503.734C332.803 503.77 332.573 503.853 332.365 503.977C332.157 504.102 331.976 504.266 331.832 504.461C331.688 504.655 331.584 504.877 331.526 505.111C331.468 505.346 331.457 505.59 331.495 505.829C331.532 506.068 331.616 506.297 331.742 506.503C331.869 506.71 332.035 506.889 332.231 507.031C332.427 507.173 332.65 507.276 332.886 507.332C333.122 507.388 333.367 507.397 333.606 507.359V507.359Z" fill="#3F3D56"/>
<path d="M331.95 493.697L396.545 483.744C397.025 483.667 397.455 483.404 397.741 483.012C398.028 482.62 398.146 482.132 398.072 481.653C397.998 481.174 397.736 480.744 397.344 480.456C396.953 480.169 396.463 480.048 395.982 480.119L331.387 490.072C330.907 490.149 330.477 490.412 330.19 490.804C329.904 491.196 329.785 491.684 329.86 492.163C329.934 492.642 330.196 493.072 330.587 493.359C330.979 493.647 331.469 493.768 331.95 493.697H331.95Z" fill="#3F3D56"/>
<path d="M369.568 528.971C356.755 530.945 345.264 525.434 343.901 516.66L390.3 509.511C391.663 518.284 382.381 526.997 369.568 528.971Z" fill="#3F3D56"/>
<path d="M346.349 351.875C349.105 351.45 351.385 349.28 352.635 347.826C353.045 347.349 353.444 346.855 353.844 346.359C355.3 344.554 356.675 342.85 358.589 341.961C362.814 339.997 367.793 342.74 372.104 345.682L373.145 344.17C368.406 340.934 362.879 337.944 357.81 340.298C355.508 341.368 353.932 343.321 352.409 345.21C352.021 345.691 351.634 346.171 351.237 346.634C349.937 348.145 347.344 350.595 344.567 350.03C343.396 349.69 342.307 349.116 341.367 348.343C340.651 347.811 339.894 347.335 339.103 346.92C337.499 346.154 335.704 345.878 333.942 346.126C332.181 346.374 330.533 347.135 329.205 348.314C328.732 348.76 328.283 349.233 327.862 349.728C327.034 350.669 326.252 351.556 325.234 351.879C323.729 352.358 322.139 351.501 320.453 350.596C318.715 349.662 316.919 348.696 314.881 348.934C314.814 348.942 314.748 348.951 314.682 348.961C311.055 349.52 309.383 353.515 308.437 356.496L310.193 357.048C311.479 352.996 313.044 350.98 315.096 350.756C316.556 350.585 318.024 351.374 319.579 352.21C321.527 353.258 323.544 354.341 325.793 353.626C327.298 353.149 328.289 352.025 329.246 350.938C329.623 350.493 330.025 350.069 330.448 349.667C331.505 348.744 332.81 348.149 334.202 347.953C335.594 347.757 337.013 347.969 338.286 348.563C338.99 348.937 339.665 349.364 340.304 349.84C341.447 350.768 342.773 351.445 344.197 351.827C344.906 351.971 345.634 351.987 346.349 351.875Z" fill="#AFADBC"/>
</g>
<g filter="url(#filter0_f_281_1027)">
<ellipse cx="332.5" cy="323.936" rx="132.5" ry="123.856" fill="#FFD056" fill-opacity="0.5"/>
</g>
<defs>
<filter id="filter0_f_281_1027" x="0" y="0.0800781" width="665" height="647.712" filterUnits="userSpaceOnUse" color-interpolation-filters="sRGB">
<feFlood flood-opacity="0" result="BackgroundImageFix"/>
<feBlend mode="normal" in="SourceGraphic" in2="BackgroundImageFix" result="shape"/>
<feGaussianBlur stdDeviation="100" result="effect1_foregroundBlur_281_1027"/>
</filter>
<clipPath id="clip0_281_1027">
<rect width="721" height="599" fill="white" transform="matrix(-1 0 0 1 744 120)"/>
</clipPath>
</defs>
</svg>
