<svg width="80" height="80" viewBox="0 0 80 80" fill="none" xmlns="http://www.w3.org/2000/svg">
<circle cx="40" cy="40" r="40" fill="#FADB78"/>
<path d="M58.0004 23.7999H54.4004V21.9999C54.3994 21.0454 54.0198 20.1303 53.3449 19.4554C52.67 18.7804 51.7549 18.4009 50.8004 18.3999H29.2004C28.2459 18.4009 27.3308 18.7804 26.6559 19.4554C25.9809 20.1303 25.6013 21.0454 25.6004 21.9999V23.7999H22.0004C21.0459 23.8009 20.1308 24.1804 19.4559 24.8554C18.7809 25.5303 18.4013 26.4454 18.4004 27.3999V32.7999C18.4028 34.7087 19.1621 36.5387 20.5119 37.8884C21.8616 39.2382 23.6916 39.9975 25.6004 39.9999H26.18C26.9301 42.7552 28.4662 45.2324 30.6008 47.1292C32.7353 49.026 35.376 50.2602 38.2004 50.6811V57.9999H29.2004V61.5999H50.8004V57.9999H41.8004V50.6757C44.6614 50.322 47.3494 49.1141 49.5136 47.2097C51.6778 45.3053 53.2177 42.7927 53.9324 39.9999H54.4004C56.3092 39.9975 58.1392 39.2382 59.4889 37.8884C60.8387 36.5387 61.598 34.7087 61.6004 32.7999V27.3999C61.5994 26.4454 61.2198 25.5303 60.5449 24.8554C59.87 24.1804 58.9549 23.8009 58.0004 23.7999V23.7999ZM25.6004 36.3999C24.6459 36.3989 23.7308 36.0194 23.0559 35.3444C22.3809 34.6695 22.0013 33.7544 22.0004 32.7999V27.3999H25.6004V36.3999ZM50.8004 36.3999C50.8004 37.8463 50.5098 39.278 49.9459 40.61C49.382 41.942 48.5563 43.1472 47.5178 44.154C46.4792 45.1608 45.249 45.9487 43.9002 46.471C42.5514 46.9933 41.1113 47.2393 39.6656 47.1945C36.7996 47.0161 34.1127 45.7399 32.1636 43.6312C30.2145 41.5225 29.1532 38.7436 29.2004 35.8725V21.9999H50.8004V36.3999ZM58.0004 32.7999C57.9994 33.7544 57.6198 34.6695 56.9449 35.3444C56.27 36.0194 55.3549 36.3989 54.4004 36.3999V27.3999H58.0004V32.7999Z" fill="#25092D"/>
</svg>
