<svg width="518" height="453" viewBox="0 0 518 453" fill="none" xmlns="http://www.w3.org/2000/svg">
<path fill-rule="evenodd" clip-rule="evenodd" d="M431.235 145.659C518.347 125.752 518.5 137 518.5 137V423V452.199H431.235H215.5H111.681C119.966 374.335 216.449 348.126 272.957 293.92C327.189 241.897 357.973 162.401 431.235 145.659Z" fill="#E89BFF"/>
<mask id="mask0_275_1024" style="mask-type:alpha" maskUnits="userSpaceOnUse" x="0" y="0" width="518" height="452">
<rect width="518" height="452" fill="#C4C4C4"/>
</mask>
<g mask="url(#mask0_275_1024)">
<g filter="url(#filter0_f_275_1024)">
<ellipse cx="352.5" cy="325.661" rx="132.5" ry="122.575" fill="#DA4EFF"/>
</g>
</g>
<g clip-path="url(#clip0_275_1024)">
<circle cx="347" cy="345" r="3" fill="#A855BE"/>
<circle cx="358" cy="345" r="3" fill="#A855BE"/>
<circle cx="369" cy="345" r="3" fill="#A855BE"/>
<circle cx="380" cy="345" r="3" fill="#A855BE"/>
<circle cx="391" cy="345" r="3" fill="#A855BE"/>
<circle cx="402" cy="345" r="3" fill="#A855BE"/>
<circle cx="413" cy="345" r="3" fill="#A855BE"/>
<circle cx="424" cy="345" r="3" fill="#A855BE"/>
<circle cx="435" cy="345" r="3" fill="#A855BE"/>
<circle cx="446" cy="345" r="3" fill="#A855BE"/>
<circle cx="457" cy="345" r="3" fill="#A855BE"/>
<circle cx="468" cy="345" r="3" fill="#A855BE"/>
<circle cx="479" cy="345" r="3" fill="#A855BE"/>
<circle cx="490" cy="345" r="3" fill="#A855BE"/>
<circle cx="501" cy="345" r="3" fill="#A855BE"/>
<circle cx="512" cy="345" r="3" fill="#A855BE"/>
<circle cx="347" cy="356" r="3" fill="#A855BE"/>
<circle cx="358" cy="356" r="3" fill="#A855BE"/>
<circle cx="369" cy="356" r="3" fill="#A855BE"/>
<circle cx="380" cy="356" r="3" fill="#A855BE"/>
<circle cx="391" cy="356" r="3" fill="#A855BE"/>
<circle cx="402" cy="356" r="3" fill="#A855BE"/>
<circle cx="413" cy="356" r="3" fill="#A855BE"/>
<circle cx="424" cy="356" r="3" fill="#A855BE"/>
<circle cx="435" cy="356" r="3" fill="#A855BE"/>
<circle cx="446" cy="356" r="3" fill="#A855BE"/>
<circle cx="457" cy="356" r="3" fill="#A855BE"/>
<circle cx="468" cy="356" r="3" fill="#A855BE"/>
<circle cx="479" cy="356" r="3" fill="#A855BE"/>
<circle cx="490" cy="356" r="3" fill="#A855BE"/>
<circle cx="501" cy="356" r="3" fill="#A855BE"/>
<circle cx="512" cy="356" r="3" fill="#A855BE"/>
<circle cx="347" cy="367" r="3" fill="#A855BE"/>
<circle cx="358" cy="367" r="3" fill="#A855BE"/>
<circle cx="369" cy="367" r="3" fill="#A855BE"/>
<circle cx="380" cy="367" r="3" fill="#A855BE"/>
<circle cx="391" cy="367" r="3" fill="#A855BE"/>
<circle cx="402" cy="367" r="3" fill="#A855BE"/>
<circle cx="413" cy="367" r="3" fill="#A855BE"/>
<circle cx="424" cy="367" r="3" fill="#A855BE"/>
<circle cx="435" cy="367" r="3" fill="#A855BE"/>
<circle cx="446" cy="367" r="3" fill="#A855BE"/>
<circle cx="457" cy="367" r="3" fill="#A855BE"/>
<circle cx="468" cy="367" r="3" fill="#A855BE"/>
<circle cx="479" cy="367" r="3" fill="#A855BE"/>
<circle cx="490" cy="367" r="3" fill="#A855BE"/>
<circle cx="501" cy="367" r="3" fill="#A855BE"/>
<circle cx="512" cy="367" r="3" fill="#A855BE"/>
<circle cx="347" cy="378" r="3" fill="#A855BE"/>
<circle cx="358" cy="378" r="3" fill="#A855BE"/>
<circle cx="369" cy="378" r="3" fill="#A855BE"/>
<circle cx="380" cy="378" r="3" fill="#A855BE"/>
<circle cx="391" cy="378" r="3" fill="#A855BE"/>
<circle cx="402" cy="378" r="3" fill="#A855BE"/>
<circle cx="413" cy="378" r="3" fill="#A855BE"/>
<circle cx="424" cy="378" r="3" fill="#A855BE"/>
<circle cx="435" cy="378" r="3" fill="#A855BE"/>
<circle cx="446" cy="378" r="3" fill="#A855BE"/>
<circle cx="457" cy="378" r="3" fill="#A855BE"/>
<circle cx="468" cy="378" r="3" fill="#A855BE"/>
<circle cx="479" cy="378" r="3" fill="#A855BE"/>
<circle cx="490" cy="378" r="3" fill="#A855BE"/>
<circle cx="501" cy="378" r="3" fill="#A855BE"/>
<circle cx="512" cy="378" r="3" fill="#A855BE"/>
<circle cx="347" cy="389" r="3" fill="#A855BE"/>
<circle cx="358" cy="389" r="3" fill="#A855BE"/>
<circle cx="369" cy="389" r="3" fill="#A855BE"/>
<circle cx="380" cy="389" r="3" fill="#A855BE"/>
<circle cx="391" cy="389" r="3" fill="#A855BE"/>
<circle cx="402" cy="389" r="3" fill="#A855BE"/>
<circle cx="413" cy="389" r="3" fill="#A855BE"/>
<circle cx="424" cy="389" r="3" fill="#A855BE"/>
<circle cx="435" cy="389" r="3" fill="#A855BE"/>
<circle cx="446" cy="389" r="3" fill="#A855BE"/>
<circle cx="457" cy="389" r="3" fill="#A855BE"/>
<circle cx="468" cy="389" r="3" fill="#A855BE"/>
<circle cx="479" cy="389" r="3" fill="#A855BE"/>
<circle cx="490" cy="389" r="3" fill="#A855BE"/>
<circle cx="501" cy="389" r="3" fill="#A855BE"/>
<circle cx="512" cy="389" r="3" fill="#A855BE"/>
<circle cx="347" cy="400" r="3" fill="#A855BE"/>
<circle cx="358" cy="400" r="3" fill="#A855BE"/>
<circle cx="369" cy="400" r="3" fill="#A855BE"/>
<circle cx="380" cy="400" r="3" fill="#A855BE"/>
<circle cx="391" cy="400" r="3" fill="#A855BE"/>
<circle cx="402" cy="400" r="3" fill="#A855BE"/>
<circle cx="413" cy="400" r="3" fill="#A855BE"/>
<circle cx="424" cy="400" r="3" fill="#A855BE"/>
<circle cx="435" cy="400" r="3" fill="#A855BE"/>
<circle cx="446" cy="400" r="3" fill="#A855BE"/>
<circle cx="457" cy="400" r="3" fill="#A855BE"/>
<circle cx="468" cy="400" r="3" fill="#A855BE"/>
<circle cx="479" cy="400" r="3" fill="#A855BE"/>
<circle cx="490" cy="400" r="3" fill="#A855BE"/>
<circle cx="501" cy="400" r="3" fill="#A855BE"/>
<circle cx="512" cy="400" r="3" fill="#A855BE"/>
<circle cx="347" cy="411" r="3" fill="#A855BE"/>
<circle cx="358" cy="411" r="3" fill="#A855BE"/>
<circle cx="369" cy="411" r="3" fill="#A855BE"/>
<circle cx="380" cy="411" r="3" fill="#A855BE"/>
<circle cx="391" cy="411" r="3" fill="#A855BE"/>
<circle cx="402" cy="411" r="3" fill="#A855BE"/>
<circle cx="413" cy="411" r="3" fill="#A855BE"/>
<circle cx="424" cy="411" r="3" fill="#A855BE"/>
<circle cx="435" cy="411" r="3" fill="#A855BE"/>
<circle cx="446" cy="411" r="3" fill="#A855BE"/>
<circle cx="457" cy="411" r="3" fill="#A855BE"/>
<circle cx="468" cy="411" r="3" fill="#A855BE"/>
<circle cx="479" cy="411" r="3" fill="#A855BE"/>
<circle cx="490" cy="411" r="3" fill="#A855BE"/>
<circle cx="501" cy="411" r="3" fill="#A855BE"/>
<circle cx="512" cy="411" r="3" fill="#A855BE"/>
<circle cx="347" cy="422" r="3" fill="#A855BE"/>
<circle cx="358" cy="422" r="3" fill="#A855BE"/>
<circle cx="369" cy="422" r="3" fill="#A855BE"/>
<circle cx="380" cy="422" r="3" fill="#A855BE"/>
<circle cx="391" cy="422" r="3" fill="#A855BE"/>
<circle cx="402" cy="422" r="3" fill="#A855BE"/>
<circle cx="413" cy="422" r="3" fill="#A855BE"/>
<circle cx="424" cy="422" r="3" fill="#A855BE"/>
<circle cx="435" cy="422" r="3" fill="#A855BE"/>
<circle cx="446" cy="422" r="3" fill="#A855BE"/>
<circle cx="457" cy="422" r="3" fill="#A855BE"/>
<circle cx="468" cy="422" r="3" fill="#A855BE"/>
<circle cx="479" cy="422" r="3" fill="#A855BE"/>
<circle cx="490" cy="422" r="3" fill="#A855BE"/>
<circle cx="501" cy="422" r="3" fill="#A855BE"/>
<circle cx="512" cy="422" r="3" fill="#A855BE"/>
<circle cx="347" cy="433" r="3" fill="#A855BE"/>
<circle cx="358" cy="433" r="3" fill="#A855BE"/>
<circle cx="369" cy="433" r="3" fill="#A855BE"/>
<circle cx="380" cy="433" r="3" fill="#A855BE"/>
<circle cx="391" cy="433" r="3" fill="#A855BE"/>
<circle cx="402" cy="433" r="3" fill="#A855BE"/>
<circle cx="413" cy="433" r="3" fill="#A855BE"/>
<circle cx="424" cy="433" r="3" fill="#A855BE"/>
<circle cx="435" cy="433" r="3" fill="#A855BE"/>
<circle cx="446" cy="433" r="3" fill="#A855BE"/>
<circle cx="457" cy="433" r="3" fill="#A855BE"/>
<circle cx="468" cy="433" r="3" fill="#A855BE"/>
<circle cx="479" cy="433" r="3" fill="#A855BE"/>
<circle cx="490" cy="433" r="3" fill="#A855BE"/>
<circle cx="501" cy="433" r="3" fill="#A855BE"/>
<circle cx="512" cy="433" r="3" fill="#A855BE"/>
<circle cx="347" cy="444" r="3" fill="#A855BE"/>
<circle cx="358" cy="444" r="3" fill="#A855BE"/>
<circle cx="369" cy="444" r="3" fill="#A855BE"/>
<circle cx="380" cy="444" r="3" fill="#A855BE"/>
<circle cx="391" cy="444" r="3" fill="#A855BE"/>
<circle cx="402" cy="444" r="3" fill="#A855BE"/>
<circle cx="413" cy="444" r="3" fill="#A855BE"/>
<circle cx="424" cy="444" r="3" fill="#A855BE"/>
<circle cx="435" cy="444" r="3" fill="#A855BE"/>
<circle cx="446" cy="444" r="3" fill="#A855BE"/>
<circle cx="457" cy="444" r="3" fill="#A855BE"/>
<circle cx="468" cy="444" r="3" fill="#A855BE"/>
<circle cx="479" cy="444" r="3" fill="#A855BE"/>
<circle cx="490" cy="444" r="3" fill="#A855BE"/>
<circle cx="501" cy="444" r="3" fill="#A855BE"/>
<circle cx="512" cy="444" r="3" fill="#A855BE"/>
</g>
<defs>
<filter id="filter0_f_275_1024" x="20.0005" y="3.08594" width="665" height="645.149" filterUnits="userSpaceOnUse" color-interpolation-filters="sRGB">
<feFlood flood-opacity="0" result="BackgroundImageFix"/>
<feBlend mode="normal" in="SourceGraphic" in2="BackgroundImageFix" result="shape"/>
<feGaussianBlur stdDeviation="100" result="effect1_foregroundBlur_275_1024"/>
</filter>
<clipPath id="clip0_275_1024">
<rect x="344" y="342" width="174" height="110" rx="25" fill="white"/>
</clipPath>
</defs>
</svg>
