<svg width="589" height="460" viewBox="0 0 589 460" fill="none" xmlns="http://www.w3.org/2000/svg">
<g clip-path="url(#clip0_98_13783)">
<path d="M49.9795 219.972L33.5761 256.869L37.5234 302.5C38.7627 303.549 39.64 304.961 40.0308 306.535C40.4216 308.11 40.3061 309.767 39.7007 311.273C39.0952 312.778 38.0306 314.055 36.6577 314.922C35.2849 315.789 33.6735 316.203 32.052 316.104C30.4305 316.006 28.8813 315.4 27.624 314.373C26.3667 313.345 25.4651 311.949 25.0472 310.381C24.6292 308.814 24.7161 307.154 25.2954 305.639C25.8747 304.123 26.9171 302.828 28.2747 301.937L27.632 301.824L21.2051 256.225L31.805 210.229L49.9795 219.972Z" fill="#FFB8B8"/>
<path d="M96.8216 460C80.6532 460 67.5461 458.637 67.5461 456.955C67.5461 455.273 80.6532 453.91 96.8216 453.91C112.99 453.91 126.097 455.273 126.097 456.955C126.097 458.637 112.99 460 96.8216 460Z" fill="#F3EFE4"/>
<path d="M10.2157 460C-5.95274 460 -19.0599 458.637 -19.0599 456.955C-19.0599 455.273 -5.95274 453.91 10.2157 453.91C26.3841 453.91 39.4912 455.273 39.4912 456.955C39.4912 458.637 26.3841 460 10.2157 460Z" fill="#F3EFE4"/>
<path d="M141.498 291.561H583.678C585.089 291.559 586.441 290.998 587.439 290.002C588.437 289.006 588.998 287.655 589 286.246V5.31513C588.999 3.90593 588.437 2.55486 587.439 1.55841C586.442 0.56195 585.089 0.00148454 583.678 0H141.498C140.087 0.00148454 138.734 0.56195 137.736 1.55841C136.738 2.55486 136.177 3.90593 136.176 5.31513V286.246C136.177 287.655 136.739 289.006 137.736 290.002C138.734 290.998 140.087 291.559 141.498 291.561ZM583.678 2.10306C584.53 2.10398 585.348 2.44269 585.951 3.04487C586.554 3.64705 586.893 4.46352 586.894 5.31513V286.246C586.893 287.097 586.554 287.914 585.951 288.516C585.348 289.118 584.53 289.457 583.678 289.458H141.498C140.645 289.457 139.828 289.118 139.225 288.516C138.622 287.914 138.282 287.097 138.282 286.246V5.31513C138.282 4.46352 138.622 3.64705 139.225 3.04487C139.828 2.44269 140.645 2.10398 141.498 2.10306H583.678Z" fill="#F4DC9B"/>
<path d="M256.032 41.417H490.313C491.464 41.4183 492.567 41.8753 493.38 42.6877C494.194 43.5002 494.652 44.6017 494.653 45.7507V245.809C494.652 246.958 494.194 248.06 493.38 248.872C492.567 249.685 491.464 250.142 490.313 250.143H256.032C254.881 250.142 253.778 249.685 252.965 248.872C252.151 248.06 251.693 246.958 251.692 245.809V45.7507C251.693 44.6017 252.151 43.5002 252.965 42.6877C253.778 41.8753 254.881 41.4183 256.032 41.417ZM253.434 245.81C253.435 246.499 253.708 247.16 254.195 247.648C254.682 248.136 255.342 248.412 256.032 248.415H490.313C491.003 248.413 491.665 248.138 492.151 247.649C492.638 247.161 492.911 246.499 492.911 245.81V45.7507C492.911 45.0615 492.638 44.4 492.151 43.9116C491.665 43.4232 491.003 43.1477 490.313 43.1457H256.032C255.342 43.149 254.682 43.4249 254.195 43.913C253.708 44.4012 253.435 45.0619 253.434 45.7507V245.81Z" fill="#3F3D56"/>
<path d="M436.235 214.571C436.235 214.88 436.243 215.188 436.26 215.488C436.496 220.003 438.459 224.254 441.743 227.366C445.027 230.478 449.381 232.213 453.908 232.213C458.435 232.213 462.789 230.478 466.073 227.366C469.356 224.254 471.319 220.003 471.556 215.488C471.572 215.188 471.581 214.88 471.581 214.571C471.581 209.891 469.719 205.402 466.404 202.092C463.09 198.783 458.595 196.923 453.908 196.923C449.221 196.923 444.726 198.783 441.412 202.092C438.098 205.402 436.236 209.891 436.236 214.571H436.235Z" fill="#FECE31"/>
<path d="M274.237 202.803H413.097C413.859 202.832 414.58 203.155 415.109 203.703C415.638 204.252 415.934 204.984 415.934 205.746C415.934 206.507 415.638 207.239 415.109 207.788C414.58 208.336 413.859 208.659 413.097 208.688H274.237C273.456 208.716 272.696 208.433 272.124 207.903C271.552 207.372 271.214 206.636 271.184 205.856C271.155 205.077 271.436 204.318 271.967 203.745C272.497 203.173 273.234 202.834 274.014 202.803C274.088 202.801 274.162 202.801 274.237 202.803Z" fill="#FECE31"/>
<path d="M353.346 220.455H413.097C413.877 220.455 414.626 220.765 415.177 221.316C415.729 221.867 416.039 222.614 416.039 223.393C416.039 224.172 415.729 224.92 415.177 225.47C414.626 226.021 413.877 226.331 413.097 226.331H353.346C352.566 226.332 351.817 226.024 351.265 225.474C350.712 224.924 350.401 224.177 350.399 223.398C350.398 222.619 350.707 221.871 351.258 221.319C351.808 220.767 352.556 220.456 353.336 220.455H353.346Z" fill="#F3EFE4"/>
<path d="M200.372 180.977H434.655C435.967 180.976 437.224 180.455 438.152 179.528C439.08 178.602 439.602 177.346 439.603 176.036V73.3604C439.602 72.0503 439.08 70.7943 438.152 69.8679C437.224 68.9415 435.967 68.4204 434.655 68.4189H200.375C199.063 68.4204 197.805 68.9415 196.877 69.8679C195.95 70.7943 195.428 72.0503 195.426 73.3604V176.033C195.427 177.343 195.948 178.599 196.875 179.526C197.803 180.453 199.06 180.975 200.372 180.977Z" fill="#FECE31"/>
<path d="M386.94 104.815C387.721 104.781 388.484 105.058 389.061 105.585C389.637 106.113 389.98 106.848 390.014 107.628C390.048 108.408 389.771 109.17 389.243 109.745C388.714 110.321 387.979 110.664 387.197 110.698C387.112 110.702 387.026 110.702 386.94 110.698H248.083C247.324 110.665 246.607 110.34 246.082 109.792C245.556 109.244 245.263 108.515 245.263 107.756C245.263 106.998 245.556 106.268 246.082 105.72C246.607 105.172 247.324 104.848 248.083 104.815H386.94Z" fill="white"/>
<path d="M386.94 121.859C387.721 121.825 388.484 122.102 389.061 122.629C389.637 123.157 389.98 123.892 390.014 124.672C390.048 125.452 389.771 126.214 389.243 126.789C388.714 127.365 387.979 127.708 387.197 127.742C387.112 127.745 387.026 127.745 386.94 127.742H248.083C247.324 127.709 246.607 127.384 246.082 126.836C245.556 126.288 245.263 125.559 245.263 124.8C245.263 124.042 245.556 123.312 246.082 122.764C246.607 122.216 247.324 121.892 248.083 121.859H386.94Z" fill="white"/>
<path d="M386.94 138.695C387.699 138.728 388.416 139.053 388.941 139.601C389.467 140.149 389.76 140.878 389.76 141.637C389.76 142.395 389.467 143.125 388.941 143.673C388.416 144.221 387.699 144.545 386.94 144.578H327.189C326.803 144.595 326.416 144.536 326.052 144.403C325.689 144.271 325.354 144.069 325.069 143.807C324.783 143.546 324.552 143.231 324.389 142.881C324.225 142.531 324.132 142.151 324.115 141.765C324.098 141.379 324.158 140.993 324.29 140.63C324.423 140.266 324.625 139.933 324.887 139.648C325.148 139.363 325.464 139.132 325.815 138.968C326.166 138.805 326.545 138.712 326.932 138.695C327.018 138.691 327.104 138.691 327.189 138.695H386.94Z" fill="white"/>
<path d="M570.108 18.612C568.087 18.612 566.448 16.9759 566.448 14.9576C566.448 12.9394 568.087 11.3032 570.108 11.3032C572.129 11.3032 573.767 12.9394 573.767 14.9576C573.767 16.9759 572.129 18.612 570.108 18.612Z" fill="#FECE31"/>
<path d="M557.3 18.612C555.279 18.612 553.641 16.9759 553.641 14.9576C553.641 12.9394 555.279 11.3032 557.3 11.3032C559.321 11.3032 560.959 12.9394 560.959 14.9576C560.959 16.9759 559.321 18.612 557.3 18.612Z" fill="#FECE31"/>
<path d="M544.492 18.612C542.471 18.612 540.832 16.9759 540.832 14.9576C540.832 12.9394 542.471 11.3032 544.492 11.3032C546.513 11.3032 548.151 12.9394 548.151 14.9576C548.151 16.9759 546.513 18.612 544.492 18.612Z" fill="#FECE31"/>
<path d="M55.5796 174.12C46.5769 174.12 39.2788 166.832 39.2788 157.841C39.2788 148.851 46.5769 141.563 55.5796 141.563C64.5823 141.563 71.8804 148.851 71.8804 157.841C71.8804 166.832 64.5823 174.12 55.5796 174.12Z" fill="#FFB8B8"/>
<path d="M87.8208 244.654L45.0089 252.607C30.5754 226.201 22.6156 202.358 36.0481 186.986L61.4367 185.495C77.6589 202.818 91.3792 219.63 82.0568 231.73L87.8208 244.654Z" fill="#FFEEB4"/>
<path d="M49.6968 223.919C39.8993 227.663 30.8058 224.41 22.4599 213.74L34.8302 189.905L50.5933 193.025L49.6968 223.919Z" fill="#FECE31"/>
<path d="M91.806 442.511L74.8805 441.642L63.9295 327.177L8.17439 441.023L-9.24887 440.526L24.101 340.599C25.4172 307.261 26.7931 274.011 41.0266 259.567L46.0043 249.127L85.8293 240.676L91.3048 251.115C104.002 280.721 96.5472 365.313 91.806 442.511Z" fill="#252229"/>
<path d="M71.3953 213.335L85.3338 251.12L110.609 287.039C112.23 287.144 113.776 287.756 115.029 288.789C116.282 289.821 117.178 291.221 117.59 292.791C118.001 294.36 117.907 296.019 117.322 297.532C116.736 299.045 115.688 300.336 114.327 301.221C112.966 302.106 111.36 302.541 109.737 302.463C108.115 302.386 106.557 301.8 105.287 300.79C104.016 299.779 103.096 298.395 102.658 296.833C102.219 295.271 102.284 293.61 102.844 292.087L102.26 292.379L69.9019 259.571L50.985 216.318L71.3953 213.335Z" fill="#FFB8B8"/>
<path d="M74.8779 213.334C67.9044 221.161 58.3321 222.448 46.0046 216.814V189.969L61.437 185.496L74.8779 213.334Z" fill="#FFEEB4"/>
<path d="M4.45628 203.171C6.93483 200.074 10.3944 197.946 13.7483 195.828C17.1023 193.709 20.509 191.458 22.7884 188.212C26.4255 183.033 26.5989 176.221 26.0563 169.919C25.5137 163.617 24.4032 157.18 25.9412 151.043C27.9755 142.925 34.7108 136.352 42.6684 133.731C50.6264 131.11 59.5767 132.229 67.0624 135.989L65.0051 134.05C66.6445 134.387 68.141 135.218 69.2929 136.431C70.4448 137.644 71.1968 139.18 71.4476 140.833C71.6984 142.485 71.4359 144.175 70.6955 145.674C69.9552 147.174 68.7725 148.41 67.3068 149.218C63.9295 151.077 59.3289 150.545 56.6156 153.279C53.9444 155.974 54.5041 160.398 55.4687 164.066C57.964 173.56 61.9219 182.7 63.293 192.418C64.6637 202.135 62.9307 213.024 55.7113 219.683C50.4037 224.578 42.8631 226.467 35.6404 226.323C28.4176 226.178 21.3697 224.205 14.4201 222.242C9.54498 220.867 4.04462 218.958 2.13542 214.27C0.640289 210.602 1.97741 206.267 4.45628 203.171Z" fill="#252229"/>
<path d="M74.4534 455.612L110.794 455.611V455.152C110.794 451.406 109.304 447.813 106.651 445.164C103.999 442.515 100.401 441.027 96.6495 441.027H96.6486L74.4527 441.028L74.4534 455.612Z" fill="#252229"/>
<path d="M-9.78447 454.211L26.5566 454.209V453.75C26.5564 450.004 25.066 446.411 22.4134 443.762C19.7607 441.113 16.1631 439.625 12.4117 439.625H12.4108L-9.78516 439.626L-9.78447 454.211Z" fill="#252229"/>
</g>
<defs>
<clipPath id="clip0_98_13783">
<rect width="666" height="460" fill="white" transform="matrix(-1 0 0 1 589 0)"/>
</clipPath>
</defs>
</svg>
