<svg width="314" height="236" viewBox="0 0 314 236" fill="none" xmlns="http://www.w3.org/2000/svg">
<path fill-rule="evenodd" clip-rule="evenodd" d="M222.343 -151.613C182.683 -141.954 156.505 -108.584 122.349 -86.223C85.6779 -62.2151 35.0397 -54.9349 15.0606 -15.9106C-5.78689 24.8101 -5.10472 78.3673 17.8168 117.957C39.6118 155.6 90.5161 159.616 128.718 180.395C160.411 197.633 186.754 223.307 222.343 229.201C262.793 235.9 312.942 245.012 341.566 215.643C370.664 185.788 339.299 133.293 353.889 94.2327C369.695 51.9172 425.691 29.792 427.841 -15.3304C430.188 -64.5907 406.394 -118.146 365.307 -145.394C324.552 -172.422 269.852 -163.184 222.343 -151.613Z" fill="#FFE795"/>
<g clip-path="url(#clip0_391_1337)">
<circle cx="200.5" cy="1.5" r="2.5" fill="#FFDA7C" fill-opacity="0.7"/>
<circle cx="209.5" cy="1.5" r="2.5" fill="#FFDA7C" fill-opacity="0.7"/>
<circle cx="218.5" cy="1.5" r="2.5" fill="#FFDA7C" fill-opacity="0.7"/>
<circle cx="227.5" cy="1.5" r="2.5" fill="#FFDA7C" fill-opacity="0.7"/>
<circle cx="236.5" cy="1.5" r="2.5" fill="#FFDA7C" fill-opacity="0.7"/>
<circle cx="245.5" cy="1.5" r="2.5" fill="#FFDA7C" fill-opacity="0.7"/>
<circle cx="254.5" cy="1.5" r="2.5" fill="#FFDA7C" fill-opacity="0.7"/>
<circle cx="263.5" cy="1.5" r="2.5" fill="#FFDA7C" fill-opacity="0.7"/>
<circle cx="272.5" cy="1.5" r="2.5" fill="#FFDA7C" fill-opacity="0.7"/>
<circle cx="281.5" cy="1.5" r="2.5" fill="#FFDA7C" fill-opacity="0.7"/>
<circle cx="290.5" cy="1.5" r="2.5" fill="#FFDA7C" fill-opacity="0.7"/>
<circle cx="299.5" cy="1.5" r="2.5" fill="#FFDA7C" fill-opacity="0.7"/>
<circle cx="308.5" cy="1.5" r="2.5" fill="#FFDA7C" fill-opacity="0.7"/>
<circle cx="200.5" cy="10.5" r="2.5" fill="#FFDA7C" fill-opacity="0.7"/>
<circle cx="209.5" cy="10.5" r="2.5" fill="#FFDA7C" fill-opacity="0.7"/>
<circle cx="218.5" cy="10.5" r="2.5" fill="#FFDA7C" fill-opacity="0.7"/>
<circle cx="227.5" cy="10.5" r="2.5" fill="#FFDA7C" fill-opacity="0.7"/>
<circle cx="236.5" cy="10.5" r="2.5" fill="#FFDA7C" fill-opacity="0.7"/>
<circle cx="245.5" cy="10.5" r="2.5" fill="#FFDA7C" fill-opacity="0.7"/>
<circle cx="254.5" cy="10.5" r="2.5" fill="#FFDA7C" fill-opacity="0.7"/>
<circle cx="263.5" cy="10.5" r="2.5" fill="#FFDA7C" fill-opacity="0.7"/>
<circle cx="272.5" cy="10.5" r="2.5" fill="#FFDA7C" fill-opacity="0.7"/>
<circle cx="281.5" cy="10.5" r="2.5" fill="#FFDA7C" fill-opacity="0.7"/>
<circle cx="290.5" cy="10.5" r="2.5" fill="#FFDA7C" fill-opacity="0.7"/>
<circle cx="299.5" cy="10.5" r="2.5" fill="#FFDA7C" fill-opacity="0.7"/>
<circle cx="308.5" cy="10.5" r="2.5" fill="#FFDA7C" fill-opacity="0.7"/>
<circle cx="200.5" cy="19.5" r="2.5" fill="#FFDA7C" fill-opacity="0.7"/>
<circle cx="209.5" cy="19.5" r="2.5" fill="#FFDA7C" fill-opacity="0.7"/>
<circle cx="218.5" cy="19.5" r="2.5" fill="#FFDA7C" fill-opacity="0.7"/>
<circle cx="227.5" cy="19.5" r="2.5" fill="#FFDA7C" fill-opacity="0.7"/>
<circle cx="236.5" cy="19.5" r="2.5" fill="#FFDA7C" fill-opacity="0.7"/>
<circle cx="245.5" cy="19.5" r="2.5" fill="#FFDA7C" fill-opacity="0.7"/>
<circle cx="254.5" cy="19.5" r="2.5" fill="#FFDA7C" fill-opacity="0.7"/>
<circle cx="263.5" cy="19.5" r="2.5" fill="#FFDA7C" fill-opacity="0.7"/>
<circle cx="272.5" cy="19.5" r="2.5" fill="#FFDA7C" fill-opacity="0.7"/>
<circle cx="281.5" cy="19.5" r="2.5" fill="#FFDA7C" fill-opacity="0.7"/>
<circle cx="290.5" cy="19.5" r="2.5" fill="#FFDA7C" fill-opacity="0.7"/>
<circle cx="299.5" cy="19.5" r="2.5" fill="#FFDA7C" fill-opacity="0.7"/>
<circle cx="308.5" cy="19.5" r="2.5" fill="#FFDA7C" fill-opacity="0.7"/>
<circle cx="200.5" cy="28.5" r="2.5" fill="#FFDA7C" fill-opacity="0.7"/>
<circle cx="209.5" cy="28.5" r="2.5" fill="#FFDA7C" fill-opacity="0.7"/>
<circle cx="218.5" cy="28.5" r="2.5" fill="#FFDA7C" fill-opacity="0.7"/>
<circle cx="227.5" cy="28.5" r="2.5" fill="#FFDA7C" fill-opacity="0.7"/>
<circle cx="236.5" cy="28.5" r="2.5" fill="#FFDA7C" fill-opacity="0.7"/>
<circle cx="245.5" cy="28.5" r="2.5" fill="#FFDA7C" fill-opacity="0.7"/>
<circle cx="254.5" cy="28.5" r="2.5" fill="#FFDA7C" fill-opacity="0.7"/>
<circle cx="263.5" cy="28.5" r="2.5" fill="#FFDA7C" fill-opacity="0.7"/>
<circle cx="272.5" cy="28.5" r="2.5" fill="#FFDA7C" fill-opacity="0.7"/>
<circle cx="281.5" cy="28.5" r="2.5" fill="#FFDA7C" fill-opacity="0.7"/>
<circle cx="290.5" cy="28.5" r="2.5" fill="#FFDA7C" fill-opacity="0.7"/>
<circle cx="299.5" cy="28.5" r="2.5" fill="#FFDA7C" fill-opacity="0.7"/>
<circle cx="308.5" cy="28.5" r="2.5" fill="#FFDA7C" fill-opacity="0.7"/>
<circle cx="200.5" cy="37.5" r="2.5" fill="#FFDA7C" fill-opacity="0.7"/>
<circle cx="209.5" cy="37.5" r="2.5" fill="#FFDA7C" fill-opacity="0.7"/>
<circle cx="218.5" cy="37.5" r="2.5" fill="#FFDA7C" fill-opacity="0.7"/>
<circle cx="227.5" cy="37.5" r="2.5" fill="#FFDA7C" fill-opacity="0.7"/>
<circle cx="236.5" cy="37.5" r="2.5" fill="#FFDA7C" fill-opacity="0.7"/>
<circle cx="245.5" cy="37.5" r="2.5" fill="#FFDA7C" fill-opacity="0.7"/>
<circle cx="254.5" cy="37.5" r="2.5" fill="#FFDA7C" fill-opacity="0.7"/>
<circle cx="263.5" cy="37.5" r="2.5" fill="#FFDA7C" fill-opacity="0.7"/>
<circle cx="272.5" cy="37.5" r="2.5" fill="#FFDA7C" fill-opacity="0.7"/>
<circle cx="281.5" cy="37.5" r="2.5" fill="#FFDA7C" fill-opacity="0.7"/>
<circle cx="290.5" cy="37.5" r="2.5" fill="#FFDA7C" fill-opacity="0.7"/>
<circle cx="299.5" cy="37.5" r="2.5" fill="#FFDA7C" fill-opacity="0.7"/>
<circle cx="308.5" cy="37.5" r="2.5" fill="#FFDA7C" fill-opacity="0.7"/>
<circle cx="200.5" cy="46.5" r="2.5" fill="#FFDA7C" fill-opacity="0.7"/>
<circle cx="209.5" cy="46.5" r="2.5" fill="#FFDA7C" fill-opacity="0.7"/>
<circle cx="218.5" cy="46.5" r="2.5" fill="#FFDA7C" fill-opacity="0.7"/>
<circle cx="227.5" cy="46.5" r="2.5" fill="#FFDA7C" fill-opacity="0.7"/>
<circle cx="236.5" cy="46.5" r="2.5" fill="#FFDA7C" fill-opacity="0.7"/>
<circle cx="245.5" cy="46.5" r="2.5" fill="#FFDA7C" fill-opacity="0.7"/>
<circle cx="254.5" cy="46.5" r="2.5" fill="#FFDA7C" fill-opacity="0.7"/>
<circle cx="263.5" cy="46.5" r="2.5" fill="#FFDA7C" fill-opacity="0.7"/>
<circle cx="272.5" cy="46.5" r="2.5" fill="#FFDA7C" fill-opacity="0.7"/>
<circle cx="281.5" cy="46.5" r="2.5" fill="#FFDA7C" fill-opacity="0.7"/>
<circle cx="290.5" cy="46.5" r="2.5" fill="#FFDA7C" fill-opacity="0.7"/>
<circle cx="299.5" cy="46.5" r="2.5" fill="#FFDA7C" fill-opacity="0.7"/>
<circle cx="308.5" cy="46.5" r="2.5" fill="#FFDA7C" fill-opacity="0.7"/>
<circle cx="200.5" cy="55.5" r="2.5" fill="#FFDA7C" fill-opacity="0.7"/>
<circle cx="209.5" cy="55.5" r="2.5" fill="#FFDA7C" fill-opacity="0.7"/>
<circle cx="218.5" cy="55.5" r="2.5" fill="#FFDA7C" fill-opacity="0.7"/>
<circle cx="227.5" cy="55.5" r="2.5" fill="#FFDA7C" fill-opacity="0.7"/>
<circle cx="236.5" cy="55.5" r="2.5" fill="#FFDA7C" fill-opacity="0.7"/>
<circle cx="245.5" cy="55.5" r="2.5" fill="#FFDA7C" fill-opacity="0.7"/>
<circle cx="254.5" cy="55.5" r="2.5" fill="#FFDA7C" fill-opacity="0.7"/>
<circle cx="263.5" cy="55.5" r="2.5" fill="#FFDA7C" fill-opacity="0.7"/>
<circle cx="272.5" cy="55.5" r="2.5" fill="#FFDA7C" fill-opacity="0.7"/>
<circle cx="281.5" cy="55.5" r="2.5" fill="#FFDA7C" fill-opacity="0.7"/>
<circle cx="290.5" cy="55.5" r="2.5" fill="#FFDA7C" fill-opacity="0.7"/>
<circle cx="299.5" cy="55.5" r="2.5" fill="#FFDA7C" fill-opacity="0.7"/>
<circle cx="308.5" cy="55.5" r="2.5" fill="#FFDA7C" fill-opacity="0.7"/>
<circle cx="200.5" cy="64.5" r="2.5" fill="#FFDA7C" fill-opacity="0.7"/>
<circle cx="209.5" cy="64.5" r="2.5" fill="#FFDA7C" fill-opacity="0.7"/>
<circle cx="218.5" cy="64.5" r="2.5" fill="#FFDA7C" fill-opacity="0.7"/>
<circle cx="227.5" cy="64.5" r="2.5" fill="#FFDA7C" fill-opacity="0.7"/>
<circle cx="236.5" cy="64.5" r="2.5" fill="#FFDA7C" fill-opacity="0.7"/>
<circle cx="245.5" cy="64.5" r="2.5" fill="#FFDA7C" fill-opacity="0.7"/>
<circle cx="254.5" cy="64.5" r="2.5" fill="#FFDA7C" fill-opacity="0.7"/>
<circle cx="263.5" cy="64.5" r="2.5" fill="#FFDA7C" fill-opacity="0.7"/>
<circle cx="272.5" cy="64.5" r="2.5" fill="#FFDA7C" fill-opacity="0.7"/>
<circle cx="281.5" cy="64.5" r="2.5" fill="#FFDA7C" fill-opacity="0.7"/>
<circle cx="290.5" cy="64.5" r="2.5" fill="#FFDA7C" fill-opacity="0.7"/>
<circle cx="299.5" cy="64.5" r="2.5" fill="#FFDA7C" fill-opacity="0.7"/>
<circle cx="308.5" cy="64.5" r="2.5" fill="#FFDA7C" fill-opacity="0.7"/>
<circle cx="200.5" cy="73.5" r="2.5" fill="#FFDA7C" fill-opacity="0.7"/>
<circle cx="209.5" cy="73.5" r="2.5" fill="#FFDA7C" fill-opacity="0.7"/>
<circle cx="218.5" cy="73.5" r="2.5" fill="#FFDA7C" fill-opacity="0.7"/>
<circle cx="227.5" cy="73.5" r="2.5" fill="#FFDA7C" fill-opacity="0.7"/>
<circle cx="236.5" cy="73.5" r="2.5" fill="#FFDA7C" fill-opacity="0.7"/>
<circle cx="245.5" cy="73.5" r="2.5" fill="#FFDA7C" fill-opacity="0.7"/>
<circle cx="254.5" cy="73.5" r="2.5" fill="#FFDA7C" fill-opacity="0.7"/>
<circle cx="263.5" cy="73.5" r="2.5" fill="#FFDA7C" fill-opacity="0.7"/>
<circle cx="272.5" cy="73.5" r="2.5" fill="#FFDA7C" fill-opacity="0.7"/>
<circle cx="281.5" cy="73.5" r="2.5" fill="#FFDA7C" fill-opacity="0.7"/>
<circle cx="290.5" cy="73.5" r="2.5" fill="#FFDA7C" fill-opacity="0.7"/>
<circle cx="299.5" cy="73.5" r="2.5" fill="#FFDA7C" fill-opacity="0.7"/>
<circle cx="308.5" cy="73.5" r="2.5" fill="#FFDA7C" fill-opacity="0.7"/>
<circle cx="200.5" cy="82.5" r="2.5" fill="#FFDA7C" fill-opacity="0.7"/>
<circle cx="209.5" cy="82.5" r="2.5" fill="#FFDA7C" fill-opacity="0.7"/>
<circle cx="218.5" cy="82.5" r="2.5" fill="#FFDA7C" fill-opacity="0.7"/>
<circle cx="227.5" cy="82.5" r="2.5" fill="#FFDA7C" fill-opacity="0.7"/>
<circle cx="236.5" cy="82.5" r="2.5" fill="#FFDA7C" fill-opacity="0.7"/>
<circle cx="245.5" cy="82.5" r="2.5" fill="#FFDA7C" fill-opacity="0.7"/>
<circle cx="254.5" cy="82.5" r="2.5" fill="#FFDA7C" fill-opacity="0.7"/>
<circle cx="263.5" cy="82.5" r="2.5" fill="#FFDA7C" fill-opacity="0.7"/>
<circle cx="272.5" cy="82.5" r="2.5" fill="#FFDA7C" fill-opacity="0.7"/>
<circle cx="281.5" cy="82.5" r="2.5" fill="#FFDA7C" fill-opacity="0.7"/>
<circle cx="290.5" cy="82.5" r="2.5" fill="#FFDA7C" fill-opacity="0.7"/>
<circle cx="299.5" cy="82.5" r="2.5" fill="#FFDA7C" fill-opacity="0.7"/>
<circle cx="308.5" cy="82.5" r="2.5" fill="#FFDA7C" fill-opacity="0.7"/>
<circle cx="200.5" cy="91.5" r="2.5" fill="#FFDA7C" fill-opacity="0.7"/>
<circle cx="209.5" cy="91.5" r="2.5" fill="#FFDA7C" fill-opacity="0.7"/>
<circle cx="218.5" cy="91.5" r="2.5" fill="#FFDA7C" fill-opacity="0.7"/>
<circle cx="227.5" cy="91.5" r="2.5" fill="#FFDA7C" fill-opacity="0.7"/>
<circle cx="236.5" cy="91.5" r="2.5" fill="#FFDA7C" fill-opacity="0.7"/>
<circle cx="245.5" cy="91.5" r="2.5" fill="#FFDA7C" fill-opacity="0.7"/>
<circle cx="254.5" cy="91.5" r="2.5" fill="#FFDA7C" fill-opacity="0.7"/>
<circle cx="263.5" cy="91.5" r="2.5" fill="#FFDA7C" fill-opacity="0.7"/>
<circle cx="272.5" cy="91.5" r="2.5" fill="#FFDA7C" fill-opacity="0.7"/>
<circle cx="281.5" cy="91.5" r="2.5" fill="#FFDA7C" fill-opacity="0.7"/>
<circle cx="290.5" cy="91.5" r="2.5" fill="#FFDA7C" fill-opacity="0.7"/>
<circle cx="299.5" cy="91.5" r="2.5" fill="#FFDA7C" fill-opacity="0.7"/>
<circle cx="308.5" cy="91.5" r="2.5" fill="#FFDA7C" fill-opacity="0.7"/>
<circle cx="200.5" cy="100.5" r="2.5" fill="#FFDA7C" fill-opacity="0.7"/>
<circle cx="209.5" cy="100.5" r="2.5" fill="#FFDA7C" fill-opacity="0.7"/>
<circle cx="218.5" cy="100.5" r="2.5" fill="#FFDA7C" fill-opacity="0.7"/>
<circle cx="227.5" cy="100.5" r="2.5" fill="#FFDA7C" fill-opacity="0.7"/>
<circle cx="236.5" cy="100.5" r="2.5" fill="#FFDA7C" fill-opacity="0.7"/>
<circle cx="245.5" cy="100.5" r="2.5" fill="#FFDA7C" fill-opacity="0.7"/>
<circle cx="254.5" cy="100.5" r="2.5" fill="#FFDA7C" fill-opacity="0.7"/>
<circle cx="263.5" cy="100.5" r="2.5" fill="#FFDA7C" fill-opacity="0.7"/>
<circle cx="272.5" cy="100.5" r="2.5" fill="#FFDA7C" fill-opacity="0.7"/>
<circle cx="281.5" cy="100.5" r="2.5" fill="#FFDA7C" fill-opacity="0.7"/>
<circle cx="290.5" cy="100.5" r="2.5" fill="#FFDA7C" fill-opacity="0.7"/>
<circle cx="299.5" cy="100.5" r="2.5" fill="#FFDA7C" fill-opacity="0.7"/>
<circle cx="308.5" cy="100.5" r="2.5" fill="#FFDA7C" fill-opacity="0.7"/>
<circle cx="200.5" cy="109.5" r="2.5" fill="#FFDA7C" fill-opacity="0.7"/>
<circle cx="209.5" cy="109.5" r="2.5" fill="#FFDA7C" fill-opacity="0.7"/>
<circle cx="218.5" cy="109.5" r="2.5" fill="#FFDA7C" fill-opacity="0.7"/>
<circle cx="227.5" cy="109.5" r="2.5" fill="#FFDA7C" fill-opacity="0.7"/>
<circle cx="236.5" cy="109.5" r="2.5" fill="#FFDA7C" fill-opacity="0.7"/>
<circle cx="245.5" cy="109.5" r="2.5" fill="#FFDA7C" fill-opacity="0.7"/>
<circle cx="254.5" cy="109.5" r="2.5" fill="#FFDA7C" fill-opacity="0.7"/>
<circle cx="263.5" cy="109.5" r="2.5" fill="#FFDA7C" fill-opacity="0.7"/>
<circle cx="272.5" cy="109.5" r="2.5" fill="#FFDA7C" fill-opacity="0.7"/>
<circle cx="281.5" cy="109.5" r="2.5" fill="#FFDA7C" fill-opacity="0.7"/>
<circle cx="290.5" cy="109.5" r="2.5" fill="#FFDA7C" fill-opacity="0.7"/>
<circle cx="299.5" cy="109.5" r="2.5" fill="#FFDA7C" fill-opacity="0.7"/>
<circle cx="308.5" cy="109.5" r="2.5" fill="#FFDA7C" fill-opacity="0.7"/>
</g>
<defs>
<clipPath id="clip0_391_1337">
<rect x="198" y="-19" width="135" height="135" rx="67.5" fill="white"/>
</clipPath>
</defs>
</svg>
