<svg width="380" height="313" viewBox="0 0 380 313" fill="none" xmlns="http://www.w3.org/2000/svg">
<path fill-rule="evenodd" clip-rule="evenodd" d="M102.108 -2.99977C146.108 -2.99972 187.108 -3.00003 241.608 -2.99972C307.108 -2.99972 363.108 -3 377.608 -2.99972C380.174 -2.99967 380.52 -0.0969357 379.217 4.96518C378.927 6.09289 378.555 7.32777 378.108 8.6616C369.217 35.1696 330.53 100.759 311.791 140.922C293.416 180.304 308.303 235.926 277.057 264.374C245.543 293.067 198.128 274.639 157.368 281.518C105.813 290.218 45.2078 329.85 -0.891972 303.5C-0.891972 252 -40.7373 214.645 -53.8277 160.8C-66.1119 110.271 -58.8923 4.99989 -58.8921 0.999958C-58.8919 -2.99998 -3.39197 -3.00033 40.108 -2.99999C82.608 -2.99966 58.108 -2.99952 102.108 -2.99977Z" fill="#A845C5" fill-opacity="0.6"/>
<g clip-path="url(#clip0_391_1846)">
<g clip-path="url(#clip1_391_1846)">
<circle cx="3.73898" cy="1.29604" r="3" transform="rotate(-2.56132 3.73898 1.29604)" fill="#802799" fill-opacity="0.2"/>
<circle cx="18.7238" cy="0.625632" r="3" transform="rotate(-2.56132 18.7238 0.625632)" fill="#802799" fill-opacity="0.2"/>
<circle cx="33.7092" cy="-0.0447778" r="3" transform="rotate(-2.56132 33.7092 -0.0447778)" fill="#802799" fill-opacity="0.2"/>
<circle cx="48.6941" cy="-0.715188" r="3" transform="rotate(-2.56132 48.6941 -0.715188)" fill="#802799" fill-opacity="0.2"/>
<circle cx="63.6789" cy="-1.38511" r="3" transform="rotate(-2.56132 63.6789 -1.38511)" fill="#802799" fill-opacity="0.2"/>
<circle cx="78.6643" cy="-2.05552" r="3" transform="rotate(-2.56132 78.6643 -2.05552)" fill="#802799" fill-opacity="0.2"/>
<circle cx="93.6491" cy="-2.72593" r="3" transform="rotate(-2.56132 93.6491 -2.72593)" fill="#802799" fill-opacity="0.2"/>
</g>
<g clip-path="url(#clip2_391_1846)">
<circle cx="4.40939" cy="16.2809" r="3" transform="rotate(-2.56132 4.40939 16.2809)" fill="#802799" fill-opacity="0.2"/>
<circle cx="19.3943" cy="15.6105" r="3" transform="rotate(-2.56132 19.3943 15.6105)" fill="#802799" fill-opacity="0.2"/>
<circle cx="34.3796" cy="14.9401" r="3" transform="rotate(-2.56132 34.3796 14.9401)" fill="#802799" fill-opacity="0.2"/>
<circle cx="49.3645" cy="14.2697" r="3" transform="rotate(-2.56132 49.3645 14.2697)" fill="#802799" fill-opacity="0.2"/>
<circle cx="64.3493" cy="13.5998" r="3" transform="rotate(-2.56132 64.3493 13.5998)" fill="#802799" fill-opacity="0.2"/>
<circle cx="79.3347" cy="12.9293" r="3" transform="rotate(-2.56132 79.3347 12.9293)" fill="#802799" fill-opacity="0.2"/>
<circle cx="94.3195" cy="12.2589" r="3" transform="rotate(-2.56132 94.3195 12.2589)" fill="#802799" fill-opacity="0.2"/>
<circle cx="109.304" cy="11.5885" r="3" transform="rotate(-2.56132 109.304 11.5885)" fill="#802799" fill-opacity="0.2"/>
<circle cx="124.289" cy="10.9181" r="3" transform="rotate(-2.56132 124.289 10.9181)" fill="#802799" fill-opacity="0.2"/>
<circle cx="139.275" cy="10.2477" r="3" transform="rotate(-2.56132 139.275 10.2477)" fill="#802799" fill-opacity="0.2"/>
<circle cx="154.259" cy="9.57778" r="3" transform="rotate(-2.56132 154.259 9.57778)" fill="#802799" fill-opacity="0.2"/>
<circle cx="169.244" cy="8.90737" r="3" transform="rotate(-2.56132 169.244 8.90737)" fill="#802799" fill-opacity="0.2"/>
<circle cx="184.23" cy="8.23696" r="3" transform="rotate(-2.56132 184.23 8.23696)" fill="#802799" fill-opacity="0.2"/>
<circle cx="199.215" cy="7.56655" r="3" transform="rotate(-2.56132 199.215 7.56655)" fill="#802799" fill-opacity="0.2"/>
<circle cx="214.199" cy="6.89614" r="3" transform="rotate(-2.56132 214.199 6.89614)" fill="#802799" fill-opacity="0.2"/>
</g>
<g clip-path="url(#clip3_391_1846)">
<circle cx="5.0798" cy="31.2663" r="3" transform="rotate(-2.56132 5.0798 31.2663)" fill="#802799" fill-opacity="0.2"/>
<circle cx="20.0647" cy="30.5958" r="3" transform="rotate(-2.56132 20.0647 30.5958)" fill="#802799" fill-opacity="0.2"/>
<circle cx="35.05" cy="29.9254" r="3" transform="rotate(-2.56132 35.05 29.9254)" fill="#802799" fill-opacity="0.2"/>
<circle cx="50.0349" cy="29.255" r="3" transform="rotate(-2.56132 50.0349 29.255)" fill="#802799" fill-opacity="0.2"/>
<circle cx="65.0197" cy="28.5851" r="3" transform="rotate(-2.56132 65.0197 28.5851)" fill="#802799" fill-opacity="0.2"/>
<circle cx="80.0051" cy="27.9147" r="3" transform="rotate(-2.56132 80.0051 27.9147)" fill="#802799" fill-opacity="0.2"/>
<circle cx="94.99" cy="27.2443" r="3" transform="rotate(-2.56132 94.99 27.2443)" fill="#802799" fill-opacity="0.2"/>
<circle cx="109.975" cy="26.5739" r="3" transform="rotate(-2.56132 109.975 26.5739)" fill="#802799" fill-opacity="0.2"/>
<circle cx="124.96" cy="25.9035" r="3" transform="rotate(-2.56132 124.96 25.9035)" fill="#802799" fill-opacity="0.2"/>
<circle cx="139.945" cy="25.2331" r="3" transform="rotate(-2.56132 139.945 25.2331)" fill="#802799" fill-opacity="0.2"/>
<circle cx="154.93" cy="24.5631" r="3" transform="rotate(-2.56132 154.93 24.5631)" fill="#802799" fill-opacity="0.2"/>
<circle cx="169.915" cy="23.8927" r="3" transform="rotate(-2.56132 169.915 23.8927)" fill="#802799" fill-opacity="0.2"/>
<circle cx="184.9" cy="23.2223" r="3" transform="rotate(-2.56132 184.9 23.2223)" fill="#802799" fill-opacity="0.2"/>
<circle cx="199.885" cy="22.5519" r="3" transform="rotate(-2.56132 199.885 22.5519)" fill="#802799" fill-opacity="0.2"/>
<circle cx="214.87" cy="21.8815" r="3" transform="rotate(-2.56132 214.87 21.8815)" fill="#802799" fill-opacity="0.2"/>
</g>
<g clip-path="url(#clip4_391_1846)">
<circle cx="5.75021" cy="46.2511" r="3" transform="rotate(-2.56132 5.75021 46.2511)" fill="#802799" fill-opacity="0.2"/>
<circle cx="20.7351" cy="45.5807" r="3" transform="rotate(-2.56132 20.7351 45.5807)" fill="#802799" fill-opacity="0.2"/>
<circle cx="35.7204" cy="44.9103" r="3" transform="rotate(-2.56132 35.7204 44.9103)" fill="#802799" fill-opacity="0.2"/>
<circle cx="50.7053" cy="44.2399" r="3" transform="rotate(-2.56132 50.7053 44.2399)" fill="#802799" fill-opacity="0.2"/>
<circle cx="65.6901" cy="43.57" r="3" transform="rotate(-2.56132 65.6901 43.57)" fill="#802799" fill-opacity="0.2"/>
<circle cx="80.6755" cy="42.8996" r="3" transform="rotate(-2.56132 80.6755 42.8996)" fill="#802799" fill-opacity="0.2"/>
<circle cx="95.6604" cy="42.2291" r="3" transform="rotate(-2.56132 95.6604 42.2291)" fill="#802799" fill-opacity="0.2"/>
<circle cx="110.645" cy="41.5587" r="3" transform="rotate(-2.56132 110.645 41.5587)" fill="#802799" fill-opacity="0.2"/>
<circle cx="125.63" cy="40.8883" r="3" transform="rotate(-2.56132 125.63 40.8883)" fill="#802799" fill-opacity="0.2"/>
<circle cx="140.615" cy="40.2179" r="3" transform="rotate(-2.56132 140.615 40.2179)" fill="#802799" fill-opacity="0.2"/>
<circle cx="155.6" cy="39.548" r="3" transform="rotate(-2.56132 155.6 39.548)" fill="#802799" fill-opacity="0.2"/>
<circle cx="170.585" cy="38.8776" r="3" transform="rotate(-2.56132 170.585 38.8776)" fill="#802799" fill-opacity="0.2"/>
<circle cx="185.571" cy="38.2072" r="3" transform="rotate(-2.56132 185.571 38.2072)" fill="#802799" fill-opacity="0.2"/>
<circle cx="200.555" cy="37.5368" r="3" transform="rotate(-2.56132 200.555 37.5368)" fill="#802799" fill-opacity="0.2"/>
<circle cx="215.54" cy="36.8664" r="3" transform="rotate(-2.56132 215.54 36.8664)" fill="#802799" fill-opacity="0.2"/>
</g>
<g clip-path="url(#clip5_391_1846)">
<circle cx="6.42013" cy="61.236" r="3" transform="rotate(-2.56132 6.42013 61.236)" fill="#802799" fill-opacity="0.2"/>
<circle cx="21.405" cy="60.5656" r="3" transform="rotate(-2.56132 21.405 60.5656)" fill="#802799" fill-opacity="0.2"/>
<circle cx="36.3903" cy="59.8952" r="3" transform="rotate(-2.56132 36.3903 59.8952)" fill="#802799" fill-opacity="0.2"/>
<circle cx="51.3752" cy="59.2248" r="3" transform="rotate(-2.56132 51.3752 59.2248)" fill="#802799" fill-opacity="0.2"/>
<circle cx="66.3601" cy="58.5548" r="3" transform="rotate(-2.56132 66.3601 58.5548)" fill="#802799" fill-opacity="0.2"/>
<circle cx="81.3454" cy="57.8844" r="3" transform="rotate(-2.56132 81.3454 57.8844)" fill="#802799" fill-opacity="0.2"/>
<circle cx="96.3303" cy="57.214" r="3" transform="rotate(-2.56132 96.3303 57.214)" fill="#802799" fill-opacity="0.2"/>
<circle cx="111.315" cy="56.5436" r="3" transform="rotate(-2.56132 111.315 56.5436)" fill="#802799" fill-opacity="0.2"/>
<circle cx="126.3" cy="55.8732" r="3" transform="rotate(-2.56132 126.3 55.8732)" fill="#802799" fill-opacity="0.2"/>
<circle cx="141.285" cy="55.2028" r="3" transform="rotate(-2.56132 141.285 55.2028)" fill="#802799" fill-opacity="0.2"/>
<circle cx="156.27" cy="54.5329" r="3" transform="rotate(-2.56132 156.27 54.5329)" fill="#802799" fill-opacity="0.2"/>
<circle cx="171.255" cy="53.8624" r="3" transform="rotate(-2.56132 171.255 53.8624)" fill="#802799" fill-opacity="0.2"/>
<circle cx="186.24" cy="53.192" r="3" transform="rotate(-2.56132 186.24 53.192)" fill="#802799" fill-opacity="0.2"/>
<circle cx="201.225" cy="52.5216" r="3" transform="rotate(-2.56132 201.225 52.5216)" fill="#802799" fill-opacity="0.2"/>
<circle cx="216.21" cy="51.8512" r="3" transform="rotate(-2.56132 216.21 51.8512)" fill="#802799" fill-opacity="0.2"/>
</g>
<g clip-path="url(#clip6_391_1846)">
<circle cx="7.09054" cy="76.2213" r="3" transform="rotate(-2.56132 7.09054 76.2213)" fill="#802799" fill-opacity="0.2"/>
<circle cx="22.0754" cy="75.5509" r="3" transform="rotate(-2.56132 22.0754 75.5509)" fill="#802799" fill-opacity="0.2"/>
<circle cx="37.0608" cy="74.8805" r="3" transform="rotate(-2.56132 37.0608 74.8805)" fill="#802799" fill-opacity="0.2"/>
<circle cx="52.0456" cy="74.2101" r="3" transform="rotate(-2.56132 52.0456 74.2101)" fill="#802799" fill-opacity="0.2"/>
<circle cx="67.0305" cy="73.5402" r="3" transform="rotate(-2.56132 67.0305 73.5402)" fill="#802799" fill-opacity="0.2"/>
<circle cx="82.0158" cy="72.8698" r="3" transform="rotate(-2.56132 82.0158 72.8698)" fill="#802799" fill-opacity="0.2"/>
<circle cx="97.0007" cy="72.1994" r="3" transform="rotate(-2.56132 97.0007 72.1994)" fill="#802799" fill-opacity="0.2"/>
<circle cx="111.986" cy="71.529" r="3" transform="rotate(-2.56132 111.986 71.529)" fill="#802799" fill-opacity="0.2"/>
<circle cx="126.97" cy="70.8585" r="3" transform="rotate(-2.56132 126.97 70.8585)" fill="#802799" fill-opacity="0.2"/>
<circle cx="141.956" cy="70.1881" r="3" transform="rotate(-2.56132 141.956 70.1881)" fill="#802799" fill-opacity="0.2"/>
<circle cx="156.941" cy="69.5182" r="3" transform="rotate(-2.56132 156.941 69.5182)" fill="#802799" fill-opacity="0.2"/>
<circle cx="171.926" cy="68.8478" r="3" transform="rotate(-2.56132 171.926 68.8478)" fill="#802799" fill-opacity="0.2"/>
<circle cx="186.911" cy="68.1774" r="3" transform="rotate(-2.56132 186.911 68.1774)" fill="#802799" fill-opacity="0.2"/>
<circle cx="201.896" cy="67.507" r="3" transform="rotate(-2.56132 201.896 67.507)" fill="#802799" fill-opacity="0.2"/>
<circle cx="216.881" cy="66.8366" r="3" transform="rotate(-2.56132 216.881 66.8366)" fill="#802799" fill-opacity="0.2"/>
</g>
<g clip-path="url(#clip7_391_1846)">
<circle cx="7.76095" cy="91.2062" r="3" transform="rotate(-2.56132 7.76095 91.2062)" fill="#802799" fill-opacity="0.2"/>
<circle cx="22.7458" cy="90.5358" r="3" transform="rotate(-2.56132 22.7458 90.5358)" fill="#802799" fill-opacity="0.2"/>
<circle cx="37.7312" cy="89.8654" r="3" transform="rotate(-2.56132 37.7312 89.8654)" fill="#802799" fill-opacity="0.2"/>
<circle cx="52.716" cy="89.195" r="3" transform="rotate(-2.56132 52.716 89.195)" fill="#802799" fill-opacity="0.2"/>
<circle cx="67.7009" cy="88.525" r="3" transform="rotate(-2.56132 67.7009 88.525)" fill="#802799" fill-opacity="0.2"/>
<circle cx="82.6862" cy="87.8546" r="3" transform="rotate(-2.56132 82.6862 87.8546)" fill="#802799" fill-opacity="0.2"/>
<circle cx="97.6711" cy="87.1842" r="3" transform="rotate(-2.56132 97.6711 87.1842)" fill="#802799" fill-opacity="0.2"/>
<circle cx="112.656" cy="86.5138" r="3" transform="rotate(-2.56132 112.656 86.5138)" fill="#802799" fill-opacity="0.2"/>
<circle cx="127.641" cy="85.8434" r="3" transform="rotate(-2.56132 127.641 85.8434)" fill="#802799" fill-opacity="0.2"/>
<circle cx="142.626" cy="85.173" r="3" transform="rotate(-2.56132 142.626 85.173)" fill="#802799" fill-opacity="0.2"/>
<circle cx="157.611" cy="84.5031" r="3" transform="rotate(-2.56132 157.611 84.5031)" fill="#802799" fill-opacity="0.2"/>
<circle cx="172.596" cy="83.8327" r="3" transform="rotate(-2.56132 172.596 83.8327)" fill="#802799" fill-opacity="0.2"/>
<circle cx="187.581" cy="83.1623" r="3" transform="rotate(-2.56132 187.581 83.1623)" fill="#802799" fill-opacity="0.2"/>
<circle cx="202.566" cy="82.4918" r="3" transform="rotate(-2.56132 202.566 82.4918)" fill="#802799" fill-opacity="0.2"/>
<circle cx="217.551" cy="81.8214" r="3" transform="rotate(-2.56132 217.551 81.8214)" fill="#802799" fill-opacity="0.2"/>
</g>
<g clip-path="url(#clip8_391_1846)">
<circle cx="8.43136" cy="106.191" r="3" transform="rotate(-2.56132 8.43136 106.191)" fill="#802799" fill-opacity="0.2"/>
<circle cx="23.4162" cy="105.521" r="3" transform="rotate(-2.56132 23.4162 105.521)" fill="#802799" fill-opacity="0.2"/>
<circle cx="38.4016" cy="104.85" r="3" transform="rotate(-2.56132 38.4016 104.85)" fill="#802799" fill-opacity="0.2"/>
<circle cx="53.3864" cy="104.18" r="3" transform="rotate(-2.56132 53.3864 104.18)" fill="#802799" fill-opacity="0.2"/>
<circle cx="68.3713" cy="103.51" r="3" transform="rotate(-2.56132 68.3713 103.51)" fill="#802799" fill-opacity="0.2"/>
<circle cx="83.3567" cy="102.84" r="3" transform="rotate(-2.56132 83.3567 102.84)" fill="#802799" fill-opacity="0.2"/>
<circle cx="98.3415" cy="102.169" r="3" transform="rotate(-2.56132 98.3415 102.169)" fill="#802799" fill-opacity="0.2"/>
<circle cx="113.326" cy="101.499" r="3" transform="rotate(-2.56132 113.326 101.499)" fill="#802799" fill-opacity="0.2"/>
<circle cx="128.311" cy="100.828" r="3" transform="rotate(-2.56132 128.311 100.828)" fill="#802799" fill-opacity="0.2"/>
<circle cx="143.297" cy="100.158" r="3" transform="rotate(-2.56132 143.297 100.158)" fill="#802799" fill-opacity="0.2"/>
<circle cx="158.281" cy="99.4879" r="3" transform="rotate(-2.56132 158.281 99.4879)" fill="#802799" fill-opacity="0.2"/>
<circle cx="173.266" cy="98.8175" r="3" transform="rotate(-2.56132 173.266 98.8175)" fill="#802799" fill-opacity="0.2"/>
<circle cx="188.252" cy="98.1471" r="3" transform="rotate(-2.56132 188.252 98.1471)" fill="#802799" fill-opacity="0.2"/>
<circle cx="203.237" cy="97.4767" r="3" transform="rotate(-2.56132 203.237 97.4767)" fill="#802799" fill-opacity="0.2"/>
<circle cx="218.221" cy="96.8063" r="3" transform="rotate(-2.56132 218.221 96.8063)" fill="#802799" fill-opacity="0.2"/>
</g>
<g clip-path="url(#clip9_391_1846)">
<circle cx="9.10177" cy="121.176" r="3" transform="rotate(-2.56132 9.10177 121.176)" fill="#802799" fill-opacity="0.2"/>
<circle cx="24.0866" cy="120.506" r="3" transform="rotate(-2.56132 24.0866 120.506)" fill="#802799" fill-opacity="0.2"/>
<circle cx="39.072" cy="119.835" r="3" transform="rotate(-2.56132 39.072 119.835)" fill="#802799" fill-opacity="0.2"/>
<circle cx="54.0569" cy="119.165" r="3" transform="rotate(-2.56132 54.0569 119.165)" fill="#802799" fill-opacity="0.2"/>
<circle cx="69.0417" cy="118.495" r="3" transform="rotate(-2.56132 69.0417 118.495)" fill="#802799" fill-opacity="0.2"/>
<circle cx="84.0271" cy="117.824" r="3" transform="rotate(-2.56132 84.0271 117.824)" fill="#802799" fill-opacity="0.2"/>
<circle cx="99.0119" cy="117.154" r="3" transform="rotate(-2.56132 99.0119 117.154)" fill="#802799" fill-opacity="0.2"/>
<circle cx="113.997" cy="116.484" r="3" transform="rotate(-2.56132 113.997 116.484)" fill="#802799" fill-opacity="0.2"/>
<circle cx="128.982" cy="115.813" r="3" transform="rotate(-2.56132 128.982 115.813)" fill="#802799" fill-opacity="0.2"/>
<circle cx="143.967" cy="115.143" r="3" transform="rotate(-2.56132 143.967 115.143)" fill="#802799" fill-opacity="0.2"/>
<circle cx="158.952" cy="114.473" r="3" transform="rotate(-2.56132 158.952 114.473)" fill="#802799" fill-opacity="0.2"/>
<circle cx="173.937" cy="113.802" r="3" transform="rotate(-2.56132 173.937 113.802)" fill="#802799" fill-opacity="0.2"/>
<circle cx="188.922" cy="113.132" r="3" transform="rotate(-2.56132 188.922 113.132)" fill="#802799" fill-opacity="0.2"/>
<circle cx="203.907" cy="112.462" r="3" transform="rotate(-2.56132 203.907 112.462)" fill="#802799" fill-opacity="0.2"/>
<circle cx="218.892" cy="111.791" r="3" transform="rotate(-2.56132 218.892 111.791)" fill="#802799" fill-opacity="0.2"/>
</g>
<g clip-path="url(#clip10_391_1846)">
<circle cx="9.77218" cy="136.161" r="3" transform="rotate(-2.56132 9.77218 136.161)" fill="#802799" fill-opacity="0.2"/>
<circle cx="24.757" cy="135.491" r="3" transform="rotate(-2.56132 24.757 135.491)" fill="#802799" fill-opacity="0.2"/>
<circle cx="39.7424" cy="134.82" r="3" transform="rotate(-2.56132 39.7424 134.82)" fill="#802799" fill-opacity="0.2"/>
<circle cx="54.7273" cy="134.15" r="3" transform="rotate(-2.56132 54.7273 134.15)" fill="#802799" fill-opacity="0.2"/>
<circle cx="69.7121" cy="133.48" r="3" transform="rotate(-2.56132 69.7121 133.48)" fill="#802799" fill-opacity="0.2"/>
<circle cx="84.6975" cy="132.81" r="3" transform="rotate(-2.56132 84.6975 132.81)" fill="#802799" fill-opacity="0.2"/>
<circle cx="99.6823" cy="132.139" r="3" transform="rotate(-2.56132 99.6823 132.139)" fill="#802799" fill-opacity="0.2"/>
<circle cx="114.667" cy="131.469" r="3" transform="rotate(-2.56132 114.667 131.469)" fill="#802799" fill-opacity="0.2"/>
<circle cx="129.652" cy="130.798" r="3" transform="rotate(-2.56132 129.652 130.798)" fill="#802799" fill-opacity="0.2"/>
<circle cx="144.637" cy="130.128" r="3" transform="rotate(-2.56132 144.637 130.128)" fill="#802799" fill-opacity="0.2"/>
<circle cx="159.622" cy="129.458" r="3" transform="rotate(-2.56132 159.622 129.458)" fill="#802799" fill-opacity="0.2"/>
<circle cx="174.607" cy="128.788" r="3" transform="rotate(-2.56132 174.607 128.788)" fill="#802799" fill-opacity="0.2"/>
<circle cx="189.592" cy="128.117" r="3" transform="rotate(-2.56132 189.592 128.117)" fill="#802799" fill-opacity="0.2"/>
<circle cx="204.577" cy="127.447" r="3" transform="rotate(-2.56132 204.577 127.447)" fill="#802799" fill-opacity="0.2"/>
<circle cx="219.562" cy="126.777" r="3" transform="rotate(-2.56132 219.562 126.777)" fill="#802799" fill-opacity="0.2"/>
</g>
<g clip-path="url(#clip11_391_1846)">
<circle cx="10.4421" cy="151.146" r="3" transform="rotate(-2.56132 10.4421 151.146)" fill="#802799" fill-opacity="0.2"/>
<circle cx="25.427" cy="150.476" r="3" transform="rotate(-2.56132 25.427 150.476)" fill="#802799" fill-opacity="0.2"/>
<circle cx="40.4123" cy="149.805" r="3" transform="rotate(-2.56132 40.4123 149.805)" fill="#802799" fill-opacity="0.2"/>
<circle cx="55.3972" cy="149.135" r="3" transform="rotate(-2.56132 55.3972 149.135)" fill="#802799" fill-opacity="0.2"/>
<circle cx="70.382" cy="148.465" r="3" transform="rotate(-2.56132 70.382 148.465)" fill="#802799" fill-opacity="0.2"/>
<circle cx="85.3674" cy="147.795" r="3" transform="rotate(-2.56132 85.3674 147.795)" fill="#802799" fill-opacity="0.2"/>
<circle cx="100.352" cy="147.124" r="3" transform="rotate(-2.56132 100.352 147.124)" fill="#802799" fill-opacity="0.2"/>
<circle cx="115.337" cy="146.454" r="3" transform="rotate(-2.56132 115.337 146.454)" fill="#802799" fill-opacity="0.2"/>
<circle cx="130.322" cy="145.783" r="3" transform="rotate(-2.56132 130.322 145.783)" fill="#802799" fill-opacity="0.2"/>
<circle cx="145.307" cy="145.113" r="3" transform="rotate(-2.56132 145.307 145.113)" fill="#802799" fill-opacity="0.2"/>
<circle cx="160.292" cy="144.443" r="3" transform="rotate(-2.56132 160.292 144.443)" fill="#802799" fill-opacity="0.2"/>
<circle cx="175.277" cy="143.773" r="3" transform="rotate(-2.56132 175.277 143.773)" fill="#802799" fill-opacity="0.2"/>
<circle cx="190.262" cy="143.102" r="3" transform="rotate(-2.56132 190.262 143.102)" fill="#802799" fill-opacity="0.2"/>
<circle cx="205.247" cy="142.432" r="3" transform="rotate(-2.56132 205.247 142.432)" fill="#802799" fill-opacity="0.2"/>
<circle cx="220.232" cy="141.761" r="3" transform="rotate(-2.56132 220.232 141.761)" fill="#802799" fill-opacity="0.2"/>
</g>
<g clip-path="url(#clip12_391_1846)">
<circle cx="11.1125" cy="166.131" r="3" transform="rotate(-2.56132 11.1125 166.131)" fill="#802799" fill-opacity="0.2"/>
<circle cx="26.0974" cy="165.461" r="3" transform="rotate(-2.56132 26.0974 165.461)" fill="#802799" fill-opacity="0.2"/>
<circle cx="41.0827" cy="164.79" r="3" transform="rotate(-2.56132 41.0827 164.79)" fill="#802799" fill-opacity="0.2"/>
<circle cx="56.0676" cy="164.12" r="3" transform="rotate(-2.56132 56.0676 164.12)" fill="#802799" fill-opacity="0.2"/>
<circle cx="71.0525" cy="163.45" r="3" transform="rotate(-2.56132 71.0525 163.45)" fill="#802799" fill-opacity="0.2"/>
<circle cx="86.0378" cy="162.779" r="3" transform="rotate(-2.56132 86.0378 162.779)" fill="#802799" fill-opacity="0.2"/>
<circle cx="101.023" cy="162.109" r="3" transform="rotate(-2.56132 101.023 162.109)" fill="#802799" fill-opacity="0.2"/>
<circle cx="116.008" cy="161.439" r="3" transform="rotate(-2.56132 116.008 161.439)" fill="#802799" fill-opacity="0.2"/>
<circle cx="130.992" cy="160.768" r="3" transform="rotate(-2.56132 130.992 160.768)" fill="#802799" fill-opacity="0.2"/>
<circle cx="145.978" cy="160.098" r="3" transform="rotate(-2.56132 145.978 160.098)" fill="#802799" fill-opacity="0.2"/>
<circle cx="160.963" cy="159.428" r="3" transform="rotate(-2.56132 160.963 159.428)" fill="#802799" fill-opacity="0.2"/>
<circle cx="175.947" cy="158.757" r="3" transform="rotate(-2.56132 175.947 158.757)" fill="#802799" fill-opacity="0.2"/>
<circle cx="190.933" cy="158.087" r="3" transform="rotate(-2.56132 190.933 158.087)" fill="#802799" fill-opacity="0.2"/>
<circle cx="205.918" cy="157.417" r="3" transform="rotate(-2.56132 205.918 157.417)" fill="#802799" fill-opacity="0.2"/>
<circle cx="220.903" cy="156.746" r="3" transform="rotate(-2.56132 220.903 156.746)" fill="#802799" fill-opacity="0.2"/>
</g>
<g clip-path="url(#clip13_391_1846)">
<circle cx="11.7829" cy="181.116" r="3" transform="rotate(-2.56132 11.7829 181.116)" fill="#802799" fill-opacity="0.2"/>
<circle cx="26.7678" cy="180.446" r="3" transform="rotate(-2.56132 26.7678 180.446)" fill="#802799" fill-opacity="0.2"/>
<circle cx="41.7531" cy="179.776" r="3" transform="rotate(-2.56132 41.7531 179.776)" fill="#802799" fill-opacity="0.2"/>
<circle cx="56.738" cy="179.105" r="3" transform="rotate(-2.56132 56.738 179.105)" fill="#802799" fill-opacity="0.2"/>
<circle cx="71.7229" cy="178.435" r="3" transform="rotate(-2.56132 71.7229 178.435)" fill="#802799" fill-opacity="0.2"/>
<circle cx="86.7082" cy="177.765" r="3" transform="rotate(-2.56132 86.7082 177.765)" fill="#802799" fill-opacity="0.2"/>
<circle cx="101.693" cy="177.094" r="3" transform="rotate(-2.56132 101.693 177.094)" fill="#802799" fill-opacity="0.2"/>
<circle cx="116.678" cy="176.424" r="3" transform="rotate(-2.56132 116.678 176.424)" fill="#802799" fill-opacity="0.2"/>
<circle cx="131.663" cy="175.754" r="3" transform="rotate(-2.56132 131.663 175.754)" fill="#802799" fill-opacity="0.2"/>
<circle cx="146.648" cy="175.083" r="3" transform="rotate(-2.56132 146.648 175.083)" fill="#802799" fill-opacity="0.2"/>
<circle cx="161.633" cy="174.413" r="3" transform="rotate(-2.56132 161.633 174.413)" fill="#802799" fill-opacity="0.2"/>
<circle cx="176.618" cy="173.743" r="3" transform="rotate(-2.56132 176.618 173.743)" fill="#802799" fill-opacity="0.2"/>
<circle cx="191.603" cy="173.072" r="3" transform="rotate(-2.56132 191.603 173.072)" fill="#802799" fill-opacity="0.2"/>
<circle cx="206.588" cy="172.402" r="3" transform="rotate(-2.56132 206.588 172.402)" fill="#802799" fill-opacity="0.2"/>
<circle cx="221.573" cy="171.732" r="3" transform="rotate(-2.56132 221.573 171.732)" fill="#802799" fill-opacity="0.2"/>
</g>
<g clip-path="url(#clip14_391_1846)">
<circle cx="12.4533" cy="196.101" r="3" transform="rotate(-2.56132 12.4533 196.101)" fill="#802799" fill-opacity="0.2"/>
<circle cx="27.4382" cy="195.431" r="3" transform="rotate(-2.56132 27.4382 195.431)" fill="#802799" fill-opacity="0.2"/>
<circle cx="42.4235" cy="194.76" r="3" transform="rotate(-2.56132 42.4235 194.76)" fill="#802799" fill-opacity="0.2"/>
<circle cx="57.4084" cy="194.09" r="3" transform="rotate(-2.56132 57.4084 194.09)" fill="#802799" fill-opacity="0.2"/>
<circle cx="72.3933" cy="193.42" r="3" transform="rotate(-2.56132 72.3933 193.42)" fill="#802799" fill-opacity="0.2"/>
<circle cx="87.3786" cy="192.75" r="3" transform="rotate(-2.56132 87.3786 192.75)" fill="#802799" fill-opacity="0.2"/>
<circle cx="102.363" cy="192.079" r="3" transform="rotate(-2.56132 102.363 192.079)" fill="#802799" fill-opacity="0.2"/>
<circle cx="117.348" cy="191.409" r="3" transform="rotate(-2.56132 117.348 191.409)" fill="#802799" fill-opacity="0.2"/>
<circle cx="132.333" cy="190.738" r="3" transform="rotate(-2.56132 132.333 190.738)" fill="#802799" fill-opacity="0.2"/>
<circle cx="147.319" cy="190.068" r="3" transform="rotate(-2.56132 147.319 190.068)" fill="#802799" fill-opacity="0.2"/>
<circle cx="162.303" cy="189.398" r="3" transform="rotate(-2.56132 162.303 189.398)" fill="#802799" fill-opacity="0.2"/>
<circle cx="177.288" cy="188.728" r="3" transform="rotate(-2.56132 177.288 188.728)" fill="#802799" fill-opacity="0.2"/>
<circle cx="192.274" cy="188.057" r="3" transform="rotate(-2.56132 192.274 188.057)" fill="#802799" fill-opacity="0.2"/>
<circle cx="207.259" cy="187.387" r="3" transform="rotate(-2.56132 207.259 187.387)" fill="#802799" fill-opacity="0.2"/>
<circle cx="222.243" cy="186.716" r="3" transform="rotate(-2.56132 222.243 186.716)" fill="#802799" fill-opacity="0.2"/>
</g>
<g clip-path="url(#clip15_391_1846)">
<circle cx="177.959" cy="203.713" r="3" transform="rotate(-2.56132 177.959 203.713)" fill="#802799" fill-opacity="0.2"/>
<circle cx="192.944" cy="203.042" r="3" transform="rotate(-2.56132 192.944 203.042)" fill="#802799" fill-opacity="0.2"/>
<circle cx="207.929" cy="202.372" r="3" transform="rotate(-2.56132 207.929 202.372)" fill="#802799" fill-opacity="0.2"/>
<circle cx="222.914" cy="201.701" r="3" transform="rotate(-2.56132 222.914 201.701)" fill="#802799" fill-opacity="0.2"/>
</g>
</g>
<defs>
<clipPath id="clip0_391_1846">
<rect width="211.089" height="202.386" fill="white" transform="translate(0.60791 -1.56689) rotate(-2.56132)"/>
</clipPath>
<clipPath id="clip1_391_1846">
<rect width="250" height="15" fill="white" transform="translate(0.60791 -1.56689) rotate(-2.56132)"/>
</clipPath>
<clipPath id="clip2_391_1846">
<rect width="250" height="15" fill="white" transform="translate(1.27832 13.418) rotate(-2.56132)"/>
</clipPath>
<clipPath id="clip3_391_1846">
<rect width="250" height="15" fill="white" transform="translate(1.94873 28.4033) rotate(-2.56132)"/>
</clipPath>
<clipPath id="clip4_391_1846">
<rect width="250" height="15" fill="white" transform="translate(2.61914 43.3882) rotate(-2.56132)"/>
</clipPath>
<clipPath id="clip5_391_1846">
<rect width="250" height="15" fill="white" transform="translate(3.28906 58.373) rotate(-2.56132)"/>
</clipPath>
<clipPath id="clip6_391_1846">
<rect width="250" height="15" fill="white" transform="translate(3.95947 73.3584) rotate(-2.56132)"/>
</clipPath>
<clipPath id="clip7_391_1846">
<rect width="250" height="15" fill="white" transform="translate(4.62988 88.3433) rotate(-2.56132)"/>
</clipPath>
<clipPath id="clip8_391_1846">
<rect width="250" height="15" fill="white" transform="translate(5.30029 103.328) rotate(-2.56132)"/>
</clipPath>
<clipPath id="clip9_391_1846">
<rect width="250" height="15" fill="white" transform="translate(5.9707 118.313) rotate(-2.56132)"/>
</clipPath>
<clipPath id="clip10_391_1846">
<rect width="250" height="15" fill="white" transform="translate(6.64111 133.298) rotate(-2.56132)"/>
</clipPath>
<clipPath id="clip11_391_1846">
<rect width="250" height="15" fill="white" transform="translate(7.31104 148.283) rotate(-2.56132)"/>
</clipPath>
<clipPath id="clip12_391_1846">
<rect width="250" height="15" fill="white" transform="translate(7.98145 163.268) rotate(-2.56132)"/>
</clipPath>
<clipPath id="clip13_391_1846">
<rect width="250" height="15" fill="white" transform="translate(8.65186 178.253) rotate(-2.56132)"/>
</clipPath>
<clipPath id="clip14_391_1846">
<rect width="250" height="15" fill="white" transform="translate(9.32227 193.238) rotate(-2.56132)"/>
</clipPath>
<clipPath id="clip15_391_1846">
<rect width="250" height="15" fill="white" transform="translate(9.99268 208.223) rotate(-2.56132)"/>
</clipPath>
</defs>
</svg>
