<svg width="104" height="89" viewBox="0 0 104 89" fill="none" xmlns="http://www.w3.org/2000/svg">
<circle cx="52" cy="44.5" r="44" fill="#FADB78"/>
<path d="M51.1346 71.5H51.9217C55.228 71.4963 58.3979 70.1913 60.7358 67.8714C63.0737 65.5514 64.3888 62.4059 64.3925 59.125V52.7436C66.7866 50.8364 68.7182 48.4198 70.0447 45.6723C71.3712 42.9249 72.0586 39.9168 72.0563 36.8703C72.0563 25.6381 62.8474 16.5 51.5282 16.5C40.2089 16.5 31 25.6381 31 36.8703C30.9977 39.9168 31.6852 42.9249 33.0117 45.6724C34.3382 48.4198 36.2699 50.8364 38.6639 52.7436V59.125C38.6676 62.4059 39.9827 65.5514 42.3206 67.8714C44.6585 70.1913 47.8283 71.4963 51.1346 71.5ZM51.9217 67.8333H51.1346C49.3768 67.8312 47.66 67.3059 46.2061 66.3254C44.7522 65.345 43.628 63.9544 42.9788 62.3333H60.0776C59.4284 63.9544 58.3042 65.345 56.8503 66.3254C55.3964 67.3059 53.6796 67.8312 51.9217 67.8333ZM60.6975 58.6667H42.359V54.0833H60.6975V58.6667ZM34.6951 36.8703C34.6951 27.6604 42.2464 20.1667 51.5282 20.1667C60.8099 20.1667 68.3613 27.6604 68.3613 36.8703C68.3556 39.4987 67.7276 42.0891 66.5278 44.4324C65.328 46.7758 63.5901 48.8065 61.4541 50.361L61.3778 50.4167H41.6785L41.6017 50.361C39.4659 48.8065 37.728 46.7757 36.5283 44.4323C35.3286 42.089 34.7007 39.4987 34.6951 36.8703Z" fill="#25092D"/>
</svg>
