<svg width="1098" height="579" viewBox="0 0 1098 579" fill="none" xmlns="http://www.w3.org/2000/svg">
<path d="M69.548 483.563L66.1231 500.35C65.8651 501.633 65.5953 502.939 65.3021 504.234C62.4396 503.654 59.4716 503.816 56.6929 504.704C58.8974 507.782 60.873 511.01 62.6044 514.364C60.4462 520.861 57.2794 526.865 51.9778 531.208C48.437 534.044 44.2079 535.941 39.6984 536.715C35.1889 537.49 30.5512 537.116 26.2324 535.631L26.3849 534.966C20.6845 524.161 23.781 510.536 30.8654 500.556C34.4787 495.632 38.7599 491.211 43.5915 487.413C48.3769 483.517 53.5495 480.022 58.6752 476.573C59.8264 475.8 61.1874 475.379 62.5845 475.365C63.9816 475.351 65.3512 475.745 66.5183 476.495C67.6855 477.245 68.5971 478.318 69.1368 479.577C69.6764 480.836 69.8196 482.224 69.548 483.563Z" fill="#E4E4E4"/>
<path d="M27.4518 576.022C26.0103 565.763 24.5277 555.374 25.5388 545.005C26.4372 535.797 29.3121 526.803 35.1672 519.428C38.2749 515.521 42.0563 512.173 46.3416 509.536C47.4593 508.848 48.4868 510.577 47.3749 511.263C39.9606 515.84 34.2259 522.6 30.9975 530.567C27.4319 539.427 26.8595 549.085 27.4788 558.496C27.8506 564.188 28.6376 569.84 29.4317 575.489C29.4956 575.745 29.4572 576.015 29.3242 576.244C29.1911 576.472 28.9737 576.643 28.7162 576.72C28.4543 576.789 28.1751 576.754 27.9393 576.624C27.7034 576.493 27.5299 576.276 27.4565 576.021L27.4518 576.022Z" fill="#F2F2F2"/>
<path d="M39.823 61.4573C90.0674 60.6038 140.317 60.4811 190.572 61.0894C240.82 61.7013 291.051 63.0474 341.266 65.1276C369.443 66.2951 397.609 67.6936 425.763 69.3232C428.025 69.454 428.017 66.016 425.763 65.8857C375.599 62.9857 325.398 60.8158 275.161 59.3759C224.93 57.9399 174.686 57.2381 124.426 57.2706C96.2236 57.2889 68.0225 57.5386 39.823 58.0197C37.5613 58.0581 37.5541 61.4958 39.823 61.4573V61.4573Z" fill="#C2C2C2"/>
<path d="M389.979 39.9026L411.949 38.3051C414.194 38.1419 414.212 34.703 411.949 34.8675L389.979 36.465C387.734 36.6282 387.716 40.0671 389.979 39.9026Z" fill="#C2C2C2"/>
<path d="M389.979 60.5281L411.949 58.9306C414.194 58.7674 414.212 55.3285 411.949 55.493L389.979 57.0905C387.734 57.2537 387.716 60.6926 389.979 60.5281Z" fill="#C2C2C2"/>
<path d="M388.326 51.1091L419.563 53.8815C421.817 54.0816 421.804 50.6427 419.563 50.4439L388.326 47.6715C386.072 47.4714 386.086 50.9102 388.326 51.1091Z" fill="#C2C2C2"/>
<path d="M52.8256 35.2794C51.2978 35.2702 49.8009 35.7005 48.5217 36.5167C47.2425 37.3329 46.2375 38.4989 45.6319 39.8692C44.9545 41.2105 44.7454 42.7316 45.0366 44.1999C45.3278 45.6682 46.1032 47.003 47.2443 48.0001C48.317 48.8917 49.6036 49.503 50.9838 49.7769C52.364 50.0509 53.7927 49.9784 55.1365 49.5664C56.5108 49.0975 57.7025 48.224 58.5476 47.0661C59.3927 45.9082 59.8497 44.5228 59.8556 43.1007C59.917 41.523 59.4794 39.9651 58.6025 38.6388C57.7256 37.3125 56.4519 36.2823 54.9545 35.6882C54.5046 35.5688 54.0247 35.628 53.6193 35.8528C53.2138 36.0777 52.9159 36.45 52.7903 36.8886C52.6793 37.3277 52.7449 37.7917 52.9735 38.185C53.202 38.5783 53.5763 38.871 54.0191 39.003C54.3257 39.1187 53.739 38.8557 54.0253 39.0081C54.143 39.0707 54.2629 39.1273 54.3785 39.1942C54.4768 39.2511 54.5709 39.3133 54.6665 39.3743C54.9949 39.5837 54.5062 39.2206 54.7161 39.4088C54.8981 39.5721 55.0785 39.7313 55.2439 39.9115C55.3065 39.9796 55.5516 40.169 55.3612 40.0366C55.2154 39.9353 55.305 39.9592 55.3611 40.0405C55.4037 40.1022 55.4488 40.1622 55.4909 40.2243C55.6281 40.4271 55.7527 40.6377 55.8643 40.855C55.8902 40.9052 55.9138 40.9567 55.9401 41.0067C55.9894 41.1004 56.0608 41.125 55.9449 41.0076C55.8343 40.8954 55.9047 40.9031 55.9443 41.011C55.9704 41.082 55.9988 41.1521 56.0241 41.2233C56.1066 41.4551 56.1759 41.6913 56.2315 41.9306C56.2573 42.0413 56.2781 42.1525 56.3002 42.2639C56.3788 42.6586 56.2888 42.0185 56.3078 42.3117C56.3236 42.5565 56.3421 42.7987 56.3378 43.0444C56.3358 43.1569 56.3308 43.2692 56.3227 43.3814C56.3187 43.4374 56.3123 43.4932 56.3085 43.5492C56.2903 43.8189 56.2897 43.4506 56.3283 43.4254C56.2479 43.6544 56.1946 43.8916 56.1693 44.1324C56.1378 44.2393 56.1004 44.3438 56.0653 44.4495C55.9429 44.8183 56.1803 44.2485 56.0498 44.5005C55.9424 44.717 55.8224 44.9274 55.6904 45.1304C55.633 45.2155 55.4169 45.4076 55.5936 45.2739C55.7854 45.1288 55.4931 45.3786 55.4307 45.4429C55.3506 45.5255 55.2674 45.6052 55.1812 45.682C55.126 45.7346 55.0677 45.7841 55.0067 45.8302C54.9955 45.8247 55.3006 45.6311 55.1362 45.7336C54.9271 45.8638 54.7292 46.0032 54.5089 46.1166C54.4832 46.1298 54.2015 46.2572 54.2027 46.2618C54.1906 46.2154 54.5648 46.133 54.3079 46.2141C54.254 46.2311 54.201 46.2517 54.1473 46.2694C53.9134 46.3463 53.6747 46.4085 53.4326 46.4554C53.3772 46.4662 53.3186 46.4717 53.264 46.4855C53.0821 46.5314 53.4378 46.4585 53.4485 46.4645C53.314 46.4589 53.1794 46.4705 53.0481 46.4991C52.7985 46.5131 52.5482 46.5131 52.2986 46.4991C52.2408 46.4958 52.1832 46.4902 52.1255 46.4869C51.9914 46.4793 51.893 46.385 52.0714 46.4874C52.2091 46.5665 52.1976 46.5088 52.0757 46.4868C52.0186 46.4765 51.9613 46.4678 51.9043 46.4573C51.6572 46.4122 51.4129 46.3537 51.1724 46.2822C51.043 46.2437 50.9162 46.1989 50.7886 46.1553C50.7329 46.1395 50.6788 46.1192 50.6267 46.0944C50.6259 46.0803 50.9557 46.2484 50.7816 46.1567C50.5618 46.041 50.3346 45.944 50.12 45.8175C50.0055 45.75 49.8955 45.6767 49.7841 45.6044C49.7352 45.5756 49.6886 45.543 49.6449 45.507C49.6486 45.4925 49.9177 45.7361 49.7764 45.6046C49.5978 45.4382 49.4067 45.2894 49.2375 45.1123C49.1988 45.0718 49.1622 45.0293 49.1236 44.9887L49.0863 44.9471C48.9909 44.8332 48.9892 44.8337 49.081 44.9487C49.1742 44.9755 49.17 45.0755 49.0815 44.9457C49.05 44.8994 49.0165 44.8545 48.985 44.8082C48.8421 44.6092 48.7203 44.3967 48.6213 44.1737C48.6299 44.1672 48.7737 44.5873 48.6638 44.2703C48.643 44.2104 48.6196 44.1515 48.5992 44.0914C48.5588 43.9723 48.5232 43.852 48.4925 43.7302C48.4621 43.6096 48.4465 43.4852 48.4158 43.3651C48.3641 43.1627 48.446 43.5248 48.4367 43.5158C48.4074 43.4875 48.4198 43.312 48.4176 43.27C48.4036 43.0003 48.435 42.7385 48.4399 42.4704C48.4438 42.2627 48.4223 42.6322 48.4179 42.6214C48.419 42.5592 48.4303 42.4976 48.4513 42.4389C48.4832 42.2975 48.5128 42.1562 48.5518 42.0164C48.5964 41.8563 48.6478 41.6982 48.706 41.542C48.7277 41.4836 48.7542 41.426 48.7744 41.3671C48.8484 41.1513 48.6278 41.6278 48.7494 41.4331C48.9168 41.1654 49.0415 40.8756 49.2192 40.6111C49.2613 40.5485 49.5174 40.1993 49.3815 40.3756C49.2461 40.5512 49.5206 40.2183 49.5725 40.1618C49.7883 39.927 50.0421 39.7343 50.2655 39.5095C50.3978 39.3764 50.1732 39.575 50.16 39.5843C50.2292 39.536 50.2969 39.4859 50.367 39.4387C50.4892 39.3565 50.6143 39.2787 50.7424 39.2054C50.8868 39.1227 51.05 39.0612 51.1899 38.9737C51.3551 38.8704 51.0635 39.0191 51.0583 39.0222C51.1337 38.9856 51.2127 38.9562 51.2939 38.9344C51.4302 38.8872 52.0227 38.6375 52.147 38.7156C52.1413 38.712 51.6971 38.7505 52.0562 38.728C52.1411 38.7226 52.2256 38.7146 52.3106 38.7111C52.4826 38.7042 52.6539 38.7084 52.8256 38.7171C53.2913 38.7141 53.737 38.5321 54.0663 38.2104C54.3956 37.8887 54.582 37.4532 54.585 36.9983C54.575 36.5455 54.3865 36.1139 54.0587 35.7937C53.7309 35.4734 53.2891 35.2892 52.8256 35.2795L52.8256 35.2794Z" fill="#C2C2C2"/>
<path d="M77.4564 35.2794C75.9286 35.2702 74.4318 35.7005 73.1526 36.5167C71.8734 37.3329 70.8683 38.4989 70.2628 39.8692C69.5854 41.2105 69.3763 42.7316 69.6674 44.1999C69.9586 45.6682 70.734 47.003 71.8751 48.0001C72.9478 48.8917 74.2344 49.503 75.6146 49.7769C76.9948 50.0509 78.4236 49.9784 79.7674 49.5664C81.1417 49.0975 82.3334 48.224 83.1785 47.0661C84.0236 45.9082 84.4806 44.5228 84.4864 43.1007C84.5478 41.523 84.1103 39.9651 83.2334 38.6388C82.3565 37.3125 81.0828 36.2823 79.5854 35.6882C79.1355 35.5688 78.6555 35.628 78.2501 35.8528C77.8447 36.0777 77.5467 36.45 77.4211 36.8886C77.3102 37.3277 77.3757 37.7917 77.6043 38.185C77.8329 38.5783 78.2071 38.871 78.65 39.003C78.9566 39.1187 78.3698 38.8557 78.6562 39.0081C78.7739 39.0707 78.8938 39.1273 79.0094 39.1942C79.1077 39.2511 79.2017 39.3133 79.2973 39.3743C79.6258 39.5837 79.137 39.2206 79.3469 39.4088C79.529 39.5721 79.7094 39.7313 79.8748 39.9115C79.9374 39.9796 80.1825 40.169 79.992 40.0366C79.8463 39.9353 79.9358 39.9592 79.992 40.0405C80.0346 40.1022 80.0797 40.1622 80.1218 40.2243C80.2589 40.4271 80.3836 40.6377 80.4952 40.855C80.521 40.9052 80.5447 40.9567 80.571 41.0067C80.6202 41.1004 80.6916 41.125 80.5758 41.0076C80.4651 40.8954 80.5356 40.9031 80.5752 41.011C80.6012 41.082 80.6296 41.1521 80.655 41.2233C80.7375 41.4551 80.8067 41.6913 80.8624 41.9306C80.8882 42.0413 80.9089 42.1525 80.9311 42.2639C81.0097 42.6586 80.9197 42.0185 80.9386 42.3117C80.9545 42.5565 80.973 42.7987 80.9686 43.0444C80.9666 43.1569 80.9616 43.2692 80.9536 43.3814C80.9496 43.4374 80.9432 43.4932 80.9394 43.5492C80.9212 43.8189 80.9206 43.4506 80.9592 43.4254C80.8788 43.6544 80.8254 43.8916 80.8002 44.1324C80.7687 44.2393 80.7313 44.3438 80.6962 44.4495C80.5738 44.8183 80.8111 44.2485 80.6807 44.5005C80.5733 44.717 80.4533 44.9274 80.3212 45.1304C80.2639 45.2155 80.0477 45.4076 80.2245 45.2739C80.4163 45.1288 80.1239 45.3786 80.0615 45.4429C79.9814 45.5255 79.8983 45.6052 79.812 45.682C79.7569 45.7346 79.6986 45.7841 79.6375 45.8302C79.6264 45.8247 79.9315 45.6311 79.767 45.7336C79.558 45.8638 79.36 46.0032 79.1397 46.1166C79.1141 46.1298 78.8324 46.2572 78.8336 46.2618C78.8214 46.2154 79.1957 46.133 78.9388 46.2141C78.8848 46.2311 78.8319 46.2517 78.7782 46.2694C78.5443 46.3463 78.3055 46.4085 78.0635 46.4554C78.008 46.4662 77.9494 46.4717 77.8948 46.4855C77.713 46.5314 78.0686 46.4585 78.0793 46.4645C77.9449 46.4589 77.8103 46.4705 77.6789 46.4991C77.4293 46.5131 77.1791 46.5131 76.9294 46.4991C76.8717 46.4958 76.8141 46.4902 76.7563 46.4869C76.6223 46.4793 76.5239 46.385 76.7023 46.4874C76.8399 46.5665 76.8285 46.5088 76.7065 46.4868C76.6495 46.4765 76.5922 46.4678 76.5352 46.4573C76.2881 46.4122 76.0438 46.3537 75.8033 46.2822C75.6739 46.2437 75.5471 46.1989 75.4194 46.1553C75.3638 46.1395 75.3097 46.1192 75.2576 46.0944C75.2568 46.0803 75.5866 46.2484 75.4125 46.1567C75.1927 46.041 74.9654 45.944 74.7508 45.8175C74.6363 45.75 74.5263 45.6767 74.415 45.6044C74.366 45.5756 74.3195 45.543 74.2758 45.507C74.2794 45.4925 74.5485 45.7361 74.4073 45.6046C74.2286 45.4382 74.0375 45.2894 73.8684 45.1123C73.8296 45.0718 73.793 45.0293 73.7545 44.9887L73.7171 44.9471C73.6218 44.8332 73.62 44.8337 73.7118 44.9487C73.8051 44.9755 73.8008 45.0755 73.7124 44.9457C73.6808 44.8994 73.6473 44.8545 73.6159 44.8082C73.473 44.6092 73.3511 44.3967 73.2522 44.1737C73.2608 44.1672 73.4046 44.5873 73.2946 44.2703C73.2738 44.2104 73.2505 44.1515 73.2301 44.0914C73.1897 43.9723 73.1541 43.852 73.1234 43.7302C73.093 43.6096 73.0773 43.4852 73.0467 43.3651C72.995 43.1627 73.0769 43.5248 73.0675 43.5158C73.0382 43.4875 73.0507 43.312 73.0485 43.27C73.0344 43.0003 73.0659 42.7385 73.0708 42.4704C73.0746 42.2627 73.0532 42.6322 73.0488 42.6214C73.0498 42.5592 73.0611 42.4976 73.0822 42.4389C73.114 42.2975 73.1437 42.1562 73.1826 42.0164C73.2273 41.8563 73.2787 41.6982 73.3368 41.542C73.3585 41.4836 73.385 41.426 73.4052 41.3671C73.4793 41.1513 73.2586 41.6278 73.3803 41.4331C73.5477 41.1654 73.6724 40.8756 73.8501 40.6111C73.8922 40.5485 74.1482 40.1993 74.0123 40.3756C73.877 40.5512 74.1514 40.2183 74.2034 40.1618C74.4192 39.927 74.673 39.7343 74.8964 39.5095C75.0287 39.3764 74.8041 39.575 74.7909 39.5843C74.8601 39.536 74.9278 39.4859 74.9979 39.4387C75.12 39.3565 75.2452 39.2787 75.3733 39.2054C75.5176 39.1227 75.6808 39.0612 75.8207 38.9737C75.986 38.8704 75.6943 39.0191 75.6891 39.0222C75.7646 38.9856 75.8435 38.9562 75.9248 38.9344C76.061 38.8872 76.6535 38.6375 76.7778 38.7156C76.7722 38.712 76.3279 38.7505 76.6871 38.728C76.772 38.7226 76.8565 38.7146 76.9415 38.7111C77.1134 38.7042 77.2847 38.7084 77.4565 38.7171C77.9222 38.7141 78.3679 38.5321 78.6972 38.2104C79.0265 37.8887 79.2128 37.4532 79.2159 36.9983C79.2059 36.5455 79.0173 36.1139 78.6895 35.7937C78.3617 35.4734 77.92 35.2892 77.4565 35.2795L77.4564 35.2794Z" fill="#C2C2C2"/>
<path d="M102.088 35.2794C100.56 35.2702 99.0631 35.7005 97.7839 36.5167C96.5047 37.3329 95.4997 38.4989 94.8941 39.8692C94.2167 41.2105 94.0076 42.7316 94.2988 44.1999C94.59 45.6682 95.3654 47.003 96.5065 48.0001C97.5792 48.8917 98.8658 49.503 100.246 49.7769C101.626 50.0509 103.055 49.9784 104.399 49.5664C105.773 49.0975 106.965 48.224 107.81 47.0661C108.655 45.9082 109.112 44.5228 109.118 43.1007C109.179 41.523 108.742 39.9651 107.865 38.6388C106.988 37.3125 105.714 36.2823 104.217 35.6882C103.767 35.5688 103.287 35.628 102.881 35.8528C102.476 36.0777 102.178 36.45 102.052 36.8886C101.942 37.3277 102.007 37.7917 102.236 38.185C102.464 38.5783 102.838 38.871 103.281 39.003C103.588 39.1187 103.001 38.8557 103.288 39.0081C103.405 39.0707 103.525 39.1273 103.641 39.1942C103.739 39.2511 103.833 39.3133 103.929 39.3743C104.257 39.5837 103.768 39.2206 103.978 39.4088C104.16 39.5721 104.341 39.7313 104.506 39.9115C104.569 39.9796 104.814 40.169 104.623 40.0366C104.478 39.9353 104.567 39.9592 104.623 40.0405C104.666 40.1022 104.711 40.1622 104.753 40.2243C104.89 40.4271 105.015 40.6377 105.127 40.855C105.152 40.9052 105.176 40.9567 105.202 41.0067C105.252 41.1004 105.323 41.125 105.207 41.0076C105.096 40.8954 105.167 40.9031 105.207 41.011C105.233 41.082 105.261 41.1521 105.286 41.2233C105.369 41.4551 105.438 41.6913 105.494 41.9306C105.52 42.0413 105.54 42.1525 105.562 42.2639C105.641 42.6586 105.551 42.0185 105.57 42.3117C105.586 42.5565 105.604 42.7987 105.6 43.0444C105.598 43.1569 105.593 43.2692 105.585 43.3814C105.581 43.4374 105.575 43.4932 105.571 43.5492C105.553 43.8189 105.552 43.4506 105.591 43.4254C105.51 43.6544 105.457 43.8916 105.432 44.1324C105.4 44.2393 105.363 44.3438 105.328 44.4495C105.205 44.8183 105.442 44.2485 105.312 44.5005C105.205 44.717 105.085 44.9274 104.953 45.1304C104.895 45.2155 104.679 45.4076 104.856 45.2739C105.048 45.1288 104.755 45.3786 104.693 45.4429C104.613 45.5255 104.53 45.6052 104.443 45.682C104.388 45.7346 104.33 45.7841 104.269 45.8302C104.258 45.8247 104.563 45.6311 104.398 45.7336C104.189 45.8638 103.991 46.0032 103.771 46.1166C103.745 46.1298 103.464 46.2572 103.465 46.2618C103.453 46.2154 103.827 46.133 103.57 46.2141C103.516 46.2311 103.463 46.2517 103.41 46.2694C103.176 46.3463 102.937 46.4085 102.695 46.4554C102.639 46.4662 102.581 46.4717 102.526 46.4855C102.344 46.5314 102.7 46.4585 102.711 46.4645C102.576 46.4589 102.442 46.4705 102.31 46.4991C102.061 46.5131 101.81 46.5131 101.561 46.4991C101.503 46.4958 101.445 46.4902 101.388 46.4869C101.254 46.4793 101.155 46.385 101.334 46.4874C101.471 46.5665 101.46 46.5088 101.338 46.4868C101.281 46.4765 101.224 46.4678 101.167 46.4573C100.919 46.4122 100.675 46.3537 100.435 46.2822C100.305 46.2437 100.178 46.1989 100.051 46.1553C99.9952 46.1395 99.941 46.1192 99.8889 46.0944C99.8882 46.0803 100.218 46.2484 100.044 46.1567C99.8241 46.041 99.5968 45.944 99.3822 45.8175C99.2677 45.75 99.1577 45.6767 99.0463 45.6044C98.9974 45.5756 98.9508 45.543 98.9071 45.507C98.9108 45.4925 99.1799 45.7361 99.0386 45.6046C98.86 45.4382 98.6689 45.2894 98.4997 45.1123C98.461 45.0718 98.4244 45.0293 98.3858 44.9887L98.3485 44.9471C98.2531 44.8332 98.2514 44.8337 98.3432 44.9487C98.4364 44.9755 98.4322 45.0755 98.3437 44.9457C98.3122 44.8994 98.2787 44.8545 98.2472 44.8082C98.1043 44.6092 97.9825 44.3967 97.8835 44.1737C97.8921 44.1672 98.036 44.5873 97.926 44.2703C97.9052 44.2104 97.8818 44.1515 97.8615 44.0914C97.821 43.9723 97.7854 43.852 97.7547 43.7302C97.7243 43.6096 97.7087 43.4852 97.678 43.3651C97.6263 43.1627 97.7082 43.5248 97.6989 43.5158C97.6696 43.4875 97.682 43.312 97.6799 43.27C97.6658 43.0003 97.6972 42.7385 97.7021 42.4704C97.706 42.2627 97.6846 42.6322 97.6801 42.6214C97.6812 42.5592 97.6925 42.4976 97.7135 42.4389C97.7454 42.2975 97.775 42.1562 97.814 42.0164C97.8586 41.8563 97.91 41.6982 97.9682 41.542C97.9899 41.4836 98.0164 41.426 98.0366 41.3671C98.1106 41.1513 97.89 41.6278 98.0116 41.4331C98.179 41.1654 98.3037 40.8756 98.4814 40.6111C98.5235 40.5485 98.7796 40.1993 98.6437 40.3756C98.5083 40.5512 98.7828 40.2183 98.8347 40.1618C99.0505 39.927 99.3043 39.7343 99.5278 39.5095C99.66 39.3764 99.4354 39.575 99.4222 39.5843C99.4914 39.536 99.5592 39.4859 99.6292 39.4387C99.7514 39.3565 99.8765 39.2787 100.005 39.2054C100.149 39.1227 100.312 39.0612 100.452 38.9737C100.617 38.8704 100.326 39.0191 100.32 39.0222C100.396 38.9856 100.475 38.9562 100.556 38.9344C100.692 38.8872 101.285 38.6375 101.409 38.7156C101.404 38.712 100.959 38.7505 101.318 38.728C101.403 38.7226 101.488 38.7146 101.573 38.7111C101.745 38.7042 101.916 38.7084 102.088 38.7171C102.554 38.7141 102.999 38.5321 103.329 38.2104C103.658 37.8887 103.844 37.4532 103.847 36.9983C103.837 36.5455 103.649 36.1139 103.321 35.7937C102.993 35.4734 102.551 35.2892 102.088 35.2795L102.088 35.2794Z" fill="#C2C2C2"/>
<path d="M457.918 415.948H26.3975C20.9408 415.943 15.7094 413.822 11.8509 410.053C7.99246 406.284 5.82206 401.173 5.81592 395.842V20.1069C5.82204 14.776 7.9924 9.66525 11.8509 5.89577C15.7093 2.12629 20.9408 0.00597778 26.3975 0H457.918C463.375 0.00597778 468.606 2.12629 472.465 5.89577C476.323 9.66525 478.493 14.776 478.5 20.1069V395.842C478.493 401.173 476.323 406.284 472.465 410.053C468.606 413.822 463.375 415.943 457.918 415.948ZM26.3975 2.29173C21.5627 2.2971 16.9276 4.17578 13.5089 7.5156C10.0903 10.8554 8.16724 15.3837 8.16174 20.1069V395.842C8.16737 400.565 10.0905 405.093 13.5091 408.433C16.9278 411.773 21.5628 413.651 26.3975 413.657H457.918C462.753 413.651 467.388 411.773 470.806 408.433C474.225 405.093 476.148 400.565 476.154 395.842V20.1069C476.148 15.3837 474.225 10.8554 470.807 7.5156C467.388 4.17578 462.753 2.2971 457.918 2.29173H26.3975Z" fill="#C2C2C2"/>
<path d="M25.6824 255.649L177.433 255.198L328.409 254.749L413.575 254.496C414.031 254.481 414.463 254.293 414.78 253.972C415.097 253.652 415.275 253.223 415.275 252.777C415.275 252.332 415.097 251.903 414.78 251.583C414.463 251.262 414.031 251.074 413.575 251.059L261.825 251.51L110.848 251.958L25.6824 252.211C25.2263 252.227 24.7942 252.415 24.4772 252.735C24.1601 253.056 23.9829 253.484 23.9829 253.93C23.9829 254.376 24.1601 254.804 24.4772 255.125C24.7942 255.446 25.2263 255.633 25.6824 255.649Z" fill="#C2C2C2"/>
<path d="M102.238 252.862L103.177 198.735C103.215 196.522 99.6963 196.521 99.6579 198.735L98.7195 252.862C98.6812 255.075 102.2 255.075 102.238 252.862Z" fill="#C2C2C2"/>
<path d="M174.765 253.448L177.052 185.413L177.706 165.974C177.78 163.761 174.261 163.764 174.187 165.974L171.9 234.009L171.247 253.448C171.172 255.66 174.691 255.658 174.765 253.448Z" fill="#C2C2C2"/>
<path d="M247.097 133.724C245.718 157.821 243.166 228.899 241.787 252.996C241.66 255.207 245.179 255.2 245.305 252.996C246.685 228.899 249.237 157.821 250.616 133.724C250.742 131.513 247.223 131.52 247.097 133.724Z" fill="#C2C2C2"/>
<path d="M319.081 228.816L318.649 251.978C318.608 254.191 322.127 254.191 322.168 251.978C322.677 224.622 323.984 225.514 324.128 217.794C324.169 215.581 320.65 215.581 320.609 217.794C320.609 217.794 319.59 201.461 319.081 228.816Z" fill="#C2C2C2"/>
<path d="M389.587 167.97L389.985 232.951L390.099 251.557C390.115 252.003 390.307 252.425 390.635 252.735C390.963 253.045 391.402 253.218 391.858 253.218C392.315 253.218 392.753 253.045 393.081 252.735C393.409 252.425 393.602 252.003 393.618 251.557L393.22 186.577L393.106 167.97C393.09 167.525 392.898 167.103 392.569 166.793C392.241 166.483 391.803 166.31 391.346 166.31C390.89 166.31 390.451 166.483 390.123 166.793C389.795 167.103 389.603 167.525 389.587 167.97Z" fill="#C2C2C2"/>
<path d="M25.9653 253.715C23.0527 245.896 29.6184 238.375 36.3647 234.996C44.4473 230.947 53.7452 230.029 61.9134 226.126C74.091 220.308 82.9606 209.865 90.853 199.412C98.9764 188.653 106.409 177.106 116.731 168.167C122.17 163.351 128.595 159.719 135.578 157.511C144.378 154.828 153.71 154.644 162.803 155.726C181.591 157.96 199.008 165.541 217.137 170.359C234.228 174.902 253.06 177.457 269.836 170.392C278.36 166.803 285.33 160.784 292.816 155.575C300.061 150.48 308.162 146.663 316.753 144.294C333.594 139.719 351.985 140.941 367.664 148.675C382.076 155.692 393.487 167.458 399.883 181.896C407.316 199.243 406.349 218.627 403.921 236.886C403.293 241.605 402.546 246.309 401.791 251.01C401.443 253.175 404.834 254.107 405.184 251.924C408.208 233.097 411.222 213.673 407.46 194.727C404.207 178.184 394.896 163.366 381.268 153.045C367.582 142.696 350.569 137.45 333.282 138.25C324.223 138.661 315.305 140.598 306.922 143.977C298.22 147.494 290.851 152.706 283.366 158.19C275.67 163.829 267.737 168.493 258.182 170.332C248.914 172.116 239.273 171.448 230.046 169.763C211.007 166.288 193.26 158.322 174.383 154.24C156.893 150.458 138.019 150.08 122.358 159.733C110.31 167.158 101.797 178.686 93.6274 189.817C85.5291 200.85 77.3285 212.648 65.4868 220.185C58.2631 224.783 50.1429 226.479 42.0621 229.065C33.9605 231.657 26.1828 236.03 22.8794 244.139C21.4557 247.479 21.3463 251.215 22.5723 254.629C23.3405 256.691 26.7423 255.801 25.9653 253.715V253.715Z" fill="#C2C2C2"/>
<path d="M101.071 191.25L101.066 191.253L101.075 191.25H101.071Z" fill="#C2C2C2"/>
<path d="M107.172 188.089C106.359 186.682 105.061 185.602 103.51 185.041C101.959 184.48 100.255 184.475 98.6998 185.025C97.9269 185.301 97.2184 185.725 96.6162 186.273C96.014 186.821 95.5304 187.481 95.1939 188.214C95.1266 188.37 95.0872 188.534 95.0322 188.694C94.956 188.814 94.8643 188.923 94.796 189.049C94.0668 190.469 93.8671 192.092 94.2314 193.641C94.5957 195.189 95.5011 196.564 96.7918 197.53C98.0825 198.496 99.6777 198.992 101.302 198.933C102.927 198.874 104.48 198.263 105.693 197.205C106.969 196.079 107.811 194.56 108.08 192.902C108.349 191.243 108.028 189.545 107.172 188.089ZM102.765 191.008C102.779 191.095 102.774 191.174 102.765 191.008V191.008ZM102.317 190.013C102.3 189.993 102.302 189.995 102.317 190.013V190.013ZM100.343 190.788C100.316 190.749 100.314 190.742 100.343 190.788V190.788ZM100.811 191.176C100.922 191.213 100.878 191.205 100.811 191.176V191.176ZM101.02 191.273L101.066 191.252C101.055 191.253 101.043 191.251 101.033 191.246L101.035 191.246L101.071 191.25L101.078 191.247L101.057 191.243C101.075 191.242 101.077 191.244 101.078 191.247C101.287 191.153 101.146 191.199 101.024 191.235L101.016 191.233C100.94 191.196 100.859 191.17 100.775 191.158C100.767 191.154 100.758 191.15 100.752 191.146C100.684 191.099 100.344 190.839 100.66 191.112C100.591 191.052 100.523 190.994 100.458 190.93C100.42 190.892 100.386 190.85 100.355 190.806C100.314 190.737 100.273 190.667 100.234 190.596L100.229 190.558C100.223 190.526 100.22 190.513 100.215 190.494C100.217 190.474 100.221 190.453 100.224 190.433C100.247 190.371 100.262 190.306 100.268 190.241L100.282 190.224C100.333 190.155 100.377 190.075 100.425 190.003C100.17 190.381 100.525 189.961 100.551 189.908C100.556 189.899 100.548 189.904 100.55 189.898C100.56 189.892 100.557 189.896 100.569 189.889C100.648 189.843 100.723 189.793 100.804 189.749C100.899 189.697 101.276 189.593 100.885 189.702C100.974 189.677 101.059 189.646 101.149 189.623C101.165 189.619 101.296 189.601 101.367 189.589C101.429 189.587 101.49 189.585 101.496 189.585C101.525 189.586 101.554 189.589 101.584 189.59C101.519 189.599 101.806 189.659 101.891 189.672C101.904 189.682 101.91 189.688 101.927 189.7C101.999 189.751 102.086 189.797 102.162 189.845C101.822 189.63 102.167 189.862 102.232 189.926C102.271 189.964 102.307 190.004 102.343 190.044C102.377 190.082 102.407 190.123 102.434 190.165C102.49 190.265 102.549 190.366 102.608 190.465L102.624 190.49C102.623 190.493 102.623 190.496 102.623 190.5C102.654 190.659 102.699 190.815 102.758 190.967C102.761 190.98 102.763 190.993 102.765 191.006C102.77 191.093 102.778 191.18 102.778 191.268L102.777 191.285C102.506 191.147 102.205 191.074 101.9 191.072C101.594 191.07 101.293 191.139 101.02 191.273H101.02Z" fill="#C2C2C2"/>
<path d="M101.082 191.248C101.086 191.249 101.082 191.249 101.081 191.25L101.082 191.248Z" fill="#C2C2C2"/>
<path d="M101.081 191.248L101.082 191.248L101.081 191.248Z" fill="#C2C2C2"/>
<path d="M101.08 191.25L101.076 191.251C101.081 191.251 101.079 191.25 101.08 191.25Z" fill="#C2C2C2"/>
<path d="M101.078 191.247L101.08 191.248L101.078 191.247Z" fill="#C2C2C2"/>
<path d="M176.137 159.166L176.133 159.168L176.142 159.166H176.137Z" fill="#C2C2C2"/>
<path d="M182.238 156.004C181.425 154.597 180.128 153.517 178.577 152.956C177.025 152.396 175.321 152.39 173.766 152.941C172.993 153.216 172.285 153.641 171.683 154.188C171.08 154.736 170.597 155.396 170.26 156.13C170.193 156.286 170.154 156.45 170.099 156.609C170.022 156.73 169.931 156.839 169.862 156.965C169.133 158.384 168.933 160.008 169.298 161.556C169.662 163.104 170.568 164.48 171.858 165.446C173.149 166.412 174.744 166.908 176.369 166.848C177.994 166.789 179.546 166.178 180.76 165.121C182.035 163.995 182.877 162.476 183.146 160.817C183.415 159.159 183.095 157.46 182.238 156.004ZM177.831 158.923C177.846 159.01 177.841 159.09 177.831 158.923V158.923ZM177.383 157.928C177.366 157.909 177.368 157.911 177.383 157.928V157.928ZM175.409 158.704C175.383 158.664 175.38 158.657 175.409 158.704V158.704ZM175.877 159.091C175.988 159.128 175.944 159.121 175.877 159.091V159.091ZM176.086 159.189L176.132 159.168C176.121 159.169 176.11 159.167 176.099 159.162L176.101 159.161L176.137 159.166L176.144 159.163L176.123 159.158C176.141 159.157 176.143 159.16 176.144 159.163C176.354 159.069 176.212 159.114 176.091 159.151L176.083 159.149C176.007 159.111 175.925 159.086 175.841 159.073C175.834 159.069 175.824 159.066 175.818 159.061C175.751 159.015 175.41 158.755 175.726 159.027C175.657 158.968 175.589 158.91 175.525 158.846C175.486 158.807 175.452 158.766 175.421 158.722C175.38 158.652 175.34 158.582 175.301 158.511L175.295 158.473C175.29 158.442 175.286 158.429 175.282 158.41C175.284 158.39 175.287 158.369 175.29 158.348C175.314 158.286 175.329 158.222 175.335 158.156L175.348 158.139C175.399 158.07 175.443 157.99 175.491 157.918C175.236 158.297 175.591 157.877 175.618 157.824C175.622 157.814 175.614 157.819 175.616 157.813C175.626 157.807 175.623 157.811 175.636 157.804C175.715 157.759 175.79 157.708 175.87 157.665C175.965 157.613 176.342 157.508 175.951 157.617C176.04 157.593 176.125 157.561 176.215 157.539C176.231 157.534 176.363 157.516 176.433 157.504C176.496 157.502 176.556 157.501 176.562 157.501C176.591 157.501 176.621 157.505 176.65 157.506C176.585 157.514 176.872 157.575 176.958 157.588C176.97 157.597 176.976 157.603 176.993 157.615C177.065 157.667 177.153 157.712 177.229 157.76C176.889 157.546 177.233 157.778 177.298 157.841C177.337 157.879 177.373 157.92 177.409 157.959C177.443 157.997 177.473 158.038 177.5 158.081C177.556 158.181 177.615 158.282 177.674 158.38L177.69 158.405C177.69 158.409 177.69 158.412 177.69 158.415C177.72 158.574 177.765 158.731 177.824 158.882C177.827 158.895 177.829 158.908 177.831 158.921C177.836 159.008 177.844 159.095 177.844 159.183L177.843 159.201C177.572 159.063 177.272 158.99 176.966 158.988C176.661 158.986 176.359 159.054 176.086 159.189Z" fill="#C2C2C2"/>
<path d="M176.147 159.166L176.142 159.166C176.148 159.167 176.146 159.166 176.147 159.166Z" fill="#C2C2C2"/>
<path d="M176.145 159.163L176.147 159.164L176.145 159.163Z" fill="#C2C2C2"/>
<path d="M176.148 159.164C176.153 159.165 176.148 159.165 176.147 159.166L176.148 159.164Z" fill="#C2C2C2"/>
<path d="M176.147 159.164L176.148 159.164L176.147 159.164Z" fill="#C2C2C2"/>
<path d="M248.865 175.205L248.867 175.206L248.865 175.205Z" fill="#C2C2C2"/>
<path d="M254.959 123.92C254.146 122.513 252.848 121.433 251.297 120.872C249.746 120.312 248.042 120.306 246.487 120.857C245.714 121.132 245.006 121.557 244.403 122.104C243.801 122.652 243.318 123.312 242.981 124.046C242.914 124.202 242.874 124.366 242.819 124.525C242.743 124.646 242.651 124.755 242.583 124.881C241.854 126.3 241.654 127.924 242.018 129.472C242.383 131.02 243.288 132.396 244.579 133.362C245.87 134.328 247.465 134.824 249.09 134.764C250.714 134.705 252.267 134.094 253.48 133.037C254.756 131.911 255.598 130.392 255.867 128.733C256.136 127.075 255.815 125.376 254.959 123.92ZM250.552 126.839C250.567 126.926 250.561 127.006 250.552 126.839V126.839ZM250.104 125.844C250.087 125.825 250.089 125.827 250.104 125.844V125.844ZM248.13 126.62C248.103 126.58 248.101 126.573 248.13 126.62V126.62ZM248.598 127.007C248.709 127.044 248.665 127.037 248.598 127.007V127.007ZM248.807 127.105L248.853 127.084C248.842 127.085 248.83 127.083 248.82 127.078L248.822 127.077L248.858 127.082L248.865 127.079L248.844 127.074C248.862 127.073 248.864 127.076 248.865 127.079C249.074 126.985 248.933 127.03 248.811 127.067L248.803 127.065C248.727 127.027 248.646 127.002 248.562 126.989C248.554 126.985 248.545 126.982 248.539 126.977C248.471 126.931 248.131 126.671 248.447 126.943C248.378 126.884 248.31 126.826 248.245 126.762C248.207 126.723 248.173 126.682 248.142 126.638C248.101 126.568 248.06 126.498 248.021 126.427L248.016 126.389C248.011 126.358 248.007 126.345 248.002 126.326C248.004 126.306 248.008 126.285 248.011 126.264C248.034 126.202 248.049 126.138 248.055 126.072L248.069 126.055C248.12 125.986 248.164 125.906 248.212 125.834C247.957 126.213 248.312 125.793 248.338 125.74C248.343 125.73 248.335 125.735 248.337 125.729C248.347 125.723 248.344 125.727 248.356 125.72C248.435 125.675 248.51 125.624 248.591 125.581C248.686 125.529 249.063 125.424 248.672 125.533C248.761 125.509 248.846 125.477 248.936 125.455C248.952 125.45 249.083 125.432 249.154 125.42C249.216 125.419 249.277 125.417 249.283 125.417C249.312 125.417 249.341 125.421 249.371 125.422C249.306 125.43 249.593 125.491 249.678 125.504C249.691 125.513 249.697 125.519 249.714 125.531C249.786 125.583 249.873 125.628 249.949 125.677C249.609 125.462 249.954 125.694 250.019 125.757C250.058 125.795 250.094 125.836 250.13 125.875C250.164 125.914 250.194 125.954 250.221 125.997C250.277 126.097 250.336 126.198 250.395 126.296L250.411 126.321C250.41 126.325 250.41 126.328 250.41 126.331C250.441 126.49 250.486 126.647 250.545 126.798C250.548 126.811 250.55 126.824 250.552 126.837C250.557 126.924 250.565 127.011 250.565 127.099L250.564 127.117C250.293 126.979 249.992 126.906 249.687 126.904C249.381 126.902 249.08 126.971 248.807 127.105Z" fill="#C2C2C2"/>
<path d="M248.858 175.208L248.854 175.21L248.863 175.208H248.858Z" fill="#C2C2C2"/>
<path d="M248.868 175.206L248.869 175.206L248.868 175.206Z" fill="#C2C2C2"/>
<path d="M248.867 175.208L248.863 175.209C248.869 175.209 248.866 175.208 248.867 175.208Z" fill="#C2C2C2"/>
<path d="M248.869 175.206C248.873 175.207 248.869 175.207 248.868 175.208L248.869 175.206Z" fill="#C2C2C2"/>
<path d="M328.853 212.151C328.039 210.745 326.742 209.665 325.191 209.104C323.64 208.543 321.935 208.538 320.381 209.088C319.608 209.364 318.899 209.788 318.297 210.336C317.695 210.884 317.211 211.544 316.875 212.277C316.807 212.433 316.768 212.597 316.713 212.757C316.637 212.877 316.545 212.986 316.477 213.112C315.747 214.532 315.548 216.155 315.912 217.704C316.276 219.252 317.182 220.627 318.472 221.593C319.763 222.559 321.358 223.055 322.983 222.996C324.608 222.937 326.161 222.326 327.374 221.268C328.649 220.142 329.491 218.623 329.76 216.965C330.029 215.306 329.709 213.608 328.853 212.151ZM324.446 215.071C324.46 215.157 324.455 215.237 324.446 215.071V215.071ZM323.998 214.076C323.98 214.056 323.983 214.058 323.998 214.076V214.076ZM322.023 214.851C321.997 214.812 321.994 214.805 322.023 214.851V214.851ZM322.491 215.239C322.603 215.276 322.559 215.268 322.491 215.239V215.239ZM322.7 215.336L322.747 215.315C322.735 215.316 322.724 215.314 322.714 215.309L322.715 215.309L322.751 215.313L322.758 215.31L322.737 215.305C322.755 215.305 322.757 215.307 322.759 215.31C322.968 215.216 322.826 215.261 322.705 215.298L322.697 215.296C322.621 215.259 322.54 215.233 322.456 215.221C322.448 215.216 322.439 215.213 322.432 215.209C322.365 215.162 322.024 214.902 322.34 215.175C322.271 215.115 322.203 215.057 322.139 214.993C322.101 214.955 322.066 214.913 322.036 214.869C321.994 214.8 321.954 214.73 321.915 214.659L321.909 214.621C321.904 214.589 321.9 214.576 321.896 214.557C321.898 214.537 321.901 214.516 321.904 214.496C321.928 214.434 321.943 214.369 321.949 214.304L321.963 214.287C322.013 214.218 322.057 214.138 322.106 214.066C321.851 214.444 322.205 214.024 322.232 213.971C322.236 213.962 322.228 213.967 322.23 213.961C322.241 213.955 322.238 213.959 322.25 213.952C322.329 213.906 322.404 213.855 322.484 213.812C322.58 213.76 322.956 213.656 322.566 213.765C322.654 213.74 322.74 213.709 322.829 213.686C322.845 213.682 322.977 213.664 323.048 213.651C323.11 213.65 323.17 213.648 323.177 213.648C323.206 213.649 323.235 213.652 323.264 213.653C323.199 213.662 323.487 213.722 323.572 213.735C323.584 213.745 323.59 213.751 323.607 213.763C323.679 213.814 323.767 213.86 323.843 213.908C323.503 213.693 323.847 213.925 323.912 213.989C323.951 214.026 323.987 214.067 324.024 214.107C324.057 214.145 324.088 214.186 324.114 214.228C324.17 214.328 324.229 214.429 324.288 214.528L324.304 214.553C324.304 214.556 324.304 214.559 324.304 214.563C324.334 214.722 324.38 214.878 324.439 215.03C324.441 215.043 324.444 215.056 324.445 215.069C324.451 215.156 324.458 215.243 324.458 215.331L324.458 215.348C324.187 215.21 323.886 215.137 323.58 215.135C323.275 215.133 322.973 215.202 322.7 215.336Z" fill="#C2C2C2"/>
<path d="M322.751 139.687L322.747 139.689L322.756 139.687H322.751Z" fill="#C2C2C2"/>
<path d="M322.761 139.684L322.762 139.684L322.761 139.684Z" fill="#C2C2C2"/>
<path d="M322.76 139.686L322.756 139.687C322.762 139.687 322.76 139.686 322.76 139.686Z" fill="#C2C2C2"/>
<path d="M322.762 139.685C322.766 139.686 322.762 139.686 322.761 139.686L322.762 139.685Z" fill="#C2C2C2"/>
<path d="M322.758 139.683L322.76 139.684L322.758 139.683Z" fill="#C2C2C2"/>
<path d="M391.963 162.601L391.964 162.601L391.963 162.601Z" fill="#C2C2C2"/>
<path d="M398.054 159.442C397.241 158.035 395.944 156.955 394.392 156.394C392.841 155.833 391.137 155.828 389.582 156.378C388.809 156.654 388.101 157.078 387.499 157.626C386.896 158.174 386.413 158.834 386.076 159.567C386.009 159.723 385.969 159.887 385.915 160.047C385.838 160.167 385.747 160.276 385.678 160.402C384.949 161.822 384.749 163.446 385.114 164.994C385.478 166.542 386.383 167.917 387.674 168.883C388.965 169.849 390.56 170.345 392.185 170.286C393.81 170.227 395.362 169.616 396.576 168.558C397.851 167.432 398.693 165.913 398.962 164.255C399.231 162.596 398.911 160.898 398.054 159.442ZM393.647 162.361C393.662 162.448 393.656 162.527 393.647 162.361V162.361ZM393.199 161.366C393.182 161.346 393.184 161.348 393.199 161.366V161.366ZM391.225 162.141C391.199 162.102 391.196 162.095 391.225 162.141V162.141ZM391.693 162.529C391.804 162.566 391.76 162.558 391.693 162.529V162.529ZM391.902 162.626L391.948 162.605C391.937 162.606 391.925 162.604 391.915 162.599L391.917 162.599L391.953 162.603L391.96 162.6L391.939 162.596C391.957 162.595 391.959 162.597 391.96 162.6C392.17 162.506 392.028 162.552 391.907 162.588L391.898 162.586C391.823 162.549 391.741 162.523 391.657 162.511C391.649 162.507 391.64 162.503 391.634 162.499C391.566 162.452 391.226 162.192 391.542 162.465C391.473 162.405 391.405 162.347 391.34 162.283C391.302 162.245 391.268 162.203 391.237 162.159C391.196 162.09 391.156 162.02 391.117 161.949L391.111 161.911C391.106 161.879 391.102 161.866 391.098 161.847C391.1 161.827 391.103 161.806 391.106 161.786C391.13 161.724 391.145 161.659 391.151 161.594L391.164 161.577C391.215 161.508 391.259 161.428 391.307 161.356C391.052 161.734 391.407 161.314 391.433 161.261C391.438 161.252 391.43 161.257 391.432 161.251C391.442 161.245 391.439 161.249 391.452 161.242C391.531 161.196 391.606 161.146 391.686 161.102C391.781 161.05 392.158 160.946 391.767 161.055C391.856 161.03 391.941 160.999 392.031 160.976C392.047 160.972 392.179 160.954 392.249 160.942C392.311 160.94 392.372 160.938 392.378 160.938C392.407 160.939 392.437 160.942 392.466 160.943C392.401 160.952 392.688 161.012 392.773 161.025C392.786 161.035 392.792 161.041 392.809 161.053C392.881 161.104 392.969 161.15 393.045 161.198C392.704 160.983 393.049 161.215 393.114 161.279C393.153 161.317 393.189 161.357 393.225 161.397C393.259 161.435 393.289 161.476 393.316 161.518C393.372 161.618 393.431 161.719 393.49 161.818L393.506 161.843C393.506 161.846 393.505 161.849 393.506 161.853C393.536 162.012 393.581 162.168 393.64 162.32C393.643 162.333 393.645 162.346 393.647 162.359C393.652 162.446 393.66 162.533 393.66 162.621L393.659 162.638C393.388 162.5 393.088 162.427 392.782 162.425C392.477 162.423 392.175 162.492 391.902 162.626Z" fill="#C2C2C2"/>
<path d="M391.953 162.604L391.949 162.606L391.958 162.604H391.953Z" fill="#C2C2C2"/>
<path d="M391.96 162.6L391.962 162.601L391.96 162.6Z" fill="#C2C2C2"/>
<path d="M391.964 162.602C391.969 162.603 391.964 162.603 391.963 162.603L391.964 162.602Z" fill="#C2C2C2"/>
<path d="M391.963 162.604L391.958 162.604C391.964 162.605 391.962 162.604 391.963 162.604Z" fill="#C2C2C2"/>
<path d="M372.99 215.117L318.453 218.078C318.146 218.095 317.844 217.996 317.609 217.801C317.374 217.606 317.224 217.331 317.191 217.032C317.158 216.733 317.243 216.433 317.43 216.194C317.616 215.954 317.889 215.794 318.193 215.746L373.936 206.884L372.99 215.117Z" fill="#3F3D56"/>
<path d="M442.298 333.732L462.849 299.954L478.039 306.963C478.039 306.963 451.865 338.9 451.031 339.819C451.388 341.371 451.255 342.993 450.648 344.469C450.041 345.946 448.99 347.207 447.633 348.087C446.276 348.967 444.678 349.424 443.049 349.397C441.421 349.371 439.839 348.862 438.513 347.938C437.188 347.014 436.18 345.718 435.624 344.223C435.069 342.727 434.991 341.102 435.401 339.562C435.811 338.023 436.69 336.641 437.922 335.6C439.153 334.559 440.679 333.907 442.298 333.732Z" fill="#FFB6B6"/>
<path d="M450.847 255.268L484.143 272.239C486.224 273.704 487.969 275.576 489.267 277.737C490.564 279.898 491.387 282.3 491.68 284.789C491.974 287.278 491.733 289.799 490.972 292.192C490.212 294.584 488.948 296.796 487.263 298.684L464.309 324.408L454.309 311.17L462.017 295.426L447.093 291.582L450.847 255.268Z" fill="#FECE2F"/>
<path d="M355.962 215.668L352.212 254.792L335.413 254.819C335.413 254.819 345.051 215.005 345.401 213.826C344.398 212.573 343.807 211.052 343.708 209.464C343.608 207.876 344.005 206.295 344.845 204.932C345.684 203.569 346.928 202.487 348.411 201.829C349.894 201.172 351.546 200.969 353.149 201.249C354.753 201.529 356.231 202.277 357.389 203.396C358.548 204.515 359.331 205.95 359.636 207.513C359.941 209.076 359.753 210.693 359.097 212.149C358.441 213.605 357.348 214.832 355.962 215.669V215.668Z" fill="#FFB6B6"/>
<path d="M389.401 295.675L350.736 288.748C334.455 286.835 327.773 276.369 330.711 266.161L340.165 233.309L355.007 241.082L354.95 258.534L375.726 255.759L389.401 295.675Z" fill="#FECE2F"/>
<path d="M373.574 566.047H362.942L357.885 525.986H373.576L373.574 566.047Z" fill="#FFB6B6"/>
<path d="M373.948 576.883L341.255 576.881V576.478C341.256 573.181 342.596 570.019 344.983 567.687C347.369 565.356 350.606 564.046 353.98 564.046H353.981L359.953 559.62L371.095 564.047L373.949 564.047L373.948 576.883Z" fill="#252229"/>
<path d="M448.798 566.047H459.43L464.487 525.986H448.796L448.798 566.047Z" fill="#FFB6B6"/>
<path d="M448.424 576.883L481.117 576.881V576.478C481.117 573.181 479.776 570.019 477.39 567.687C475.003 565.356 471.767 564.046 468.392 564.046H468.391L462.419 559.62L451.277 564.047L448.423 564.047L448.424 576.883Z" fill="#252229"/>
<path d="M357.417 496.546C357.574 494.26 358.823 481.618 358.823 481.618L361.813 454.808L367.083 383.739L371.781 365.059L395.035 373.909L413.904 365.072L436.331 372.076L453.794 378.474C453.794 378.474 453.824 381.212 453.959 384.521C454.138 388.852 454.452 394.161 455.199 395.541C456.448 397.981 456.134 411.076 456.134 411.076C456.134 411.076 457.375 437.718 458.937 440.639C460.5 443.561 460.814 449.644 460.343 450.864C459.872 452.084 461.905 484.079 461.905 484.079C461.905 484.079 467.124 540.7 463.85 549.237C460.575 557.775 448.202 552.183 448.202 552.183C448.202 552.183 448.8 549.904 445.212 548.83C441.624 547.757 430.694 467.472 430.694 467.472C430.694 467.472 428.661 451.01 426.792 446.292C424.923 441.574 423.204 428.319 423.204 428.319C423.204 428.319 411.661 406.379 411.511 401.501C411.511 401.501 410.001 396.936 408.574 401.961C407.146 406.986 402.937 419.022 402.937 419.022L398.833 433.803L394.003 455.888L390.879 474.483C390.879 474.483 386.199 499.16 385.451 500.227C384.704 501.293 385.451 523.838 385.451 523.838C385.451 523.838 381.833 543.039 376.72 546.391C371.606 549.743 358.059 546.444 358.059 546.444C358.059 546.444 357.26 498.832 357.417 496.546Z" fill="#252229"/>
<path d="M374.8 304.951L371.829 342.556L367.365 347.07C366.962 347.477 366.648 347.959 366.441 348.487C366.234 349.016 366.138 349.58 366.159 350.145C366.18 350.711 366.317 351.266 366.563 351.779C366.809 352.291 367.159 352.75 367.59 353.127L365.131 357.247L364.26 370.23C364.012 371.24 363.995 372.291 364.21 373.309C364.426 374.326 364.869 375.284 365.507 376.115C366.146 376.946 366.964 377.629 367.904 378.115C368.844 378.601 369.882 378.878 370.944 378.927L447.925 382.46C448.981 382.509 450.036 382.33 451.014 381.937C451.991 381.543 452.869 380.945 453.584 380.184C454.3 379.423 454.835 378.518 455.153 377.533C455.471 376.548 455.564 375.506 455.424 374.482L448.878 326.34V322.74L445.948 315.788L447.454 292.5L450.958 255.536L430.593 250.397L419.551 242.975L400.369 243.273L388.729 252.612L373.21 254.987L361.473 257.266L359.978 260.44L362.968 259.806L373.806 301.104L374.8 304.951Z" fill="#FECE2F"/>
<path d="M409.531 237.936C422.012 237.936 432.129 228.052 432.129 215.86C432.129 203.668 422.012 193.784 409.531 193.784C397.051 193.784 386.934 203.668 386.934 215.86C386.934 228.052 397.051 237.936 409.531 237.936Z" fill="#FFB6B6"/>
<path d="M404.083 236.512L420.41 235.699C422.502 235.594 424.785 235.414 426.306 234.007C427.125 233.139 427.755 232.117 428.157 231.004C429.666 227.579 431.176 224.153 432.647 220.712C434.681 215.952 436.679 210.927 436.16 205.794C436.038 203.449 435.032 201.232 433.335 199.571C432.469 198.77 431.356 198.272 430.17 198.154C428.984 198.037 427.791 198.307 426.778 198.921C426.527 197.298 425.901 195.751 424.947 194.399C423.994 193.047 422.738 191.924 421.275 191.115C418.321 189.521 414.947 188.822 411.584 189.108C406.705 189.415 402.046 191.209 398.264 194.237C397.201 195.195 396.065 196.075 394.866 196.867C394.264 197.261 393.585 197.531 392.872 197.66C392.159 197.788 391.426 197.774 390.719 197.617C390.019 197.434 389.41 197.01 389.005 196.422C388.6 195.835 388.426 195.124 388.516 194.421C387.366 195.261 386.578 196.489 386.305 197.866C386.031 199.243 386.293 200.67 387.039 201.869C386.191 202.216 385.266 202.343 384.354 202.237C383.441 202.132 382.572 201.797 381.831 201.267C381.037 201.652 380.334 202.195 379.766 202.861C379.199 203.526 378.781 204.3 378.538 205.133C378.295 205.966 378.233 206.84 378.355 207.697C378.477 208.555 378.782 209.379 379.249 210.115C379.716 210.851 380.335 211.484 381.066 211.973C381.798 212.462 382.626 212.796 383.498 212.954C384.37 213.113 385.266 213.091 386.128 212.892C386.991 212.692 387.801 212.319 388.508 211.795C389.499 213.151 389.13 214.994 389.001 216.655C388.872 218.316 389.328 220.381 390.967 220.84C393.183 221.461 394.978 218.546 397.283 218.577C397.852 218.622 398.4 218.803 398.88 219.105C399.359 219.407 399.755 219.82 400.032 220.307C400.576 221.286 400.948 222.347 401.133 223.446L404.083 236.422" fill="#252229"/>
<path d="M1040.67 435.012C1040.67 431.593 1039.5 428.819 1038.06 428.813H644.727C643.278 428.819 642.109 431.593 642.103 435.012V575.735C642.103 576.052 641.982 576.358 641.763 576.593C641.545 576.828 641.245 576.976 640.922 577.006C639.866 577.105 638.81 577.198 637.755 577.283C637.729 577.283 637.702 577.289 637.676 577.289C637.102 577.34 636.527 577.378 635.953 577.423H635.946C635.651 576.889 635.359 576.351 635.07 575.808C634.972 575.625 634.921 575.422 634.921 575.215V426.97C634.921 426.026 634.961 425.075 635.026 424.138C635.119 422.85 635.282 421.569 635.515 420.298C636.619 414.373 639.113 410.362 641.946 410.349H1040.83C1041.25 410.352 1041.65 410.436 1042.03 410.598C1042.59 410.838 1043.09 411.183 1043.51 411.612C1044.09 412.193 1044.58 412.847 1044.97 413.557C1046.6 416.721 1047.53 420.181 1047.72 423.717C1047.72 423.755 1047.73 423.793 1047.73 423.832C1047.82 424.865 1047.86 425.917 1047.86 426.969L1047.95 440.637L1048.01 448.788L1048.18 474.363L1048.25 483.445L1048.54 576.69C1048.54 577.028 1048.4 577.352 1048.15 577.592C1047.91 577.831 1047.58 577.965 1047.23 577.965H1041.98C1041.63 577.965 1041.3 577.831 1041.06 577.592C1040.81 577.352 1040.67 577.028 1040.67 576.69V435.012Z" fill="#C2C2C2"/>
<path d="M933.795 346.395H891.413C890.813 346.395 890.238 346.629 889.815 347.044C889.392 347.458 889.154 348.02 889.155 348.606V414.013H936.058V348.606C936.058 348.316 936 348.028 935.886 347.76C935.773 347.491 935.606 347.247 935.396 347.042C935.185 346.837 934.936 346.674 934.661 346.563C934.386 346.451 934.092 346.394 933.795 346.395ZM912.746 383.558C911.421 383.552 910.151 383.035 909.214 382.119C908.277 381.204 907.748 379.964 907.742 378.669V371.125C907.742 369.828 908.269 368.584 909.207 367.668C910.146 366.751 911.419 366.236 912.746 366.236C914.073 366.236 915.346 366.751 916.285 367.668C917.223 368.584 917.751 369.828 917.751 371.125V378.669C917.745 379.964 917.215 381.204 916.278 382.119C915.341 383.035 914.072 383.552 912.746 383.558Z" fill="#AEAEAE"/>
<path d="M889.009 411.921V418.231C889.009 418.558 889.143 418.872 889.379 419.103C889.616 419.334 889.937 419.464 890.272 419.465H934.941C935.275 419.463 935.595 419.333 935.832 419.102C936.068 418.871 936.202 418.558 936.203 418.231V411.921H889.009Z" fill="#3F3D56"/>
<path d="M1003.98 244.319H822.809C821.252 244.322 819.76 244.927 818.66 246.002C817.559 247.077 816.939 248.535 816.937 250.056V369.488C816.939 371.009 817.558 372.467 818.659 373.543C819.759 374.618 821.252 375.223 822.809 375.224H1003.98C1005.53 375.223 1007.02 374.618 1008.13 373.543C1009.23 372.467 1009.85 371.009 1009.85 369.488V250.056C1009.84 248.535 1009.23 247.077 1008.12 246.002C1007.02 244.927 1005.53 244.322 1003.98 244.319Z" fill="#C2C2C2"/>
<path d="M1002.46 248.462H824.322C823.489 248.464 822.69 248.789 822.102 249.365C821.513 249.941 821.182 250.722 821.182 251.537V368.009C821.184 368.822 821.515 369.602 822.103 370.177C822.692 370.752 823.49 371.075 824.322 371.077H1002.46C1003.3 371.075 1004.09 370.752 1004.68 370.177C1005.27 369.602 1005.6 368.822 1005.6 368.009V251.537C1005.6 250.722 1005.27 249.941 1004.68 249.365C1004.09 248.789 1003.3 248.464 1002.46 248.462Z" fill="white"/>
<path d="M967.764 421.661H861.78C861.49 421.661 861.204 421.598 860.942 421.476C860.68 421.354 860.449 421.176 860.266 420.956C860.083 420.736 859.953 420.479 859.885 420.204C859.817 419.928 859.813 419.641 859.872 419.364L861.517 411.733C861.611 411.307 861.851 410.924 862.198 410.649C862.545 410.374 862.978 410.223 863.424 410.221H966.12C966.567 410.223 967 410.374 967.347 410.649C967.694 410.924 967.934 411.307 968.028 411.733L969.672 419.364C969.732 419.641 969.727 419.928 969.659 420.204C969.591 420.479 969.461 420.736 969.278 420.956C969.095 421.176 968.865 421.354 968.603 421.476C968.341 421.598 968.054 421.661 967.764 421.661Z" fill="#FFEEB5"/>
<path d="M866.869 411.595H864.75C864.434 411.595 864.177 411.846 864.177 412.155V412.949C864.177 413.258 864.434 413.509 864.75 413.509H866.869C867.185 413.509 867.441 413.258 867.441 412.949V412.155C867.441 411.846 867.185 411.595 866.869 411.595Z" fill="#FFF8E1"/>
<path d="M873.397 411.595H871.278C870.962 411.595 870.706 411.846 870.706 412.155V412.949C870.706 413.258 870.962 413.509 871.278 413.509H873.397C873.713 413.509 873.97 413.258 873.97 412.949V412.155C873.97 411.846 873.713 411.595 873.397 411.595Z" fill="#FFF8E1"/>
<path d="M879.926 411.595H877.806C877.49 411.595 877.234 411.846 877.234 412.155V412.949C877.234 413.258 877.49 413.509 877.806 413.509H879.926C880.242 413.509 880.498 413.258 880.498 412.949V412.155C880.498 411.846 880.242 411.595 879.926 411.595Z" fill="#FFF8E1"/>
<path d="M886.454 411.595H884.335C884.019 411.595 883.762 411.846 883.762 412.155V412.949C883.762 413.258 884.019 413.509 884.335 413.509H886.454C886.77 413.509 887.026 413.258 887.026 412.949V412.155C887.026 411.846 886.77 411.595 886.454 411.595Z" fill="#FFF8E1"/>
<path d="M892.982 411.595H890.863C890.547 411.595 890.291 411.846 890.291 412.155V412.949C890.291 413.258 890.547 413.509 890.863 413.509H892.982C893.298 413.509 893.555 413.258 893.555 412.949V412.155C893.555 411.846 893.298 411.595 892.982 411.595Z" fill="#FFF8E1"/>
<path d="M899.511 411.595H897.392C897.076 411.595 896.819 411.846 896.819 412.155V412.949C896.819 413.258 897.076 413.509 897.392 413.509H899.511C899.827 413.509 900.084 413.258 900.084 412.949V412.155C900.084 411.846 899.827 411.595 899.511 411.595Z" fill="#FFF8E1"/>
<path d="M906.039 411.595H903.92C903.604 411.595 903.348 411.846 903.348 412.155V412.949C903.348 413.258 903.604 413.509 903.92 413.509H906.039C906.355 413.509 906.612 413.258 906.612 412.949V412.155C906.612 411.846 906.355 411.595 906.039 411.595Z" fill="#FFF8E1"/>
<path d="M912.568 411.595H910.449C910.132 411.595 909.876 411.846 909.876 412.155V412.949C909.876 413.258 910.132 413.509 910.449 413.509H912.568C912.884 413.509 913.14 413.258 913.14 412.949V412.155C913.14 411.846 912.884 411.595 912.568 411.595Z" fill="#FFF8E1"/>
<path d="M919.096 411.595H916.977C916.661 411.595 916.404 411.846 916.404 412.155V412.949C916.404 413.258 916.661 413.509 916.977 413.509H919.096C919.412 413.509 919.669 413.258 919.669 412.949V412.155C919.669 411.846 919.412 411.595 919.096 411.595Z" fill="#FFF8E1"/>
<path d="M925.624 411.595H923.505C923.189 411.595 922.933 411.846 922.933 412.155V412.949C922.933 413.258 923.189 413.509 923.505 413.509H925.624C925.94 413.509 926.197 413.258 926.197 412.949V412.155C926.197 411.846 925.94 411.595 925.624 411.595Z" fill="#FFF8E1"/>
<path d="M932.153 411.595H930.034C929.717 411.595 929.461 411.846 929.461 412.155V412.949C929.461 413.258 929.717 413.509 930.034 413.509H932.153C932.469 413.509 932.725 413.258 932.725 412.949V412.155C932.725 411.846 932.469 411.595 932.153 411.595Z" fill="#FFF8E1"/>
<path d="M938.681 411.595H936.562C936.246 411.595 935.989 411.846 935.989 412.155V412.949C935.989 413.258 936.246 413.509 936.562 413.509H938.681C938.997 413.509 939.254 413.258 939.254 412.949V412.155C939.254 411.846 938.997 411.595 938.681 411.595Z" fill="#FFF8E1"/>
<path d="M945.21 411.595H943.091C942.774 411.595 942.518 411.846 942.518 412.155V412.949C942.518 413.258 942.774 413.509 943.091 413.509H945.21C945.526 413.509 945.782 413.258 945.782 412.949V412.155C945.782 411.846 945.526 411.595 945.21 411.595Z" fill="#FFF8E1"/>
<path d="M951.738 411.595H949.619C949.303 411.595 949.046 411.846 949.046 412.155V412.949C949.046 413.258 949.303 413.509 949.619 413.509H951.738C952.054 413.509 952.311 413.258 952.311 412.949V412.155C952.311 411.846 952.054 411.595 951.738 411.595Z" fill="#FFF8E1"/>
<path d="M958.266 411.595H956.147C955.831 411.595 955.575 411.846 955.575 412.155V412.949C955.575 413.258 955.831 413.509 956.147 413.509H958.266C958.582 413.509 958.839 413.258 958.839 412.949V412.155C958.839 411.846 958.582 411.595 958.266 411.595Z" fill="#FFF8E1"/>
<path d="M964.795 411.595H962.676C962.359 411.595 962.103 411.846 962.103 412.155V412.949C962.103 413.258 962.359 413.509 962.676 413.509H964.795C965.111 413.509 965.367 413.258 965.367 412.949V412.155C965.367 411.846 965.111 411.595 964.795 411.595Z" fill="#FFF8E1"/>
<path d="M866.792 414.784H864.673C864.356 414.784 864.1 415.035 864.1 415.344V416.138C864.1 416.447 864.356 416.698 864.673 416.698H866.792C867.108 416.698 867.364 416.447 867.364 416.138V415.344C867.364 415.035 867.108 414.784 866.792 414.784Z" fill="#FFF8E1"/>
<path d="M873.32 414.784H871.201C870.885 414.784 870.628 415.035 870.628 415.344V416.138C870.628 416.447 870.885 416.698 871.201 416.698H873.32C873.636 416.698 873.893 416.447 873.893 416.138V415.344C873.893 415.035 873.636 414.784 873.32 414.784Z" fill="#FFF8E1"/>
<path d="M879.848 414.784H877.729C877.413 414.784 877.157 415.035 877.157 415.344V416.138C877.157 416.447 877.413 416.698 877.729 416.698H879.848C880.165 416.698 880.421 416.447 880.421 416.138V415.344C880.421 415.035 880.165 414.784 879.848 414.784Z" fill="#FFF8E1"/>
<path d="M886.377 414.784H884.258C883.941 414.784 883.685 415.035 883.685 415.344V416.138C883.685 416.447 883.941 416.698 884.258 416.698H886.377C886.693 416.698 886.949 416.447 886.949 416.138V415.344C886.949 415.035 886.693 414.784 886.377 414.784Z" fill="#FFF8E1"/>
<path d="M892.905 414.784H890.786C890.47 414.784 890.213 415.035 890.213 415.344V416.138C890.213 416.447 890.47 416.698 890.786 416.698H892.905C893.221 416.698 893.478 416.447 893.478 416.138V415.344C893.478 415.035 893.221 414.784 892.905 414.784Z" fill="#FFF8E1"/>
<path d="M899.434 414.784H897.315C896.999 414.784 896.742 415.035 896.742 415.344V416.138C896.742 416.447 896.999 416.698 897.315 416.698H899.434C899.75 416.698 900.006 416.447 900.006 416.138V415.344C900.006 415.035 899.75 414.784 899.434 414.784Z" fill="#FFF8E1"/>
<path d="M905.962 414.784H903.843C903.527 414.784 903.271 415.035 903.271 415.344V416.138C903.271 416.447 903.527 416.698 903.843 416.698H905.962C906.278 416.698 906.535 416.447 906.535 416.138V415.344C906.535 415.035 906.278 414.784 905.962 414.784Z" fill="#FFF8E1"/>
<path d="M912.49 414.784H910.371C910.055 414.784 909.799 415.035 909.799 415.344V416.138C909.799 416.447 910.055 416.698 910.371 416.698H912.49C912.807 416.698 913.063 416.447 913.063 416.138V415.344C913.063 415.035 912.807 414.784 912.49 414.784Z" fill="#FFF8E1"/>
<path d="M919.019 414.784H916.9C916.584 414.784 916.327 415.035 916.327 415.344V416.138C916.327 416.447 916.584 416.698 916.9 416.698H919.019C919.335 416.698 919.591 416.447 919.591 416.138V415.344C919.591 415.035 919.335 414.784 919.019 414.784Z" fill="#FFF8E1"/>
<path d="M925.547 414.784H923.428C923.112 414.784 922.855 415.035 922.855 415.344V416.138C922.855 416.447 923.112 416.698 923.428 416.698H925.547C925.863 416.698 926.12 416.447 926.12 416.138V415.344C926.12 415.035 925.863 414.784 925.547 414.784Z" fill="#FFF8E1"/>
<path d="M932.075 414.784H929.956C929.64 414.784 929.384 415.035 929.384 415.344V416.138C929.384 416.447 929.64 416.698 929.956 416.698H932.075C932.392 416.698 932.648 416.447 932.648 416.138V415.344C932.648 415.035 932.392 414.784 932.075 414.784Z" fill="#FFF8E1"/>
<path d="M938.604 414.784H936.485C936.169 414.784 935.912 415.035 935.912 415.344V416.138C935.912 416.447 936.169 416.698 936.485 416.698H938.604C938.92 416.698 939.176 416.447 939.176 416.138V415.344C939.176 415.035 938.92 414.784 938.604 414.784Z" fill="#FFF8E1"/>
<path d="M945.133 414.784H943.013C942.697 414.784 942.441 415.035 942.441 415.344V416.138C942.441 416.447 942.697 416.698 943.013 416.698H945.133C945.449 416.698 945.705 416.447 945.705 416.138V415.344C945.705 415.035 945.449 414.784 945.133 414.784Z" fill="#FFF8E1"/>
<path d="M951.661 414.784H949.542C949.226 414.784 948.969 415.035 948.969 415.344V416.138C948.969 416.447 949.226 416.698 949.542 416.698H951.661C951.977 416.698 952.233 416.447 952.233 416.138V415.344C952.233 415.035 951.977 414.784 951.661 414.784Z" fill="#FFF8E1"/>
<path d="M958.189 414.784H956.07C955.754 414.784 955.498 415.035 955.498 415.344V416.138C955.498 416.447 955.754 416.698 956.07 416.698H958.189C958.505 416.698 958.762 416.447 958.762 416.138V415.344C958.762 415.035 958.505 414.784 958.189 414.784Z" fill="#FFF8E1"/>
<path d="M964.717 414.784H962.598C962.282 414.784 962.026 415.035 962.026 415.344V416.138C962.026 416.447 962.282 416.698 962.598 416.698H964.717C965.034 416.698 965.29 416.447 965.29 416.138V415.344C965.29 415.035 965.034 414.784 964.717 414.784Z" fill="#FFF8E1"/>
<path d="M920.978 418.611H896.009C895.693 418.611 895.437 418.861 895.437 419.17V419.965C895.437 420.274 895.693 420.524 896.009 420.524H920.978C921.294 420.524 921.55 420.274 921.55 419.965V419.17C921.55 418.861 921.294 418.611 920.978 418.611Z" fill="#FFF8E1"/>
<path d="M993.508 264.51H826.823C826.649 264.506 826.484 264.436 826.363 264.315C826.242 264.194 826.174 264.031 826.174 263.862C826.174 263.693 826.242 263.53 826.363 263.409C826.484 263.288 826.649 263.218 826.823 263.215H993.508C993.681 263.218 993.846 263.288 993.967 263.409C994.088 263.53 994.156 263.693 994.156 263.862C994.156 264.031 994.088 264.194 993.967 264.315C993.846 264.436 993.681 264.506 993.508 264.51Z" fill="#CACACA"/>
<path d="M838.169 259.908C840.315 259.908 842.054 258.171 842.054 256.029C842.054 253.886 840.315 252.149 838.169 252.149C836.024 252.149 834.285 253.886 834.285 256.029C834.285 258.171 836.024 259.908 838.169 259.908Z" fill="#E9A5FA"/>
<path d="M851.589 259.908C853.734 259.908 855.474 258.171 855.474 256.029C855.474 253.886 853.734 252.149 851.589 252.149C849.443 252.149 847.704 253.886 847.704 256.029C847.704 258.171 849.443 259.908 851.589 259.908Z" fill="#E9A5FA"/>
<path d="M865.009 259.908C867.154 259.908 868.893 258.171 868.893 256.029C868.893 253.886 867.154 252.149 865.009 252.149C862.863 252.149 861.124 253.886 861.124 256.029C861.124 258.171 862.863 259.908 865.009 259.908Z" fill="#E9A5FA"/>
<path d="M985.429 253.111H975.896C975.707 253.114 975.527 253.19 975.394 253.322C975.262 253.454 975.188 253.631 975.188 253.816C975.188 254 975.262 254.178 975.394 254.31C975.527 254.441 975.707 254.517 975.896 254.521H985.428C985.617 254.517 985.797 254.441 985.93 254.31C986.062 254.178 986.136 254 986.136 253.816C986.136 253.631 986.062 253.454 985.93 253.322C985.797 253.19 985.617 253.114 985.428 253.111H985.429Z" fill="#E9A5FA"/>
<path d="M985.428 255.758H975.895C975.706 255.761 975.527 255.837 975.394 255.969C975.262 256.101 975.188 256.278 975.188 256.463C975.188 256.647 975.262 256.825 975.394 256.956C975.527 257.088 975.706 257.164 975.895 257.168H985.428C985.617 257.164 985.797 257.088 985.929 256.956C986.061 256.825 986.135 256.647 986.135 256.463C986.135 256.278 986.061 256.101 985.929 255.969C985.797 255.837 985.617 255.761 985.428 255.758H985.428Z" fill="#E9A5FA"/>
<path d="M985.429 258.401H975.896C975.707 258.405 975.527 258.48 975.394 258.612C975.262 258.744 975.188 258.921 975.188 259.106C975.188 259.291 975.262 259.468 975.394 259.6C975.527 259.732 975.707 259.808 975.896 259.811H985.428C985.617 259.808 985.797 259.732 985.93 259.6C986.062 259.468 986.136 259.291 986.136 259.106C986.136 258.921 986.062 258.744 985.93 258.612C985.797 258.48 985.617 258.405 985.428 258.401H985.429Z" fill="#E9A5FA"/>
<path d="M923.624 299.791H902.796C901.231 299.791 899.963 301.03 899.963 302.558C899.963 304.086 901.231 305.325 902.796 305.325H923.624C925.188 305.325 926.456 304.086 926.456 302.558C926.456 301.03 925.188 299.791 923.624 299.791Z" fill="#FFC700"/>
<path d="M937.079 310.86H889.34C887.776 310.86 886.508 312.099 886.508 313.627C886.508 315.156 887.776 316.395 889.34 316.395H937.079C938.643 316.395 939.912 315.156 939.912 313.627C939.912 312.099 938.643 310.86 937.079 310.86Z" fill="#C2C2C2"/>
<path d="M937.079 321.929H889.34C887.776 321.929 886.508 323.168 886.508 324.697C886.508 326.225 887.776 327.464 889.34 327.464H937.079C938.643 327.464 939.912 326.225 939.912 324.697C939.912 323.168 938.643 321.929 937.079 321.929Z" fill="#C2C2C2"/>
<path d="M615.457 494.379L605.856 489.892L619.045 450.684L633.216 457.305L615.457 494.379Z" fill="#FFB6B6"/>
<path d="M679.83 488.058C679.131 488.485 678.433 488.905 677.728 489.326C676.324 490.166 674.907 490.993 673.489 491.806C672.777 492.213 672.057 492.619 671.345 493.019V493.039L671.303 493.046L671.289 493.053L670.203 493.315L668.644 489.291L667.925 487.438L666.909 484.813L665.047 480.01L655.244 454.723L670.485 451.051L671.056 453.331H671.063L671.345 454.461L676.67 475.559L677.756 479.872L677.792 480.003L678.447 482.58L679.012 484.813L679.639 487.307L679.83 488.058Z" fill="#FFB6B6"/>
<path d="M770.749 399.256C769.783 400.772 768.796 402.281 767.801 403.776C765.953 406.559 764.056 409.302 762.11 412.003C762.11 412.01 762.103 412.01 762.096 412.017C760.96 413.044 759.706 413.939 758.358 414.683C758.301 414.724 758.238 414.752 758.181 414.786C757.189 415.322 756.132 415.737 755.036 416.02C754.641 416.116 754.239 416.213 753.844 416.309C752.419 416.64 751.009 416.922 749.605 417.17C747.108 417.604 744.64 417.915 742.186 418.107C741.988 418.128 741.791 418.142 741.593 418.156C731.5 418.879 721.676 417.715 711.421 415.806C706.357 414.869 701.187 413.746 695.834 412.581C694.085 412.196 692.329 411.817 690.552 411.438C690.418 411.41 690.277 411.376 690.136 411.348C687.597 410.804 685.015 410.266 682.37 409.736C679.042 409.068 675.607 408.42 672.038 407.807L672.292 412.719C672.503 416.498 673.307 420.223 674.676 423.764C676.199 428.119 677.405 431.564 674.859 438.737L673.632 442.209C674.268 443.934 674.486 445.779 674.27 447.599C674.053 449.42 673.408 451.167 672.384 452.703L672.137 453.068L682.37 478.362L683.033 480.002H677.793L671.347 480.009H660.422L644.659 449.113L643.904 447.639V447.563L645.534 388.19C645.555 387.667 645.597 387.136 645.667 386.612C645.955 384.232 646.725 381.931 647.932 379.844C649.139 377.757 650.76 375.926 652.699 374.458C654.558 373.039 656.686 371.995 658.961 371.387C661.236 370.779 663.612 370.619 665.951 370.917L671.347 371.599L682.37 372.991L690.136 373.976L690.291 373.996L713.191 376.89L714.835 370.345L715.138 370.234L724.779 366.782L758.125 354.842L758.209 354.814L760.403 354.029L760.664 354.442C760.741 354.566 760.819 354.69 760.89 354.814C763.057 358.611 764.823 362.615 766.158 366.762C768.403 373.537 770.252 380.431 771.694 387.412C771.758 387.715 771.814 387.99 771.864 388.239L771.885 388.314C771.906 388.431 771.92 388.507 771.927 388.528C772.588 392.141 772.18 395.862 770.749 399.256Z" fill="#252229"/>
<path d="M772.156 377.375C772.051 376.934 771.917 376.487 771.776 376.052C770.656 372.765 769.352 369.54 767.868 366.392C766.204 362.81 764.208 358.972 761.831 354.817C760.682 352.805 759.445 350.713 758.121 348.54C757.458 347.451 756.77 346.342 756.055 345.212C756.027 345.16 755.996 345.109 755.963 345.06L755.759 344.73L722.766 349.043L710.48 350.648L709.746 356.629L709.57 358.11C709.563 358.11 709.563 358.11 709.57 358.117L709.076 362.155V362.162L708.42 367.495L708.364 367.488L690.132 365.18L671.343 362.803L661.251 361.528C658.912 361.23 656.536 361.39 654.261 361.998C651.985 362.606 649.857 363.65 647.999 365.07C646.06 366.538 644.439 368.369 643.232 370.456C642.025 372.543 641.255 374.843 640.967 377.224C640.904 377.706 640.861 378.202 640.84 378.691L631.319 400.733C625.621 413.915 621.993 427.862 620.556 442.102L613.574 463.909L614.568 463.999L629.365 465.342L633.272 465.701L641.877 453.429C642.857 452.031 643.788 450.59 644.656 449.116C646.084 446.708 647.354 444.213 648.457 441.647L667.069 398.377C668.508 398.618 669.933 398.848 671.343 399.066C677.867 400.099 684.13 400.942 690.132 401.594C709.647 403.723 726.546 403.889 741.59 402.084C745.814 401.581 749.898 400.919 753.84 400.099C755.286 399.803 756.713 399.484 758.121 399.142C758.453 399.066 758.777 398.99 759.102 398.907C762.017 398.173 764.696 396.736 766.896 394.728C769.095 392.72 770.744 390.206 771.691 387.414C772.822 384.18 772.983 380.697 772.156 377.375Z" fill="#252229"/>
<path d="M618.525 487.976L608.136 483.112L606.507 482.347L603.905 488.59L585.737 492.496C584.838 492.689 584.026 493.157 583.42 493.832C582.813 494.507 582.443 495.354 582.364 496.249C582.286 497.145 582.502 498.041 582.982 498.807C583.462 499.574 584.18 500.17 585.031 500.51L602.783 507.586L608.418 502.632L607.036 509.281L613.722 511.947L621.05 489.162L618.525 487.976Z" fill="#252229"/>
<path d="M682.37 478.362L683.034 480.002H682.37V478.362Z" fill="#252229"/>
<path d="M678.752 480.352L667.867 484.037L666.158 484.613L668.805 490.838L658.709 506.103C658.209 506.857 657.969 507.747 658.024 508.644C658.08 509.541 658.427 510.397 659.016 511.087C659.604 511.778 660.404 512.266 661.297 512.481C662.19 512.696 663.13 512.626 663.979 512.282L681.69 505.107L682.126 497.713L685.932 503.388L692.604 500.687L681.4 479.459L678.752 480.352Z" fill="#252229"/>
<path d="M612.683 252.375C613.199 253.358 613.929 254.217 614.822 254.894C615.715 255.571 616.749 256.048 617.852 256.292C618.954 256.537 620.098 256.542 621.202 256.307C622.307 256.073 623.345 255.605 624.244 254.936L647.135 269.781L647.178 255.833L625.435 243.874C624.184 242.473 622.451 241.568 620.564 241.331C618.676 241.095 616.765 241.543 615.194 242.591C613.622 243.639 612.498 245.214 612.035 247.017C611.572 248.82 611.803 250.727 612.683 252.375V252.375Z" fill="#FFB6B6"/>
<path d="M629.783 258.822L640.463 246.953L683.948 272.172L741.591 267.015C744.441 266.76 747.312 267.122 750.003 268.073C752.693 269.024 755.136 270.543 757.158 272.52C759.181 274.498 760.732 276.886 761.704 279.515C762.675 282.144 763.042 284.95 762.778 287.734C762.296 292.76 759.793 297.395 755.817 300.621C751.842 303.847 746.719 305.4 741.572 304.94L676.651 299.07L629.783 258.822Z" fill="#983BB2"/>
<path d="M763.573 259.005L763.473 258.882C755.364 258.101 747.197 259.634 739.962 263.296C732.727 266.959 726.735 272.593 722.712 279.516L717.82 287.934C701.996 306.833 713.495 319.866 714.183 321.804L708.69 346.545L709.921 354.825L710.536 357.285L773.233 389.29C776.803 372.535 773.351 358.257 760.347 347.35L772.929 309.103C775.719 300.646 776.325 291.647 774.692 282.906C773.06 274.165 769.24 265.955 763.573 259.005Z" fill="#983BB2"/>
<path d="M713.721 444.815H693.611C692.504 444.814 691.436 444.423 690.601 443.715C689.766 443.006 689.22 442.027 689.065 440.957C687.823 432.03 687.823 422.979 689.065 414.052C689.219 412.995 689.753 412.026 690.572 411.319C691.391 410.612 692.441 410.214 693.533 410.195C699.861 407.424 706.675 407.424 713.791 410.194C714.453 410.203 715.106 410.353 715.703 410.634C716.3 410.916 716.827 411.321 717.246 411.822C717.683 412.344 717.997 412.954 718.162 413.608C718.328 414.263 718.343 414.945 718.205 415.606C716.589 423.46 716.589 431.549 718.205 439.403C718.343 440.064 718.328 440.746 718.162 441.401C717.997 442.055 717.683 442.665 717.246 443.187C716.819 443.697 716.281 444.107 715.672 444.389C715.062 444.671 714.396 444.816 713.721 444.815Z" fill="#FFEFBB"/>
<path d="M711.615 420.452H694.688C694.549 420.453 694.41 420.427 694.281 420.376C694.151 420.324 694.033 420.249 693.934 420.152C693.835 420.056 693.756 419.942 693.702 419.816C693.649 419.69 693.621 419.555 693.621 419.418C693.621 419.282 693.649 419.147 693.702 419.021C693.756 418.895 693.835 418.78 693.934 418.684C694.033 418.588 694.151 418.512 694.281 418.461C694.41 418.409 694.549 418.384 694.688 418.385H711.615C711.755 418.384 711.894 418.409 712.023 418.461C712.152 418.512 712.27 418.588 712.369 418.684C712.469 418.78 712.547 418.895 712.601 419.021C712.655 419.147 712.682 419.282 712.682 419.418C712.682 419.555 712.655 419.69 712.601 419.816C712.547 419.942 712.469 420.056 712.369 420.152C712.27 420.249 712.152 420.324 712.023 420.376C711.894 420.427 711.755 420.453 711.615 420.452Z" fill="white"/>
<path d="M711.615 428.72H694.688C694.549 428.721 694.41 428.696 694.281 428.644C694.151 428.593 694.033 428.517 693.934 428.421C693.835 428.325 693.756 428.21 693.702 428.084C693.649 427.958 693.621 427.823 693.621 427.687C693.621 427.55 693.649 427.415 693.702 427.289C693.756 427.163 693.835 427.049 693.934 426.953C694.033 426.857 694.151 426.781 694.281 426.729C694.41 426.678 694.549 426.652 694.688 426.653H711.615C711.755 426.652 711.894 426.678 712.023 426.729C712.152 426.781 712.27 426.857 712.369 426.953C712.469 427.049 712.547 427.163 712.601 427.289C712.655 427.415 712.682 427.55 712.682 427.687C712.682 427.823 712.655 427.958 712.601 428.084C712.547 428.21 712.469 428.325 712.369 428.421C712.27 428.517 712.152 428.593 712.023 428.644C711.894 428.696 711.755 428.721 711.615 428.72Z" fill="white"/>
<path d="M711.615 436.988H694.688C694.548 436.99 694.41 436.964 694.28 436.912C694.151 436.861 694.033 436.785 693.934 436.689C693.834 436.593 693.755 436.479 693.702 436.353C693.648 436.226 693.62 436.091 693.62 435.955C693.62 435.818 693.648 435.683 693.702 435.557C693.755 435.431 693.834 435.317 693.934 435.22C694.033 435.124 694.151 435.048 694.28 434.997C694.41 434.946 694.548 434.92 694.688 434.921H711.615C711.755 434.92 711.893 434.946 712.023 434.997C712.152 435.048 712.27 435.124 712.369 435.22C712.469 435.317 712.547 435.431 712.601 435.557C712.655 435.683 712.683 435.818 712.683 435.955C712.683 436.091 712.655 436.226 712.601 436.353C712.547 436.479 712.469 436.593 712.369 436.689C712.27 436.785 712.152 436.861 712.023 436.912C711.893 436.964 711.755 436.99 711.615 436.988Z" fill="white"/>
<path d="M616.369 259.185H596.259C595.152 259.184 594.084 258.794 593.249 258.085C592.414 257.376 591.868 256.397 591.713 255.327C590.471 246.4 590.471 237.35 591.713 228.422C591.867 227.365 592.401 226.396 593.22 225.689C594.039 224.982 595.089 224.584 596.181 224.565C602.509 221.794 609.323 221.794 616.439 224.565C617.101 224.573 617.754 224.723 618.351 225.005C618.948 225.286 619.475 225.691 619.894 226.193C620.332 226.714 620.645 227.324 620.81 227.978C620.976 228.633 620.991 229.315 620.853 229.976C619.237 237.83 619.237 245.919 620.853 253.773C620.991 254.434 620.976 255.116 620.81 255.771C620.645 256.425 620.332 257.035 619.894 257.557C619.467 258.067 618.929 258.478 618.32 258.759C617.71 259.041 617.044 259.186 616.369 259.185Z" fill="#FFEFBB"/>
<path d="M614.264 234.822H597.337C597.197 234.823 597.059 234.797 596.929 234.746C596.8 234.695 596.682 234.619 596.583 234.523C596.483 234.426 596.405 234.312 596.351 234.186C596.297 234.06 596.27 233.925 596.27 233.788C596.27 233.652 596.297 233.517 596.351 233.391C596.405 233.265 596.483 233.15 596.583 233.054C596.682 232.958 596.8 232.882 596.929 232.831C597.059 232.78 597.197 232.754 597.337 232.755H614.264C614.403 232.754 614.542 232.78 614.671 232.831C614.801 232.882 614.918 232.958 615.018 233.054C615.117 233.15 615.196 233.265 615.249 233.391C615.303 233.517 615.331 233.652 615.331 233.788C615.331 233.925 615.303 234.06 615.249 234.186C615.196 234.312 615.117 234.426 615.018 234.523C614.918 234.619 614.801 234.695 614.671 234.746C614.542 234.797 614.403 234.823 614.264 234.822Z" fill="white"/>
<path d="M614.264 243.09H597.337C597.197 243.092 597.059 243.066 596.929 243.014C596.8 242.963 596.682 242.887 596.583 242.791C596.483 242.695 596.405 242.58 596.351 242.454C596.297 242.328 596.27 242.193 596.27 242.057C596.27 241.92 596.297 241.785 596.351 241.659C596.405 241.533 596.483 241.419 596.583 241.323C596.682 241.227 596.8 241.151 596.929 241.099C597.059 241.048 597.197 241.022 597.337 241.023H614.264C614.403 241.022 614.542 241.048 614.671 241.099C614.801 241.151 614.918 241.227 615.018 241.323C615.117 241.419 615.196 241.533 615.249 241.659C615.303 241.785 615.331 241.92 615.331 242.057C615.331 242.193 615.303 242.328 615.249 242.454C615.196 242.58 615.117 242.695 615.018 242.791C614.918 242.887 614.801 242.963 614.671 243.014C614.542 243.066 614.403 243.092 614.264 243.09Z" fill="white"/>
<path d="M614.263 251.359H597.336C597.197 251.36 597.058 251.334 596.929 251.283C596.799 251.231 596.681 251.155 596.582 251.059C596.483 250.963 596.404 250.849 596.35 250.723C596.296 250.597 596.269 250.462 596.269 250.325C596.269 250.189 596.296 250.053 596.35 249.927C596.404 249.801 596.483 249.687 596.582 249.591C596.681 249.495 596.799 249.419 596.929 249.367C597.058 249.316 597.197 249.29 597.336 249.292H614.263C614.403 249.29 614.542 249.316 614.671 249.367C614.801 249.419 614.918 249.495 615.018 249.591C615.117 249.687 615.196 249.801 615.25 249.927C615.304 250.053 615.331 250.189 615.331 250.325C615.331 250.462 615.304 250.597 615.25 250.723C615.196 250.849 615.117 250.963 615.018 251.059C614.918 251.155 614.801 251.231 614.671 251.283C614.542 251.334 614.403 251.36 614.263 251.359Z" fill="white"/>
<path d="M263.323 309.603H243.212C242.106 309.602 241.037 309.211 240.202 308.503C239.367 307.794 238.822 306.815 238.667 305.745C237.425 296.818 237.425 287.767 238.667 278.84C238.82 277.783 239.354 276.814 240.173 276.107C240.992 275.4 242.042 275.002 243.135 274.983C249.463 272.212 256.277 272.212 263.392 274.983C264.055 274.991 264.708 275.141 265.305 275.423C265.901 275.704 266.428 276.109 266.848 276.611C267.285 277.132 267.598 277.742 267.764 278.396C267.93 279.051 267.944 279.733 267.806 280.394C266.191 288.248 266.191 296.337 267.806 304.191C267.944 304.852 267.93 305.534 267.764 306.189C267.598 306.843 267.285 307.453 266.848 307.975C266.421 308.485 265.883 308.896 265.273 309.177C264.664 309.459 263.997 309.604 263.323 309.603Z" fill="#FFEFBB"/>
<path d="M261.217 285.24H244.29C244.15 285.241 244.012 285.215 243.882 285.164C243.753 285.112 243.635 285.037 243.536 284.94C243.437 284.844 243.358 284.73 243.304 284.604C243.25 284.478 243.223 284.343 243.223 284.206C243.223 284.07 243.25 283.935 243.304 283.809C243.358 283.683 243.437 283.568 243.536 283.472C243.635 283.376 243.753 283.3 243.882 283.249C244.012 283.198 244.15 283.172 244.29 283.173H261.217C261.356 283.172 261.495 283.198 261.624 283.249C261.754 283.3 261.872 283.376 261.971 283.472C262.07 283.568 262.149 283.683 262.203 283.809C262.256 283.935 262.284 284.07 262.284 284.206C262.284 284.343 262.256 284.478 262.203 284.604C262.149 284.73 262.07 284.844 261.971 284.94C261.872 285.037 261.754 285.112 261.624 285.164C261.495 285.215 261.356 285.241 261.217 285.24Z" fill="white"/>
<path d="M261.217 293.508H244.29C244.15 293.509 244.012 293.484 243.882 293.432C243.753 293.381 243.635 293.305 243.536 293.209C243.437 293.113 243.358 292.998 243.304 292.872C243.25 292.746 243.223 292.611 243.223 292.475C243.223 292.338 243.25 292.203 243.304 292.077C243.358 291.951 243.437 291.837 243.536 291.741C243.635 291.645 243.753 291.569 243.882 291.517C244.012 291.466 244.15 291.44 244.29 291.441H261.217C261.356 291.44 261.495 291.466 261.624 291.517C261.754 291.569 261.872 291.645 261.971 291.741C262.07 291.837 262.149 291.951 262.203 292.077C262.256 292.203 262.284 292.338 262.284 292.475C262.284 292.611 262.256 292.746 262.203 292.872C262.149 292.998 262.07 293.113 261.971 293.209C261.872 293.305 261.754 293.381 261.624 293.432C261.495 293.484 261.356 293.509 261.217 293.508Z" fill="white"/>
<path d="M261.217 301.777H244.29C244.15 301.778 244.012 301.752 243.882 301.701C243.753 301.649 243.635 301.573 243.536 301.477C243.436 301.381 243.357 301.267 243.304 301.141C243.25 301.015 243.222 300.88 243.222 300.743C243.222 300.607 243.25 300.471 243.304 300.345C243.357 300.219 243.436 300.105 243.536 300.009C243.635 299.913 243.753 299.837 243.882 299.785C244.012 299.734 244.15 299.708 244.29 299.71H261.217C261.357 299.708 261.495 299.734 261.625 299.785C261.754 299.837 261.872 299.913 261.971 300.009C262.071 300.105 262.15 300.219 262.203 300.345C262.257 300.471 262.285 300.607 262.285 300.743C262.285 300.88 262.257 301.015 262.203 301.141C262.15 301.267 262.071 301.381 261.971 301.477C261.872 301.573 261.754 301.649 261.625 301.701C261.495 301.752 261.357 301.778 261.217 301.777Z" fill="white"/>
<path d="M719.614 419.7C720.587 419.138 721.422 418.375 722.061 417.464C722.699 416.553 723.126 415.516 723.31 414.426C723.494 413.337 723.431 412.221 723.126 411.158C722.821 410.095 722.281 409.11 721.544 408.273L735.355 385.069L721.1 385.854L710.171 407.768C708.813 409.071 707.991 410.815 707.862 412.669C707.732 414.524 708.304 416.361 709.468 417.832C710.632 419.302 712.307 420.305 714.177 420.649C716.047 420.993 717.982 420.656 719.614 419.7V419.7Z" fill="#FFB6B6"/>
<path d="M725.187 402.641L712.425 392.93L735.615 349.026L726.925 293.117C726.496 290.354 726.695 287.532 727.507 284.851C728.32 282.171 729.726 279.699 731.627 277.609C733.527 275.52 735.875 273.865 738.504 272.762C741.133 271.659 743.979 271.134 746.838 271.226C752.003 271.398 756.888 273.565 760.42 277.25C763.952 280.936 765.843 285.84 765.678 290.886L763.531 354.546L725.187 402.641Z" fill="#983BB2"/>
<path d="M108.36 390.645C109.164 389.856 109.781 388.904 110.167 387.857C110.554 386.809 110.701 385.692 110.597 384.583C110.494 383.474 110.143 382.401 109.569 381.439C108.995 380.477 108.213 379.65 107.276 379.016L119.688 318.789L105.981 323.088L96.0463 381.343C95.0597 382.95 94.7109 384.855 95.0662 386.698C95.4214 388.54 96.456 390.19 97.9738 391.337C99.4916 392.484 101.387 393.047 103.301 392.919C105.216 392.792 107.016 391.983 108.36 390.645H108.36Z" fill="#9E616A"/>
<path d="M126.687 263.221L118.183 256.95C118.183 256.95 110.68 256.431 109.352 269.648C108.023 282.865 105.295 308.623 105.295 308.623L92.2817 367.505L110.295 371.367L124.233 307.823L132.595 288.953L126.687 263.221Z" fill="#983BB2"/>
<path d="M112.667 359.369L160.588 358.589L164.582 326.597H112.667V359.369Z" fill="#9E616A"/>
<path d="M155.796 556.233H166.859L172.122 514.545L155.793 514.547L155.796 556.233Z" fill="#9E616A"/>
<path d="M86.4883 557.234L97.5512 557.158L102.515 515.436L88.1268 518.66L86.4883 557.234Z" fill="#9E616A"/>
<path d="M121.089 299.048L118.583 305.414L119.083 311.781L168.143 328.382L165.709 300.517L160.194 294.149L121.089 299.048Z" fill="#FFB6B6"/>
<path d="M142.136 241.749C151.813 241.749 159.658 234.085 159.658 224.631C159.658 215.177 151.813 207.513 142.136 207.513C132.459 207.513 124.614 215.177 124.614 224.631C124.614 234.085 132.459 241.749 142.136 241.749Z" fill="#9E616A"/>
<path d="M153.052 550.902L170.54 549.882V557.202L187.167 568.42C187.988 568.974 188.607 569.77 188.932 570.692C189.257 571.613 189.273 572.613 188.976 573.543C188.679 574.474 188.085 575.288 187.281 575.866C186.477 576.443 185.505 576.755 184.507 576.755H163.687L160.098 569.514L158.697 576.755H150.847L153.052 550.902Z" fill="#252229"/>
<path d="M82.7039 551.928L100.184 550.789L100.237 558.108L116.944 569.212C117.769 569.761 118.393 570.552 118.725 571.472C119.057 572.391 119.08 573.39 118.789 574.323C118.499 575.256 117.911 576.074 117.111 576.657C116.311 577.24 115.342 577.559 114.344 577.565L93.5239 577.708L89.8833 570.492L88.5341 577.742L80.6841 577.796L82.7039 551.928Z" fill="#252229"/>
<path d="M83.0456 525.271L91.1013 462.366L100.686 396.042C93.6668 383.308 109.471 343.764 109.471 343.764L111.702 343.868L162.196 353.175L162.185 353.127C172.513 380.646 175.934 394.241 175.369 423.546L173.334 528.891H173.972C175.031 528.891 176.047 529.302 176.796 530.034C177.545 530.765 177.966 531.758 177.966 532.792C177.966 533.827 177.545 534.819 176.796 535.551C176.047 536.283 175.031 536.694 173.972 536.694H154.005C153.48 536.695 152.96 536.594 152.474 536.399C151.989 536.203 151.548 535.916 151.177 535.553C150.805 535.191 150.51 534.761 150.309 534.287C150.108 533.813 150.004 533.305 150.004 532.792C150.004 532.279 150.108 531.772 150.309 531.298C150.51 530.824 150.805 530.394 151.177 530.031C151.548 529.669 151.989 529.382 152.474 529.186C152.96 528.99 153.48 528.89 154.005 528.891H154.52L136.192 403.456L120.653 456.124L103.082 524.788C109.471 523.227 108.479 526.843 108.479 528.891C108.479 529.926 108.058 530.918 107.31 531.65C106.561 532.381 105.545 532.792 104.486 532.792H84.5184C83.5897 532.793 82.6898 532.478 81.9737 531.9C81.2577 531.322 80.7704 530.518 80.596 529.627C80.4215 528.736 80.5707 527.814 81.0179 527.018C81.4651 526.223 82.1822 525.605 83.0457 525.271H83.0456Z" fill="#252229"/>
<path d="M105.54 345.812L107.137 330.207C107.303 329.57 107.671 329.001 108.188 328.581C108.706 328.162 109.346 327.913 110.017 327.87C110.682 320.436 113.483 288.366 113.65 286.967L113.656 286.908L114.93 260.333C114.976 259.368 115.385 258.454 116.077 257.764C116.77 257.075 117.699 256.659 118.686 256.596L125.411 256.166C125.504 256.163 125.591 256.125 125.655 256.06C125.719 255.996 125.755 255.909 125.755 255.819C125.755 255.093 125.901 254.375 126.186 253.704C126.47 253.034 126.887 252.425 127.412 251.912C127.937 251.399 128.56 250.992 129.247 250.714C129.933 250.436 130.668 250.293 131.411 250.293H151.323C152.613 250.294 153.858 250.754 154.825 251.588C155.792 252.422 156.415 253.572 156.575 254.822C156.584 254.908 156.626 254.988 156.692 255.045C156.759 255.102 156.845 255.133 156.933 255.131H156.936C159.198 255.085 161.402 255.834 163.149 257.24C164.895 258.647 166.067 260.618 166.452 262.797C169.175 278.27 174.63 313.39 171.933 332.914C170.994 339.711 173.018 334.327 173.373 340.014C173.408 340.564 173.332 341.115 173.149 341.636C172.966 342.156 172.68 342.637 172.306 343.049C173.071 343.321 173.695 343.876 174.043 344.594C174.391 345.312 174.435 346.135 174.166 346.885L174.516 346.801C174.413 347.198 174.232 347.572 173.981 347.901C173.731 348.23 173.417 348.507 173.056 348.717C172.696 348.927 172.297 349.066 171.882 349.126C171.467 349.185 171.044 349.164 170.637 349.064L118.541 355.96C116.83 355.539 105.109 347.484 105.54 345.812Z" fill="#983BB2"/>
<path d="M244.746 282.364C244.42 283.43 243.858 284.414 243.101 285.246C242.343 286.077 241.408 286.737 240.361 287.177C239.314 287.618 238.182 287.828 237.043 287.795C235.903 287.761 234.786 287.484 233.768 286.983L213.628 304.939L210.954 291.12L230.502 276.232C231.477 274.617 233.025 273.409 234.851 272.835C236.678 272.26 238.656 272.361 240.412 273.117C242.168 273.872 243.579 275.231 244.378 276.935C245.177 278.64 245.308 280.571 244.746 282.364H244.746Z" fill="#9E616A"/>
<path d="M174.648 268.639C174.648 268.639 167.625 253.134 158.756 256.216C149.886 259.298 154.466 274.341 154.466 274.341L187.789 323.397C187.789 323.397 235.854 293.275 230.009 293.063C224.165 292.85 222.416 282.465 222.416 282.465L197.013 294.865L196.154 290.451L194.776 291.797L191.221 289.063L174.648 268.639Z" fill="#983BB2"/>
<path d="M749.119 251.606C762.63 251.606 773.582 240.906 773.582 227.707C773.582 214.508 762.63 203.808 749.119 203.808C735.608 203.808 724.656 214.508 724.656 227.707C724.656 240.906 735.608 251.606 749.119 251.606Z" fill="#FFB6B6"/>
<path d="M827.63 262.875C824.807 266.783 820.687 269.617 815.968 270.896C814.08 271.445 812.131 271.768 810.163 271.859C809.92 269.685 809.338 267.56 808.437 265.558C808.528 267.689 808.225 269.819 807.541 271.844C804.586 271.681 801.697 270.924 799.054 269.623C796.458 268.347 794.202 266.497 792.465 264.221C790.728 261.945 789.558 259.305 789.048 256.51C788.011 249.973 791.045 243.554 792.142 237.027C793.244 230.5 791.176 222.233 784.636 220.518C779.655 219.21 780.213 219.776 776.073 222.779C780.38 229 764.472 251.799 757.961 249.811C754.281 248.687 751.924 245.387 751.165 245.387C746.048 253.998 755.682 268.507 745.973 271.52L746.773 270.738C752.634 263.695 740.383 248.788 746.244 241.745C747.879 239.774 749.62 237.44 749.137 234.948C748.679 232.579 744.831 231.326 743.704 233.272C745.731 228.735 742.738 222.68 737.782 221.515C733.38 220.478 733.461 221.756 729.044 222.312C728.755 220.447 728.215 218.627 727.439 216.9C727.52 218.761 727.297 220.622 726.78 222.415C725.219 222.385 723.712 221.853 722.493 220.901C718.891 218.065 719.621 212.108 722.835 208.859C726.055 205.611 730.84 204.441 735.403 203.684C736.729 194.66 762.215 193.718 765.593 202.735C767.032 196.002 775.66 192.507 782.367 194.596C789.073 196.685 793.727 202.804 796.177 209.253C798.627 215.696 799.311 222.631 800.82 229.345C802.329 236.059 804.88 242.895 810.132 247.471C815.385 252.042 823.942 253.556 829.476 249.309C830.281 251.553 830.533 253.951 830.212 256.307C829.891 258.664 829.007 260.914 827.63 262.875Z" fill="#252229"/>
<path d="M1057.14 317.413L1053.72 334.199C1053.46 335.483 1053.19 336.789 1052.89 338.084C1050.03 337.504 1047.06 337.666 1044.29 338.554C1046.49 341.631 1048.47 344.859 1050.2 348.213C1048.04 354.71 1044.87 360.715 1039.57 365.058C1036.03 367.893 1031.8 369.79 1027.29 370.565C1022.78 371.34 1018.14 370.966 1013.82 369.481L1013.98 368.816C1008.28 358.01 1011.37 344.386 1018.46 334.406C1022.07 329.482 1026.35 325.061 1031.18 321.263C1035.97 317.367 1041.14 313.872 1046.27 310.423C1047.42 309.649 1048.78 309.229 1050.18 309.215C1051.57 309.201 1052.94 309.594 1054.11 310.345C1055.28 311.095 1056.19 312.168 1056.73 313.427C1057.27 314.686 1057.41 316.074 1057.14 317.413Z" fill="#E4E4E4"/>
<path d="M1015.04 409.872C1013.6 399.613 1012.12 389.224 1013.13 378.855C1014.03 369.647 1016.9 360.653 1022.76 353.278C1025.87 349.371 1029.65 346.023 1033.93 343.386C1035.05 342.698 1036.08 344.427 1034.97 345.112C1027.55 349.69 1021.82 356.45 1018.59 364.417C1015.02 373.277 1014.45 382.935 1015.07 392.346C1015.44 398.038 1016.23 403.69 1017.02 409.339C1017.09 409.595 1017.05 409.865 1016.92 410.093C1016.78 410.322 1016.57 410.493 1016.31 410.57C1016.05 410.639 1015.77 410.604 1015.53 410.473C1015.3 410.343 1015.12 410.126 1015.05 409.871L1015.04 409.872Z" fill="#F2F2F2"/>
<path d="M1096.6 578.648L1.39644 579C1.02674 578.999 0.672567 578.855 0.411533 578.599C0.1505 578.343 0.00390625 577.997 0.00390625 577.636C0.00390625 577.275 0.1505 576.928 0.411533 576.672C0.672567 576.417 1.02674 576.272 1.39644 576.271L1096.6 575.919C1096.97 575.92 1097.33 576.064 1097.59 576.32C1097.85 576.576 1098 576.922 1098 577.284C1098 577.645 1097.85 577.991 1097.59 578.247C1097.33 578.503 1096.97 578.647 1096.6 578.648Z" fill="#CACACA"/>
<path d="M121.514 214.15C118.826 215.41 115.818 213.514 113.498 211.636L114.328 212.336C110.227 216.234 108.31 221.841 107.374 227.361C106.436 232.875 106.331 238.514 105.151 243.989C103.969 249.458 101.518 254.953 96.9402 258.303C90.807 262.79 82.3481 262.502 74.8215 261.126C74.7212 261.106 74.6278 261.091 74.5275 261.071C76.5527 255.359 77.3759 249.306 76.9478 243.275C74.9303 249.319 71.4958 254.818 66.9179 259.336C61.9276 257.994 57.0568 256.26 52.3529 254.151C49.3094 252.782 46.0322 250.911 45.1875 247.742C44.3407 244.598 46.3072 241.299 48.9367 239.314C51.5661 237.328 54.7934 236.292 57.789 234.877C60.7797 233.469 63.7392 231.462 64.9367 228.431C67.6985 221.46 59.8307 213.46 62.897 206.608C64.409 203.238 68.1126 201.405 71.5937 199.991C76.9078 197.84 82.3648 196.042 87.9273 194.609C92.8103 193.351 97.909 192.373 102.883 193.198C107.858 194.023 112.731 196.978 114.521 201.594C117.509 202.58 120.68 203.692 122.597 206.148C124.513 208.599 124.359 212.818 121.514 214.15Z" fill="#252229"/>
<path d="M145.425 206.071C137.737 200.142 131.521 201.154 126.726 204.838C125.92 203.962 122.489 206.372 121.328 206.026L117.126 213.731C114.965 217.458 114.078 221.262 114.427 223.403C110.45 234.298 119.88 241.655 131.033 245.54C135.482 247.101 140.338 247.169 144.832 245.735L144.969 243.879L145.813 245.4C145.813 245.4 156.009 265.908 158.418 266.829C156.956 263.124 153.1 245.518 152.024 241.848C150.549 236.854 151.557 228.921 152.424 224.057C152.964 221.058 152.993 217.993 152.508 214.985L152.486 214.853L154.871 219.557L160.223 216.27C158.178 210.449 158.137 203.487 145.425 206.071Z" fill="#252229"/>
</svg>
