<svg width="80" height="81" viewBox="0 0 80 81" fill="none" xmlns="http://www.w3.org/2000/svg">
<rect y="0.5" width="80" height="80" rx="40" fill="#CB8FDC"/>
<path d="M56.25 58H23.75C21.6789 58 20 56.3211 20 54.25V26.75C20 24.6789 21.6789 23 23.75 23H56.25C58.3211 23 60 24.6789 60 26.75V54.25C60 56.3211 58.3211 58 56.25 58ZM55.7812 26.75H24.2188C24.0944 26.75 23.9752 26.7994 23.8873 26.8873C23.7994 26.9752 23.75 27.0944 23.75 27.2188V53.7812C23.75 53.9056 23.7994 54.0248 23.8873 54.1127C23.9752 54.2006 24.0944 54.25 24.2188 54.25H55.7812C55.9056 54.25 56.0248 54.2006 56.1127 54.1127C56.2006 54.0248 56.25 53.9056 56.25 53.7812V27.2188C56.25 27.0944 56.2006 26.9752 56.1127 26.8873C56.0248 26.7994 55.9056 26.75 55.7812 26.75ZM52.5 33.9375V32.0625C52.5 31.5448 52.0802 31.125 51.5625 31.125H35.9375C35.4198 31.125 35 31.5448 35 32.0625V33.9375C35 34.4552 35.4198 34.875 35.9375 34.875H51.5625C52.0802 34.875 52.5 34.4552 52.5 33.9375ZM52.5 41.4375V39.5625C52.5 39.0448 52.0802 38.625 51.5625 38.625H35.9375C35.4198 38.625 35 39.0448 35 39.5625V41.4375C35 41.9552 35.4198 42.375 35.9375 42.375H51.5625C52.0802 42.375 52.5 41.9552 52.5 41.4375ZM52.5 48.9375V47.0625C52.5 46.5448 52.0802 46.125 51.5625 46.125H35.9375C35.4198 46.125 35 46.5448 35 47.0625V48.9375C35 49.4552 35.4198 49.875 35.9375 49.875H51.5625C52.0802 49.875 52.5 49.4552 52.5 48.9375ZM32.8125 48C32.8125 46.4467 31.5533 45.1875 30 45.1875C28.4467 45.1875 27.1875 46.4467 27.1875 48C27.1875 49.5533 28.4467 50.8125 30 50.8125C31.5533 50.8125 32.8125 49.5533 32.8125 48ZM32.8125 40.5C32.8125 38.9467 31.5533 37.6875 30 37.6875C28.4467 37.6875 27.1875 38.9467 27.1875 40.5C27.1875 42.0533 28.4467 43.3125 30 43.3125C31.5533 43.3125 32.8125 42.0533 32.8125 40.5ZM32.8125 33C32.8125 31.4467 31.5533 30.1875 30 30.1875C28.4467 30.1875 27.1875 31.4467 27.1875 33C27.1875 34.5533 28.4467 35.8125 30 35.8125C31.5533 35.8125 32.8125 34.5533 32.8125 33Z" fill="#25092D"/>
</svg>
