<svg width="458" height="331" viewBox="0 0 458 331" fill="none" xmlns="http://www.w3.org/2000/svg">
<g clip-path="url(#clip0_224_189)">
<path d="M401.774 161.228H397.698V322.406H401.774V161.228Z" fill="#FECE2F"/>
<path d="M439.4 181.768C439.659 238.128 400.041 284.001 400.041 284.001C400.041 284.001 360.003 238.495 359.743 182.135C359.484 125.775 399.102 79.9026 399.102 79.9026C399.102 79.9026 439.14 125.408 439.4 181.768Z" fill="#FECE2F"/>
<path d="M320.257 237.064H318.16V319.962H320.257V237.064Z" fill="#FECE2F"/>
<path d="M339.608 247.629C339.742 276.616 319.366 300.21 319.366 300.21C319.366 300.21 298.773 276.805 298.639 247.818C298.506 218.83 318.882 195.237 318.882 195.237C318.882 195.237 339.475 218.641 339.608 247.629Z" fill="#FECE2F"/>
<path d="M361.587 331C392.963 331 418.398 327.098 418.398 322.284C418.398 317.471 392.963 313.568 361.587 313.568C330.211 313.568 304.776 317.471 304.776 322.284C304.776 327.098 330.211 331 361.587 331Z" fill="#FECE2F"/>
<path d="M366.273 119.15C361.46 111.01 351.937 110.631 351.937 110.631C351.937 110.631 342.658 109.443 336.706 121.84C331.157 133.395 323.5 144.552 335.473 147.257L337.635 140.52L338.975 147.758C340.679 147.881 342.39 147.91 344.097 147.846C356.919 147.432 369.13 147.967 368.737 143.362C368.214 137.241 370.904 126.982 366.273 119.15Z" fill="#1A1A1A"/>
<path d="M348.939 134.479C348.939 134.479 355.16 143.195 351.427 150.25C347.695 157.306 360.136 164.777 360.136 164.777L369.259 144.855C369.259 144.855 358.477 137.799 361.38 131.159L348.939 134.479Z" fill="#FBBEBE"/>
<path d="M353.086 138.214C359.041 138.214 363.868 133.383 363.868 127.423C363.868 121.464 359.041 116.632 353.086 116.632C347.132 116.632 342.305 121.464 342.305 127.423C342.305 133.383 347.132 138.214 353.086 138.214Z" fill="#FBBEBE"/>
<path d="M315.774 139.898L324.784 128.262C324.784 128.262 327.956 116.067 332.551 116.685C337.146 117.303 330.736 131.311 330.736 131.311L321.784 144.19L315.774 139.898Z" fill="#FBBEBE"/>
<path d="M361.38 294.684L364.283 310.041L370.503 311.701L368.844 293.439L361.38 294.684Z" fill="#FBBEBE"/>
<path d="M423.996 278.083L435.193 293.439L439.754 295.514L443.486 289.289L432.29 274.762L423.996 278.083Z" fill="#FBBEBE"/>
<path d="M358.892 158.136L351.974 149.022C351.974 149.022 338.572 151.496 337.328 152.741C336.084 153.986 340.646 176.813 340.646 176.813C340.646 176.813 341.475 183.039 345.207 186.359L348.939 188.849L379.626 182.624L380.779 168.958C381.2 163.981 380.576 158.97 378.95 154.248C377.323 149.525 374.728 145.195 371.332 141.535L365.993 142.265L358.892 158.136Z" fill="#FFBD3E"/>
<path d="M338.987 153.571L336.914 152.741L327.376 151.911C327.376 151.911 324.059 151.081 324.888 149.42C325.717 147.76 326.547 147.345 324.888 146.93C323.229 146.515 322.815 146.1 323.229 144.855C323.644 143.61 326.132 141.12 326.132 141.12L319.083 135.309C319.083 135.309 318.701 135.579 318.084 136.079C314.584 138.915 303.509 149.148 311.618 159.381C321.156 171.417 332.352 178.473 341.475 175.983L338.987 153.571Z" fill="#FFBD3E"/>
<path d="M348.11 186.774V192.584C348.11 192.584 344.378 199.64 345.622 206.281C346.866 212.921 347.281 216.242 347.281 216.242C347.416 221.889 348.394 227.485 350.183 232.843C353.086 241.144 343.549 295.514 355.574 296.344C367.6 297.174 374.235 298.004 377.967 293.854C381.699 289.704 371.747 218.317 371.747 218.317C371.747 218.317 405.75 289.289 412.8 286.383C419.85 283.478 437.681 276.837 435.607 273.102C433.534 269.367 381.284 186.359 381.284 186.359L379.626 182.624L348.11 186.774Z" fill="#1A1A1A"/>
<path d="M368.015 307.135C368.015 307.135 361.38 306.72 361.38 308.795C361.38 310.871 358.062 317.926 358.062 317.926C358.062 317.926 355.574 326.227 362.209 325.397C368.844 324.567 372.991 317.096 372.991 317.096L371.332 309.21L368.015 307.135Z" fill="#1A1A1A"/>
<path d="M437.266 292.609C437.266 292.609 431.46 288.874 431.875 291.364C432.29 293.854 432.705 300.495 435.607 300.91C438.51 301.325 447.218 303.815 447.633 304.645C448.048 305.475 458 308.795 458 303.4C458 298.004 451.78 293.854 451.78 293.854L444.73 288.458C444.73 288.458 440.169 288.043 439.339 290.949C438.51 293.854 437.266 292.609 437.266 292.609Z" fill="#1A1A1A"/>
<path d="M353.103 117.563C356.905 117.563 359.988 114.478 359.988 110.672C359.988 106.866 356.905 103.781 353.103 103.781C349.3 103.781 346.217 106.866 346.217 110.672C346.217 114.478 349.3 117.563 353.103 117.563Z" fill="#1A1A1A"/>
<path d="M345.493 108.858C345.493 107.157 346.122 105.515 347.26 104.25C348.397 102.984 349.962 102.185 351.653 102.006C351.412 101.981 351.17 101.968 350.928 101.967C349.102 101.967 347.351 102.693 346.06 103.986C344.768 105.278 344.043 107.031 344.043 108.858C344.043 110.686 344.768 112.439 346.06 113.731C347.351 115.024 349.102 115.75 350.928 115.75C351.17 115.749 351.412 115.737 351.653 115.711C349.962 115.532 348.397 114.733 347.26 113.467C346.122 112.202 345.493 110.56 345.493 108.858Z" fill="#1A1A1A"/>
<path d="M364.145 118.365L354.737 113.433L341.745 115.451L339.057 127.333L345.749 127.075L347.618 122.71V127.003L350.705 126.885L352.497 119.935L353.617 127.333L364.593 127.109L364.145 118.365Z" fill="#1A1A1A"/>
<path d="M363.581 187.735L349.073 188.128C349.073 188.128 336.693 190.539 337.388 185.538C338.082 180.537 350.16 182.286 350.16 182.286L363.38 180.267L363.581 187.735Z" fill="#FBBEBE"/>
<path d="M375.061 140.831C375.79 140.721 376.534 140.874 377.161 141.264C377.787 141.655 378.253 142.256 378.476 142.959C381.316 151.918 390.066 181.896 381.372 186.008C371.133 190.853 363.66 190.64 363.66 190.64L359.66 180.783L363.301 177.363L367.189 152.347L369.051 141.742L375.061 140.831Z" fill="#FFBD3E"/>
<path opacity="0.4" d="M372.369 157.514L370.71 174.115L356.196 180.341L372.369 176.605V157.514Z" fill="black"/>
<path d="M294.096 102.707C298.771 103.947 302.816 106.887 305.439 110.953L306.795 113.056L306.863 113.143L330.66 120.112C331.096 120.24 331.465 120.534 331.687 120.931C331.908 121.328 331.966 121.796 331.846 122.235L329.999 129.015C329.938 129.235 329.835 129.442 329.695 129.623C329.555 129.804 329.38 129.955 329.181 130.068C328.982 130.181 328.763 130.253 328.536 130.281C328.309 130.309 328.079 130.291 327.858 130.23L304.056 123.571L301.665 124.476C297.263 126.142 292.435 126.306 287.93 124.943L294.096 102.707Z" fill="#9435B6"/>
<path d="M319.156 122.368C319.382 121.598 318.394 120.63 316.95 120.207C315.505 119.784 314.152 120.066 313.927 120.837C313.701 121.608 314.689 122.576 316.133 122.998C317.578 123.421 318.931 123.139 319.156 122.368Z" fill="#692B7E"/>
<path d="M317.941 123.079C318.493 123.079 318.94 122.632 318.94 122.079C318.94 121.527 318.493 121.08 317.941 121.08C317.389 121.08 316.942 121.527 316.942 122.079C316.942 122.632 317.389 123.079 317.941 123.079Z" fill="#3F184D"/>
<path d="M296.086 115.548C298.07 109.423 297.435 103.73 294.668 102.832C291.901 101.934 288.049 106.171 286.064 112.296C284.08 118.421 284.715 124.114 287.482 125.012C290.249 125.91 294.101 121.673 296.086 115.548Z" fill="#FECE2F"/>
<path opacity="0.4" d="M295.346 115.332C297.258 109.43 296.738 103.93 294.222 102.733C294.373 102.752 294.523 102.785 294.668 102.832C297.435 103.73 298.07 109.423 296.086 115.548C294.101 121.673 290.249 125.91 287.482 125.012C287.382 124.979 287.284 124.94 287.188 124.894C289.91 125.241 293.466 121.134 295.346 115.332Z" fill="black"/>
<path d="M294.409 102.728L240.402 60.799C230.852 53.331 221.688 45.3817 212.944 36.9818C197.549 22.2945 176.65 10.5518 152.318 4.29982C93.2005 -10.8896 46.3677 16.0431 25.0668 55.5896C-7.48325 116.021 -32.4286 214.085 111.898 161.885C143.462 150.469 175.412 149.256 199.638 143.243L287.36 125.141L294.409 102.728Z" fill="#FFEFBB"/>
<path d="M132.27 32.1719C133.873 32.1719 135.172 30.8711 135.172 29.2666C135.172 27.6621 133.873 26.3613 132.27 26.3613C130.666 26.3613 129.367 27.6621 129.367 29.2666C129.367 30.8711 130.666 32.1719 132.27 32.1719Z" fill="white"/>
<path d="M188.658 35.9818H187.902V35.2256H187.755V35.9818H186.999V36.1295H187.755V36.8857H187.902V36.1295H188.658V35.9818Z" fill="white"/>
<path d="M264.544 99.0677H263.789V98.3115H263.641V99.0677H262.885V99.2155H263.641V99.9717H263.789V99.2155H264.544V99.0677Z" fill="white"/>
<path d="M259.153 118.575H258.398V117.818H258.25V118.575H257.495V118.722H258.25V119.479H258.398V118.722H259.153V118.575Z" fill="white"/>
<path d="M27.3477 135.176H26.5921V134.42H26.4445V135.176H25.689V135.324H26.4445V136.08H26.5921V135.324H27.3477V135.176Z" fill="white"/>
<path d="M60.522 44.6976H59.7665V43.9414H59.6188V44.6976H58.8633V44.8454H59.6188V45.6016H59.7665V44.8454H60.522V44.6976Z" fill="white"/>
<path d="M189.487 121.895H188.732V121.139H188.584V121.895H187.828V122.043H188.584V122.799H188.732V122.043H189.487V121.895Z" fill="white"/>
<path d="M110.283 18.1351H109.528V17.3789H109.38V18.1351H108.625V18.2829H109.38V19.0391H109.528V18.2829H110.283V18.1351Z" fill="white"/>
<path d="M110.574 77.8916L109.633 78.0369C109.927 79.9211 110.159 81.8469 110.329 83.752L111.279 83.6689C111.109 81.739 110.872 79.7966 110.574 77.8916Z" fill="white"/>
<path d="M107.999 66.5444L107.086 66.8225C107.638 68.6487 108.131 70.5205 108.55 72.384L109.483 72.1724C109.056 70.2881 108.554 68.3955 107.999 66.5444Z" fill="white"/>
<path d="M103.889 55.6621L103.023 56.0605C103.819 57.7996 104.565 59.5842 105.241 61.3689L106.133 61.0327C105.448 59.2273 104.698 57.4177 103.889 55.6621Z" fill="white"/>
<path d="M98.3326 45.4604L97.5281 45.9709C98.5523 47.5813 99.5351 49.2498 100.447 50.9224L101.285 50.4658C100.364 48.7725 99.3693 47.0874 98.3326 45.4604Z" fill="white"/>
<path d="M91.424 36.1096L90.6983 36.728C91.934 38.1807 93.1366 39.6997 94.2728 41.2354L95.0359 40.6667C93.8913 39.1145 92.6763 37.5789 91.424 36.1096Z" fill="white"/>
<path d="M83.3046 27.7839L82.6701 28.4937C84.0966 29.7678 85.4941 31.1084 86.8252 32.4739L87.5094 31.8057C86.1617 30.4236 84.7476 29.0705 83.3046 27.7839Z" fill="white"/>
<path d="M74.1319 20.637L73.5969 21.4255C75.181 22.4922 76.7485 23.6294 78.2538 24.804L78.8426 24.0527C77.3166 22.8657 75.7325 21.7161 74.1319 20.637Z" fill="white"/>
<path d="M65.7844 15.6731V16.7522C66.7754 17.271 67.7582 17.8147 68.7203 18.3708L69.1972 17.5449C68.0775 16.8974 66.9399 16.2735 65.7844 15.6731Z" fill="white"/>
<path d="M110.638 89.6397L111.591 89.6223C111.609 90.5857 111.61 91.5541 111.595 92.5011L110.642 92.4862C110.657 91.55 110.655 90.5923 110.638 89.6397Z" fill="white"/>
<path d="M54.5922 159.654L53.6509 159.8C53.9453 161.684 54.1775 163.61 54.3475 165.515L55.2972 165.432C55.1271 163.502 54.8908 161.559 54.5922 159.654Z" fill="white"/>
<path d="M52.017 148.307L51.1047 148.585C51.6563 150.411 52.1497 152.283 52.5686 154.147L53.5016 153.935C53.0745 152.051 52.5727 150.158 52.017 148.307Z" fill="white"/>
<path d="M47.9076 137.425L47.0409 137.823C47.8371 139.562 48.5835 141.347 49.2594 143.132L50.151 142.795C49.4668 140.99 48.7162 139.18 47.9076 137.425Z" fill="white"/>
<path d="M42.3509 127.223L41.5464 127.734C42.5706 129.344 43.5534 131.012 44.4657 132.685L45.3034 132.229C44.3828 130.535 43.3876 128.85 42.3509 127.223Z" fill="white"/>
<path d="M35.4424 117.872L34.7167 118.491C35.9524 119.943 37.155 121.462 38.2912 122.998L39.0542 122.429C37.9097 120.877 36.6947 119.342 35.4424 117.872Z" fill="white"/>
<path d="M27.3229 109.547L26.6884 110.256C28.1149 111.531 29.5124 112.871 30.8435 114.237L31.5277 113.568C30.18 112.186 28.766 110.833 27.3229 109.547Z" fill="white"/>
<path d="M18.1502 102.4L17.6152 103.188C19.1993 104.255 20.7668 105.392 22.2721 106.567L22.8609 105.815C21.3349 104.628 19.7508 103.479 18.1502 102.4Z" fill="white"/>
<path d="M9.80267 97.4358V98.5149C10.7938 99.0337 11.7765 99.5774 12.7386 100.134L13.2155 99.3076C12.0958 98.6602 10.9582 98.0362 9.80267 97.4358Z" fill="white"/>
<path d="M54.6564 171.402L55.6096 171.385C55.6271 172.348 55.6284 173.317 55.6135 174.264L54.6604 174.249C54.6749 173.313 54.6737 172.355 54.6564 171.402Z" fill="white"/>
<path d="M246.174 118.565L245.233 118.711C245.527 120.595 245.759 122.521 245.929 124.426L246.879 124.343C246.709 122.413 246.472 120.47 246.174 118.565Z" fill="white"/>
<path d="M243.599 107.218L242.686 107.496C243.238 109.323 243.731 111.194 244.15 113.058L245.083 112.846C244.656 110.962 244.154 109.069 243.599 107.218Z" fill="white"/>
<path d="M239.489 96.3359L238.623 96.7344C239.419 98.4734 240.165 100.258 240.841 102.043L241.733 101.707C241.049 99.9011 240.298 98.0915 239.489 96.3359Z" fill="white"/>
<path d="M233.933 86.1343L233.128 86.6448C234.152 88.2551 235.135 89.9236 236.047 91.5962L236.885 91.1396C235.965 89.4463 234.969 87.7612 233.933 86.1343Z" fill="white"/>
<path d="M227.024 76.7834L226.298 77.4019C227.534 78.8545 228.737 80.3735 229.873 81.9092L230.636 81.3406C229.491 79.7883 228.276 78.2527 227.024 76.7834Z" fill="white"/>
<path d="M218.905 68.4578L218.27 69.1675C219.697 70.4416 221.094 71.7822 222.425 73.1477L223.109 72.4795C221.762 71.0974 220.348 69.7444 218.905 68.4578Z" fill="white"/>
<path d="M209.732 61.3108L209.197 62.0994C210.781 63.166 212.349 64.3032 213.854 65.4778L214.443 64.7265C212.917 63.5395 211.333 62.3899 209.732 61.3108Z" fill="white"/>
<path d="M201.384 56.3469V57.426C202.375 57.9448 203.358 58.4885 204.32 59.0447L204.797 58.2188C203.678 57.5713 202.54 56.9473 201.384 56.3469Z" fill="white"/>
<path d="M246.238 130.313L247.191 130.296C247.209 131.259 247.21 132.228 247.195 133.175L246.242 133.16C246.257 132.224 246.255 131.266 246.238 130.313Z" fill="white"/>
<path d="M61.9095 82.9642H61.2067V82.2603H61.0694V82.9642H60.3661V83.1011H61.0694V83.805H61.2067V83.1011H61.9095V82.9642Z" fill="#F2F2F2"/>
<path d="M53.8062 125.446H53.1034V124.742H52.9661V125.446H52.2628V125.584H52.9661V126.287H53.1034V125.584H53.8062V125.446Z" fill="#F2F2F2"/>
<path d="M30.0298 162.678H29.3265V161.975H29.1893V162.678H28.4864V162.816H29.1893V163.52H29.3265V162.816H30.0298V162.678Z" fill="#F2F2F2"/>
<path d="M96.1718 115.457C89.3738 105.343 86.4221 93.1259 87.852 81.0208C89.282 68.9157 94.9988 57.7243 103.966 49.4761C112.933 41.2278 124.556 36.4689 136.728 36.0623C148.9 35.6557 160.815 39.6284 170.311 47.2599C179.808 54.8914 186.258 65.6765 188.491 77.6592C190.724 89.6419 188.593 102.029 182.484 112.574C176.374 123.119 166.692 131.123 155.192 135.136C143.692 139.148 131.136 138.904 119.801 134.445C119.066 137.071 117.692 139.472 115.803 141.436C113.913 143.399 111.566 144.863 108.972 145.696C106.379 146.53 103.619 146.706 100.941 146.21C98.2622 145.714 95.7485 144.561 93.6245 142.854C91.5004 141.147 89.8325 138.94 88.7699 136.429C87.7072 133.919 87.2831 131.184 87.5355 128.47C87.7879 125.755 88.7089 123.145 90.2161 120.874C91.7233 118.604 93.7696 116.742 96.1718 115.457Z" fill="#FECE2F"/>
<path d="M138.141 57.8718C149.816 57.8718 157.848 64.3531 157.848 73.67C157.848 79.8397 154.86 84.1086 149.1 87.505C143.683 90.6522 141.846 92.958 141.846 96.9465C141.846 97.2698 141.782 97.5899 141.659 97.8886C141.535 98.1872 141.354 98.4586 141.126 98.6872C140.897 98.9158 140.626 99.0971 140.328 99.2208C140.029 99.3445 139.71 99.4082 139.387 99.4082H133.418C132.781 99.4082 132.168 99.1605 131.71 98.7173C131.251 98.2741 130.982 97.67 130.96 97.0324L130.95 96.7284C130.42 90.3094 132.662 86.321 138.297 83.018C143.558 79.8708 145.769 77.8766 145.769 74.0127C145.769 70.1489 142.033 67.3133 137.394 67.3133C133.868 67.3133 131.078 69.031 129.798 71.8354C129.348 72.7848 128.636 73.5853 127.746 74.1424C126.856 74.6994 125.825 74.9896 124.776 74.9787C120.732 74.9787 118.06 70.6745 119.951 67.0969C122.943 61.4376 129.255 57.8718 138.141 57.8718ZM129.953 111.28C129.953 107.697 132.942 104.861 136.616 104.861C140.321 104.861 143.309 107.666 143.309 111.28C143.309 114.895 140.321 117.699 136.616 117.699C132.911 117.699 129.953 114.895 129.953 111.28Z" fill="white"/>
</g>
<defs>
<clipPath id="clip0_224_189">
<rect width="458" height="331" fill="white"/>
</clipPath>
</defs>
</svg>
