<svg width="638" height="762" viewBox="0 0 638 762" fill="none" xmlns="http://www.w3.org/2000/svg">
<g filter="url(#filter0_d_360_1025)">
<path d="M517.246 427.448C515.621 432.724 510.028 435.685 504.751 434.063L119.564 315.652C114.283 314.029 111.319 308.43 112.945 303.15L202.754 11.5519C204.379 6.27573 209.972 3.31463 215.249 4.93686L600.436 123.348C605.717 124.971 608.681 130.57 607.055 135.85L517.246 427.448ZM115.184 302.01C113.557 307.29 116.521 312.888 121.802 314.512L503.541 431.863C508.818 433.485 514.412 430.524 516.037 425.247L604.816 136.99C606.443 131.71 603.479 126.112 598.198 124.488L216.459 7.13737C211.182 5.51513 205.588 8.47625 203.963 13.7525L115.184 302.01Z" fill="#FFEDB3"/>
<path d="M504.457 435.019C510.262 436.803 516.414 433.546 518.202 427.742L608.011 136.144C609.8 130.336 606.539 124.178 600.73 122.392L215.543 3.98101C209.738 2.19655 203.586 5.45376 201.798 11.2576L111.989 302.856C110.2 308.664 113.461 314.822 119.27 316.608L504.457 435.019ZM122.096 313.556C117.343 312.095 114.676 307.056 116.139 302.304L204.919 14.0468C206.382 9.29822 211.416 6.63321 216.165 8.09322L597.904 125.444C602.657 126.905 605.324 131.944 603.861 136.696L515.081 424.953C513.618 429.702 508.584 432.367 503.835 430.907L122.096 313.556Z" stroke="#FFEDB3" stroke-width="2"/>
</g>
<path d="M513.461 437C492.187 425.059 478.944 408.757 474.098 388.546C470.5 373.541 471.534 356.655 477.171 338.358C481.349 324.868 487.615 312.125 495.736 300.6C538.818 239.199 542.706 199.19 538.382 176.438C533.641 151.492 518.236 141.131 518.081 141.03L518.746 140C518.905 140.104 534.716 150.705 539.571 176.158C542.37 190.831 541.053 207.563 535.657 225.888C528.941 248.694 515.844 274.069 496.732 301.309C488.685 312.729 482.477 325.354 478.336 338.721C469.091 368.73 467.783 409.955 514.054 435.928L513.461 437Z" fill="#F5F3BA"/>
<path d="M474.75 324C458.053 314.607 458.518 299.722 461.848 288.888C463.325 284.11 465.539 279.597 468.409 275.514C483.435 254.05 484.793 240.107 483.286 232.189C481.649 223.592 476.399 220.062 476.347 220.027L477.009 219C477.242 219.153 482.745 222.853 484.478 231.958C486.735 243.814 481.662 258.706 469.401 276.222C466.604 280.199 464.447 284.596 463.008 289.251C459.811 299.652 459.356 313.937 475.341 322.93L474.75 324Z" fill="#F5F3BA"/>
<path d="M551.25 187L550.659 185.929C566.644 176.936 566.189 162.651 562.992 152.251C561.553 147.595 559.396 143.198 556.599 139.221C544.338 121.707 539.265 106.814 541.522 94.9583C543.255 85.8534 548.758 82.1529 548.992 82L549.654 83.0268C549.601 83.0621 544.325 86.6382 542.705 95.2378C541.215 103.151 542.587 117.082 557.591 138.514C560.461 142.596 562.675 147.109 564.152 151.887C567.482 162.721 567.947 177.607 551.25 187Z" fill="#F5F3BA"/>
<path d="M586.595 126.504C583.944 130.665 579.79 133.577 575.046 134.599C570.301 135.621 565.355 134.67 561.294 131.954C557.234 129.238 554.392 124.98 553.393 120.117C552.393 115.253 553.319 110.182 555.967 106.018C561.485 97.3466 589.265 88 589.265 88C589.265 88 592.113 117.833 586.595 126.504Z" fill="#F8EC80"/>
<path d="M580.503 69.5066C577.78 73.6673 573.513 76.5783 568.641 77.5997C563.768 78.6212 558.689 77.6695 554.519 74.9538C550.349 72.2382 547.43 67.9809 546.404 63.1176C545.377 58.2544 546.327 53.1833 549.045 49.019C554.712 40.3473 583.245 31 583.245 31C583.245 31 586.171 60.8349 580.503 69.5066Z" fill="#F8EC80"/>
<path d="M550.738 278C546.49 278.007 542.367 276.534 539.046 273.822C535.725 271.111 533.403 267.323 532.464 263.082C531.524 258.84 532.022 254.397 533.875 250.484C535.729 246.571 538.828 243.42 542.663 241.549C551.775 237.103 579.108 243.612 580.267 243.891L581 244.068L580.672 244.762C580.154 245.859 567.868 271.693 558.754 276.139C556.251 277.364 553.512 278 550.738 278ZM552.26 241.237C548.553 241.237 545.305 241.63 543.182 242.665C538.994 244.711 535.77 248.376 534.22 252.854C532.67 257.332 532.921 262.258 534.916 266.547C536.912 270.837 540.489 274.139 544.862 275.729C549.234 277.318 554.045 277.065 558.235 275.024C566.163 271.156 577.19 249.145 579.248 244.922C575.954 244.173 562.396 241.237 552.26 241.237Z" fill="#F8F496"/>
<path d="M512.98 109.78C514.771 111.419 516.222 113.397 517.252 115.6C518.281 117.802 518.869 120.187 518.98 122.618C519.092 125.048 518.726 127.477 517.903 129.766C517.079 132.054 515.815 134.158 514.182 135.956C512.549 137.754 510.58 139.211 508.386 140.245C506.192 141.278 503.817 141.868 501.396 141.98C498.975 142.092 496.556 141.725 494.277 140.898C491.997 140.072 489.902 138.802 488.112 137.163C480.58 130.268 476 101 476 101C476 101 505.448 102.885 512.98 109.78Z" fill="#F8EC80"/>
<path d="M469.98 186.78C473.596 190.091 475.755 194.709 475.98 199.618C476.206 204.527 474.48 209.324 471.182 212.955C467.885 216.587 463.285 218.754 458.396 218.98C453.507 219.207 448.728 217.474 445.112 214.163C437.58 207.268 433 178 433 178C433 178 462.449 179.885 469.98 186.78Z" fill="#F8EC80"/>
<path d="M518.216 198C512.04 198 500.231 191.876 499.689 191.593L499 191.234L499.485 190.608C499.9 190.074 509.702 177.499 515.216 176.249C517.951 175.631 520.81 176.175 523.162 177.762C525.515 179.35 527.169 181.85 527.761 184.714C528.353 187.578 527.835 190.571 526.32 193.035C524.805 195.499 522.418 197.233 519.683 197.854C519.2 197.957 518.708 198.005 518.216 198ZM500.942 190.794C503.85 192.247 514.99 197.597 519.422 196.592C521.836 196.042 523.943 194.511 525.28 192.335C526.617 190.159 527.074 187.517 526.551 184.988C526.028 182.46 524.568 180.252 522.492 178.85C520.415 177.448 517.892 176.967 515.477 177.512C511.043 178.517 503.016 188.211 500.942 190.794Z" fill="#F8F496"/>
<path d="M364.334 90.3137C359.165 73.8423 347.412 58.7353 331.158 53.1671C314.903 47.5989 286.547 52.8038 278.881 68.26C267.834 90.5358 272.797 117.815 278.655 142.002C281.71 141.84 284.793 141.713 287.884 141.597L292.258 127.02V141.453C316.389 140.708 341.512 141.175 366.649 141.658C368.902 124.534 369.502 106.785 364.334 90.3137Z" fill="#252229"/>
<path d="M142.594 717.954L162.896 726.461L205.369 652.212L175.409 639.655L142.594 717.954Z" fill="#FFBA94"/>
<path d="M129.171 735.461L194.626 762.892L194.973 762.064C197.804 755.308 197.836 747.703 195.06 740.923C192.285 734.143 186.93 728.743 180.174 725.911L180.172 725.91L140.195 709.156L129.171 735.461Z" fill="#252229"/>
<path d="M440.285 367.213C441.553 365.384 442.404 363.298 442.779 361.103C443.153 358.909 443.042 356.659 442.453 354.512C441.864 352.365 440.812 350.373 439.37 348.677C437.927 346.981 436.131 345.622 434.107 344.695L390.476 213.039L361.256 228.623L413.332 353.137C412 356.641 412 360.511 413.332 364.015C414.663 367.518 417.234 370.412 420.556 372.147C423.878 373.882 427.722 374.338 431.358 373.429C434.994 372.52 438.171 370.308 440.285 367.213V367.213Z" fill="#FFBA94"/>
<path d="M386.491 741.557L408.501 741.556L418.972 656.659L386.487 656.661L386.491 741.557Z" fill="#FFBA94"/>
<path d="M380.878 762.892L451.848 762.889V761.992C451.848 754.666 448.937 747.64 443.757 742.46C438.577 737.279 431.551 734.369 424.225 734.369H424.223L380.877 734.37L380.878 762.892Z" fill="#252229"/>
<path d="M298.243 258.682L293.256 271.649L294.253 284.615L390.007 272.647L387.014 261.675L376.043 248.708L298.243 258.682Z" fill="#FFBA94"/>
<path d="M329.103 141.995C309.85 141.995 294.243 126.388 294.243 107.135C294.243 87.8816 309.85 72.2739 329.103 72.2739C348.356 72.2739 363.964 87.8816 363.964 107.135C363.964 126.388 348.356 141.995 329.103 141.995Z" fill="#FFC09C"/>
<path d="M292.726 272.579L387.677 262.478L391.791 249.025C393.07 247.272 405.122 230.192 402.449 213.117C401.787 209.095 400.304 205.252 398.094 201.826C395.884 198.401 392.994 195.466 389.602 193.205L366.515 166.173L346.206 154.084L306.168 150.081L306.03 150.112L270.086 158.246L270.522 224.135L292.726 272.579Z" fill="#FECE2F"/>
<path d="M385.286 279.561L411.889 276.402L411.819 275.567C411.574 272.629 405.756 203.448 399.798 187.559C393.711 171.327 367.346 166.271 366.227 166.064L365.904 166.004L360.045 169.52L376.213 220.047L385.286 279.561Z" fill="#FECE2F"/>
<path d="M293.256 279.628V301.784C293.256 301.784 267.322 335.485 281.286 361.418C281.286 361.418 251.363 417.275 249.368 437.224L221.44 528.988C221.44 528.988 151.619 598.809 157.604 648.681L153.614 664.64L199.497 684.589L209.471 670.624L287.271 536.968L353.102 415.28L365.071 558.911C365.071 558.911 357.092 670.624 379.035 682.594L381.03 700.548H427.596V683.481C427.596 683.481 444.866 622.747 434.892 576.865L438.882 383.362C438.882 383.362 420.928 301.572 398.984 287.608L391.005 267.659L293.256 279.628Z" fill="#252229"/>
<path d="M326.415 325.437C325.611 325.618 324.822 325.862 324.056 326.167L263.198 284.275L264.59 266.381L237.859 260.75L232.315 292.189C231.867 294.729 232.255 297.345 233.421 299.646C234.587 301.946 236.467 303.807 238.78 304.947L314.166 342.126C314.452 345.288 315.694 348.289 317.727 350.729C319.76 353.168 322.487 354.931 325.547 355.783C328.606 356.635 331.852 356.535 334.853 355.497C337.854 354.458 340.468 352.531 342.347 349.971C344.226 347.411 345.281 344.339 345.372 341.165C345.463 337.991 344.585 334.864 342.856 332.201C341.126 329.537 338.627 327.464 335.69 326.255C332.753 325.047 329.518 324.762 326.415 325.437Z" fill="#FFBA94"/>
<path d="M263.774 286.588L276.161 203.952L286.328 161.263L271.137 158.088C270.723 157.935 258.354 153.754 248.367 160.486C241.178 165.332 237.196 174.529 236.532 187.82L232.508 282.378L263.774 286.588Z" fill="#FECE2F"/>
<path d="M353.056 61.7395C346.357 57.656 338.685 55.4471 330.841 55.3436C322.997 55.2402 315.269 57.2461 308.465 61.1517C301.662 65.0572 296.032 70.7188 292.165 77.5446C288.299 84.3704 286.337 92.1097 286.485 99.9532C305.971 100.849 326.441 101.083 347.198 101.123L352.103 89.1173L354.995 101.132C361.32 101.131 367.656 101.123 374.005 101.107C374.264 93.2854 372.465 85.5331 368.789 78.6248C365.113 71.7164 359.688 65.8939 353.056 61.7395Z" fill="#252229"/>
<defs>
<filter id="filter0_d_360_1025" x="106.499" y="0.492188" width="507.002" height="442.016" filterUnits="userSpaceOnUse" color-interpolation-filters="sRGB">
<feFlood flood-opacity="0" result="BackgroundImageFix"/>
<feColorMatrix in="SourceAlpha" type="matrix" values="0 0 0 0 0 0 0 0 0 0 0 0 0 0 0 0 0 0 127 0" result="hardAlpha"/>
<feOffset dy="2"/>
<feGaussianBlur stdDeviation="2"/>
<feComposite in2="hardAlpha" operator="out"/>
<feColorMatrix type="matrix" values="0 0 0 0 0.996078 0 0 0 0 0.807843 0 0 0 0 0.184314 0 0 0 1 0"/>
<feBlend mode="normal" in2="BackgroundImageFix" result="effect1_dropShadow_360_1025"/>
<feBlend mode="normal" in="SourceGraphic" in2="effect1_dropShadow_360_1025" result="shape"/>
</filter>
</defs>
</svg>
