<svg width="80" height="80" viewBox="0 0 80 80" fill="none" xmlns="http://www.w3.org/2000/svg">
<circle cx="40" cy="40" r="40" fill="#FADB78"/>
<path d="M42.2003 30.826C44.0703 30.166 45.5663 28.67 46.2263 26.8H53.2003L46.6003 42.2C46.6003 45.852 50.0543 48.8 54.3003 48.8C58.5463 48.8 62.0003 45.852 62.0003 42.2L55.4003 26.8C55.4003 26.8 56.5443 26.8 59.8003 26.8C63.0563 26.8 63.0563 22.4 59.8003 22.4C56.5443 22.4 46.2263 22.4 46.2263 22.4C45.3243 19.826 42.8823 18 40.0003 18C37.1183 18 34.6763 19.826 33.7743 22.4C33.7743 22.4 23.4563 22.4 20.2003 22.4C16.9443 22.4 16.9443 26.8 20.2003 26.8C23.4563 26.8 24.6003 26.8 24.6003 26.8L18.0003 42.2C18.0003 45.852 21.4543 48.8 25.7003 48.8C29.9463 48.8 33.4003 45.852 33.4003 42.2L26.8003 26.8H33.7743C34.4343 28.67 35.9303 30.166 37.8003 30.826V55.4H18.0003V59.8H62.0003V55.4H42.2003V30.826ZM58.4143 42.2H50.1863L54.3003 32.608L58.4143 42.2ZM29.8143 42.2H21.5863L25.7003 32.608L29.8143 42.2ZM40.0003 26.8C38.7903 26.8 37.8003 25.81 37.8003 24.6C37.8003 23.39 38.7903 22.4 40.0003 22.4C41.2103 22.4 42.2003 23.39 42.2003 24.6C42.2003 25.81 41.2103 26.8 40.0003 26.8Z" fill="#25092D"/>
</svg>
