<svg width="60" height="61" viewBox="0 0 60 61" fill="none" xmlns="http://www.w3.org/2000/svg">
<circle cx="30" cy="30.5" r="30" fill="#CB8FDC"/>
<path d="M29.3194 42.858C27.2569 42.858 25.4245 42.5043 23.8223 41.7969C22.2285 41.081 20.9757 40.0966 20.0637 38.8438C19.1518 37.5909 18.6916 36.1506 18.6831 34.5227H25.8422C25.8507 35.0256 26.0041 35.4773 26.3024 35.8778C26.6092 36.2699 27.0268 36.5767 27.5552 36.7983C28.0836 37.0199 28.6887 37.1307 29.3706 37.1307C30.0268 37.1307 30.6064 37.0156 31.1092 36.7855C31.612 36.5469 32.0041 36.2187 32.2853 35.8011C32.5666 35.3835 32.7029 34.9062 32.6944 34.3693C32.7029 33.8409 32.541 33.3722 32.2086 32.9631C31.8848 32.554 31.4288 32.2344 30.8407 32.0043C30.2527 31.7741 29.5751 31.6591 28.8081 31.6591H26.149V26.75H28.8081C29.5154 26.75 30.1376 26.6349 30.6745 26.4048C31.22 26.1747 31.6419 25.8551 31.9402 25.446C32.247 25.0369 32.3961 24.5682 32.3876 24.0398C32.3961 23.5284 32.2725 23.0767 32.0169 22.6847C31.7612 22.2926 31.4032 21.9858 30.943 21.7642C30.4913 21.5426 29.9672 21.4318 29.3706 21.4318C28.7228 21.4318 28.1433 21.5469 27.6319 21.777C27.1291 22.0071 26.7328 22.3267 26.443 22.7358C26.1532 23.1449 26.0041 23.6136 25.9956 24.142H19.1944C19.2029 22.5398 19.6419 21.125 20.5112 19.8977C21.389 18.6705 22.5907 17.7074 24.1163 17.0085C25.6419 16.3097 27.3933 15.9602 29.3706 15.9602C31.3052 15.9602 33.014 16.2884 34.497 16.9446C35.9885 17.6009 37.1518 18.5043 37.987 19.6548C38.8308 20.7969 39.2484 22.1051 39.2399 23.5795C39.2569 25.0455 38.7541 26.2472 37.7314 27.1847C36.7172 28.1222 35.4302 28.6761 33.8706 28.8466V29.0511C35.9842 29.2812 37.5737 29.929 38.639 30.9943C39.7044 32.0511 40.2285 33.3807 40.2115 34.983C40.22 36.517 39.7598 37.8764 38.8308 39.0611C37.9103 40.2457 36.6277 41.1747 34.9828 41.848C33.3464 42.5213 31.4586 42.858 29.3194 42.858Z" fill="#25092D"/>
</svg>
