<svg width="60" height="61" viewBox="0 0 60 61" fill="none" xmlns="http://www.w3.org/2000/svg">
<circle cx="30" cy="30.5" r="30" fill="#CB8FDC"/>
<path d="M19.6019 43.5V38.3864L29.369 30.3068C30.0167 29.7699 30.5707 29.267 31.0309 28.7983C31.4996 28.321 31.8576 27.831 32.1048 27.3281C32.3604 26.8253 32.4883 26.267 32.4883 25.6534C32.4883 24.9801 32.3434 24.4048 32.0536 23.9276C31.7724 23.4503 31.3803 23.0838 30.8775 22.8281C30.3746 22.5639 29.7951 22.4318 29.1389 22.4318C28.4826 22.4318 27.9031 22.5639 27.4002 22.8281C26.9059 23.0923 26.5224 23.4801 26.2496 23.9915C25.9769 24.5028 25.8406 25.125 25.8406 25.858H19.0906C19.0906 24.017 19.5039 22.4318 20.3306 21.1023C21.1573 19.7727 22.3249 18.75 23.8335 18.0341C25.342 17.3182 27.1104 16.9602 29.1389 16.9602C31.2354 16.9602 33.0508 17.2969 34.5849 17.9702C36.1275 18.6349 37.3164 19.5724 38.1516 20.7827C38.9954 21.9929 39.4173 23.4119 39.4173 25.0398C39.4173 26.0455 39.2085 27.0469 38.7908 28.044C38.3732 29.0327 37.6232 30.1278 36.5408 31.3295C35.4585 32.5312 33.9201 33.9631 31.9258 35.625L29.4712 37.6705V37.8239H39.6985V43.5H19.6019Z" fill="#25092D"/>
</svg>
